<svg width="245" height="249" viewBox="0 0 245 249" fill="none" xmlns="http://www.w3.org/2000/svg">
<path d="M107.616 15.2642C108.591 15.1211 109.272 15.2945 110.205 15.2863C117.535 15.2219 124.993 15.4934 132.305 15.3253C139.223 15.2504 148.818 15.1107 155.725 15.3632L155.686 15.5323C155.978 19.1104 155.807 24.6654 155.803 28.3834L155.758 51.4993C157.778 52.5451 163.13 51.4857 163.742 51.7325C165.712 51.9764 168.163 51.9822 170.188 52.034L169.956 52.0819C167.561 52.5643 165.696 52.0065 164.697 52.4369C163.808 53.793 163.238 57.4376 164.737 58.6468C167.024 59.3073 170.206 57.9397 172.268 59.2932C176.235 59.2997 184.002 59.5079 187.701 59.2202C188.303 59.7413 188.184 59.8819 188.195 60.7132C188.249 65.0275 188.199 69.3482 188.198 73.6632C186.563 73.2907 174.396 73.43 171.995 73.4336C172.239 75.8013 171.823 78.6843 172.16 80.7295L180.186 80.7147C182.476 80.7106 186.483 80.8069 188.664 80.6828C191.261 80.7174 193.858 80.7317 196.456 80.7261C199.577 80.7261 203.919 80.6089 206.941 80.7653L214.876 80.6918L219.451 80.747C221.811 80.7376 225.993 80.8222 228.225 80.6741L228.271 165.099L228.263 190.408C228.263 193.568 228.06 200.212 228.366 203.129L228.177 204.46L228.25 204.621C228.255 206.417 228.374 209.401 228.252 211.098C227.679 211.343 227.462 211.257 226.799 211.179L225.663 211.122C223.61 211.073 222.143 211.075 220.098 211.195C217.647 211.154 215.198 211.16 212.75 211.212C212.766 212.152 213.004 217.965 212.812 218.345L212.571 218.438C210.034 218.329 207.001 218.399 204.42 218.379L196.675 218.361C196.36 219.571 195.938 224.779 196.663 225.699L196.323 225.731C195.745 225.897 189.33 225.693 188.207 225.685C185.647 225.619 182.604 225.687 180.013 225.693C180.088 227.337 180.295 231.612 179.996 233.041C177.341 232.933 174.574 233.013 171.89 232.951C171.73 232.012 171.914 226.864 171.937 225.614C169.294 225.696 166.441 225.69 163.782 225.724C161.549 225.637 157.903 225.646 155.668 225.769C155.837 224.198 155.712 220.322 155.714 218.579C153.947 218.474 149.641 218.207 148.074 218.788L147.604 218.659L147.556 218.438C147.588 213.693 147.578 208.948 147.526 204.204C145.024 204.221 142.523 204.259 140.022 204.317C137.663 204.248 134.038 204.461 131.854 204.183C130.153 204.379 125.549 204.262 123.635 204.257C121.173 204.078 118.513 204.267 115.918 204.132C114.092 203.281 110.376 203.665 108.067 203.671L108.181 203.066L108.167 203.379L108.271 203.264L108.065 203.009C107.979 201.443 107.305 198.373 108.725 197.503C110.22 197.478 114.346 197.246 115.426 197.603L115.624 197.279C115.883 193.016 115.683 186.824 115.688 182.393L107.566 182.397L99.495 182.437C96.7749 182.375 94.0538 182.354 91.3331 182.374C91.3283 184.768 91.3843 187.472 91.3107 189.845C91.3074 192.094 91.2428 194.586 91.3174 196.815C90.436 197.033 84.3465 196.966 83.2218 196.96L83.2205 182.373C80.5407 182.385 77.8609 182.379 75.1811 182.356C74.9728 180.662 75.074 176.904 75.0645 175.061C74.9471 170.442 75.0848 165.215 75.1013 160.553L75.0626 153.216C75.0204 150.874 75.0832 148.333 75.0957 145.977L75.0981 139.183L75.0821 131.777L75.1341 117.23L75.0291 111.226L75.0415 109.939L75.0883 95.369L75.0702 80.7485L75.0556 73.3228V66.654C75.1609 64.5628 75.0613 61.4877 75.0589 59.3304L75.0946 44.7748C75.0396 42.3276 75.0497 39.8794 75.1246 37.4327L75.0532 37.1052C75.1 34.8374 75.0978 32.5692 75.047 30.3017L75.1222 29.8275C76.0442 30.4045 81.624 30.1762 83.1731 30.1655L83.2251 15.5937L107.558 15.5159L107.616 15.2642ZM123.782 196.996L131.925 196.976L131.921 182.412L123.842 182.379L123.782 196.996Z" fill="#9CB8F2"/>
<path d="M123.947 109.919L131.942 109.891C131.99 111.481 131.856 113.424 131.976 114.918C132 115.694 132.056 116.447 131.929 117.214C129.359 117.211 126.79 117.19 124.221 117.151L124.032 117.083C123.62 115.782 123.792 111.511 123.815 109.948L123.947 109.919Z" fill="#A4BEF2"/>
<path d="M219.453 80.747C221.812 80.7375 225.995 80.8222 228.227 80.6741L228.273 165.099L228.265 190.408C228.265 193.568 228.062 200.212 228.368 203.129L228.178 204.46L228.251 204.621C228.257 206.417 228.376 209.401 228.254 211.098C227.681 211.343 227.464 211.257 226.801 211.179L225.665 211.122C223.612 211.073 222.145 211.075 220.1 211.195C217.649 211.154 215.2 211.16 212.752 211.212C212.768 212.152 213.006 217.965 212.814 218.345L212.573 218.438C210.035 218.329 207.003 218.399 204.422 218.379L196.677 218.361C196.362 219.571 195.94 224.779 196.664 225.699L196.325 225.731C195.747 225.897 189.331 225.693 188.209 225.684C185.649 225.619 182.606 225.687 180.015 225.693C180.09 227.337 180.297 231.612 179.998 233.041C177.343 232.933 174.576 233.013 171.892 232.951C171.732 232.012 171.916 226.864 171.939 225.614C169.296 225.696 166.443 225.69 163.783 225.724C161.551 225.637 157.905 225.646 155.67 225.769C155.839 224.198 155.714 220.322 155.715 218.579C155.844 211.468 155.656 204.267 155.774 197.12C156.761 194.972 155.824 185.691 155.857 182.399C158.28 182.255 161.34 182.315 163.81 182.305L163.865 182.211C163.797 179.921 163.858 177.425 163.862 175.119L163.885 167.847C163.767 165.624 163.848 162.86 163.845 160.596L163.825 153.189C163.71 148.652 163.835 143.685 163.846 139.114L163.844 131.789L163.817 117.212L163.856 117.042C163.83 114.734 163.855 112.399 163.858 110.088L163.794 109.969C164.042 105.841 163.844 99.6649 163.851 95.3269L163.837 87.9841L163.844 80.7358L172.162 80.7295L180.188 80.7147C182.478 80.7105 186.485 80.8068 188.665 80.6828C191.263 80.7174 193.86 80.7317 196.458 80.7261C199.579 80.7261 203.921 80.6089 206.943 80.7653L214.878 80.6918L219.453 80.747Z" fill="#9EBBF6"/>
<path d="M204.427 109.729C205.414 110.281 210.449 109.905 212.329 110.075C212.541 112.654 212.394 114.701 212.478 117.2C212.646 120.226 212.746 128.857 212.492 131.804C212.151 132.384 212.511 137.567 212.384 138.962C210.268 138.962 206.448 138.858 204.465 139.023C202.725 139.198 198.293 139.093 196.356 139.095L196.384 138.889C193.791 139.123 190.92 139.021 188.294 138.985C188.237 136.867 188.193 134.748 188.161 132.63L188.195 131.801L188.177 117.208C188.129 114.962 187.983 112.108 188.119 109.909C190.649 110.062 193.83 109.952 196.41 109.924L204.365 109.885L204.427 109.729Z" fill="#97B8F5"/>
<path d="M196.41 109.924L204.365 109.885C204.751 111.297 204.224 115.48 204.302 117.195C201.646 117.235 198.989 117.223 196.333 117.157L188.177 117.209C188.129 114.962 187.983 112.108 188.119 109.909C190.649 110.062 193.83 109.952 196.41 109.924Z" fill="#A4BEF2"/>
<path d="M196.332 117.157C198.988 117.223 201.644 117.235 204.301 117.195C204.823 119.256 204.415 129.259 204.42 131.784L196.318 131.783L196.332 117.157Z" fill="#7A95D0"/>
<path d="M188.194 131.801C190.944 131.785 193.909 131.818 196.64 131.692C196.248 133.768 196.371 136.703 196.382 138.889C193.79 139.123 190.918 139.021 188.293 138.985C188.235 136.867 188.191 134.748 188.16 132.63L188.194 131.801Z" fill="#A4BEF2"/>
<path d="M188.665 80.6829C191.262 80.7174 193.859 80.7317 196.457 80.7261C199.578 80.7261 203.92 80.6089 206.942 80.7653C205.581 80.8917 205.503 80.6877 204.686 81.3606C203.947 83.0997 204.491 85.7635 204.453 87.9941C204.445 89.1588 204.44 94.6551 204.226 95.3279C201.642 95.3058 199.056 95.3204 196.472 95.3719L196.392 95.4706C195.745 95.0852 194.989 95.193 194.219 95.2229C192.233 95.2457 190.247 95.2812 188.262 95.3289C186.585 95.3274 181.55 95.4237 180.124 95.2832C179.485 94.8853 173.391 95.0327 172.345 95.1023L172.083 95.3226C169.807 95.201 166.225 95.3172 163.851 95.3269L163.836 87.9841L163.844 80.7359L172.162 80.7296L180.187 80.7147C182.477 80.7106 186.484 80.8069 188.665 80.6829Z" fill="#9CB8F2"/>
<path d="M172.162 80.7295L180.187 80.7147C180.369 81.956 179.997 86.2175 180.034 87.9308C177.529 87.863 174.856 87.9957 172.338 88.0801C172.28 90.4206 172.282 92.762 172.345 95.1022L172.083 95.3225C169.807 95.2009 166.225 95.3172 163.851 95.3269L163.836 87.984L163.844 80.7358L172.162 80.7295Z" fill="#A4BEF2"/>
<path d="M196.456 80.7261C199.577 80.7261 203.919 80.6089 206.941 80.7653C205.58 80.8917 205.502 80.6877 204.685 81.3606C203.946 83.0997 204.49 85.7635 204.452 87.9941C201.955 88.078 199.02 88.0026 196.49 87.9941L196.395 87.8645C196.216 85.988 196.233 82.5683 196.456 80.7261Z" fill="#97B8F5"/>
<path d="M196.491 87.994C199.021 88.0025 201.957 88.0779 204.454 87.994C204.446 89.1588 204.44 94.655 204.226 95.3278C201.643 95.3057 199.057 95.3203 196.472 95.3719C196.14 94.3109 196.243 89.0839 196.491 87.994Z" fill="#A4BEF2"/>
<path d="M155.857 182.399C158.28 182.255 161.34 182.315 163.81 182.305L163.832 197.013C163.84 199.372 163.797 201.939 163.86 204.283C163.847 208.913 163.751 213.749 163.833 218.362C163.828 220.531 163.93 223.632 163.783 225.724C161.551 225.636 157.905 225.645 155.67 225.769C155.839 224.197 155.714 220.322 155.715 218.579C155.844 211.468 155.656 204.266 155.774 197.12C156.761 194.972 155.824 185.691 155.857 182.399Z" fill="#5879CA"/>
<path d="M194.219 95.2229C194.99 95.193 195.745 95.0852 196.392 95.4706L196.472 95.3719C199.057 95.3204 201.643 95.3058 204.226 95.3279L204.451 95.413C204.435 100.117 204.335 105.044 204.427 109.729L204.364 109.885L196.41 109.924C193.83 109.952 190.649 110.062 188.119 109.909C188.416 105.869 188.171 99.6086 188.262 95.3289C190.248 95.2812 192.233 95.2457 194.219 95.2229Z" fill="#9CB8F2"/>
<path d="M204.226 95.3278L204.451 95.4129C204.434 100.116 204.334 105.043 204.426 109.729L204.364 109.885L196.41 109.924C196.197 106.052 196.172 99.3259 196.392 95.4705L196.472 95.3718C199.056 95.3203 201.642 95.3057 204.226 95.3278Z" fill="#7A95D0"/>
<path d="M214.876 80.6918L219.451 80.747C220.165 83.6358 219.735 91.8331 220.052 95.2952L212.544 95.293C209.993 95.3893 207.087 95.3439 204.449 95.4129L204.225 95.3278C204.438 94.655 204.444 89.1587 204.452 87.994C204.49 85.7634 203.946 83.0996 204.685 81.3605C205.502 80.6876 205.58 80.8917 206.941 80.7652L214.876 80.6918Z" fill="#9CB8F2"/>
<path d="M163.845 160.596C166.532 160.512 169.221 160.465 171.909 160.453C171.93 164.369 171.743 171.378 172.023 175.067C172.046 177.266 172.167 180.221 171.966 182.353C170.15 182.378 165.39 182.52 163.864 182.211C163.797 179.921 163.857 177.425 163.862 175.118L163.884 167.847C163.767 165.624 163.848 162.86 163.845 160.596Z" fill="#7C99DC"/>
<path d="M163.861 175.119L172.023 175.067C172.045 177.266 172.166 180.221 171.966 182.353C170.15 182.378 165.389 182.52 163.864 182.211C163.796 179.921 163.856 177.425 163.861 175.119Z" fill="#97B8F5"/>
<path d="M163.843 131.789L172.043 131.793C172.16 134.342 172.504 143.818 171.995 146.028C171.96 148.355 171.866 150.873 172.017 153.181L163.824 153.19C163.709 148.652 163.834 143.685 163.844 139.114L163.843 131.789Z" fill="#7C99DC"/>
<path d="M163.844 131.789L172.045 131.793C172.161 134.342 172.506 143.818 171.996 146.028C171.865 144.016 171.975 141.133 171.982 139.058L163.845 139.114L163.844 131.789Z" fill="#97B8F5"/>
<path d="M212.463 204.177L212.691 204.277C214.446 204.273 218.57 204.168 220.139 204.35L220.098 211.195C217.647 211.154 215.199 211.16 212.75 211.212C212.766 212.152 213.004 217.965 212.812 218.345L212.572 218.438C210.034 218.329 207.001 218.399 204.42 218.379V204.448C205.464 204.192 210.802 204.277 212.463 204.177Z" fill="#A4BEF2"/>
<path d="M212.692 204.277C214.448 204.273 218.571 204.168 220.14 204.35L220.099 211.195C217.648 211.154 215.2 211.159 212.751 211.212C212.768 212.152 213.006 217.965 212.814 218.345L212.573 218.438C212.554 215.222 212.305 207.019 212.692 204.277Z" fill="#7C99DC"/>
<path d="M188.343 204.208C188.36 204.25 188.379 204.291 188.394 204.334C189.002 205.993 187.855 217.712 189.23 218.181C190.896 218.75 194.212 217.299 196.259 218.117L196.676 218.361C196.361 219.571 195.939 224.779 196.664 225.699L196.324 225.731C195.746 225.897 189.331 225.693 188.209 225.684C185.649 225.619 182.605 225.687 180.014 225.693C179.831 224.866 180.078 219.543 180.118 218.387C182.686 218.316 185.608 218.354 188.199 218.339C188.167 214.776 187.914 207.419 188.343 204.208Z" fill="#9CBEE3"/>
<path d="M163.863 182.211C165.389 182.52 170.149 182.378 171.965 182.353C171.937 187.231 171.953 192.109 172.013 196.987L163.831 197.013L163.809 182.305L163.863 182.211Z" fill="#7C99DC"/>
<path d="M163.85 95.3269C166.225 95.3172 169.807 95.2009 172.082 95.3225C171.839 99.8836 171.944 105.311 171.989 109.928C169.812 109.924 165.876 109.818 163.857 110.088L163.793 109.969C164.041 105.841 163.843 99.665 163.85 95.3269Z" fill="#7C99DC"/>
<path d="M163.855 117.042C165.571 117.321 169.98 117.185 171.966 117.169C171.956 119.993 171.702 129.419 172.044 131.793L163.843 131.789L163.816 117.212L163.855 117.042Z" fill="#7C99DC"/>
<path d="M180.104 117.168L188.176 117.209L188.194 131.801L180.096 131.81L180.104 117.168Z" fill="#7A95D0"/>
<path d="M180.123 95.2831C181.549 95.4237 186.584 95.3274 188.261 95.3289C188.17 99.6085 188.415 105.869 188.118 109.909L180.077 109.926C180.057 105.045 180.072 100.164 180.123 95.2831Z" fill="#7A95D0"/>
<path d="M196.322 182.355C197.732 182.349 203.774 182.087 204.486 182.77C204.323 187.387 204.396 192.183 204.402 196.816L204.266 196.94L196.309 196.976L196.322 182.355Z" fill="#7C99DC"/>
<path d="M163.858 204.283L171.982 204.217L171.928 218.356L163.832 218.362C163.75 213.749 163.846 208.913 163.858 204.283Z" fill="#7C99DC"/>
<path d="M196.284 204.269C198.976 204.238 201.668 204.25 204.36 204.303L204.42 204.448V218.379L196.675 218.361L196.258 218.117C196.45 213.855 196.287 208.607 196.284 204.269Z" fill="#7C99DC"/>
<path d="M196.355 139.095C198.292 139.093 202.724 139.198 204.464 139.023C204.437 142.137 204.166 150.182 204.526 152.937C203.831 153.387 197.547 153.199 196.285 153.191C196.371 148.533 196.125 143.742 196.355 139.095Z" fill="#7C99DC"/>
<path d="M180.051 204.242L188.342 204.208C187.913 207.419 188.166 214.776 188.198 218.339C185.607 218.354 182.685 218.316 180.117 218.387C180.122 213.672 180.099 208.957 180.051 204.242Z" fill="#7A95D0"/>
<path d="M212.546 95.2931L220.054 95.2953C220.373 99.0026 220.129 105.947 220.132 109.896L212.535 109.914L212.546 95.2931Z" fill="#7C99DC"/>
<path d="M212.477 117.2L220.12 117.201L220.098 131.785C217.606 131.79 214.968 131.754 212.49 131.804C212.744 128.857 212.644 120.226 212.477 117.2Z" fill="#7A95D0"/>
<path d="M163.824 153.19L172.017 153.181C171.901 155.594 171.918 158.037 171.909 160.453C169.22 160.465 166.532 160.512 163.844 160.596L163.824 153.19Z" fill="#97B8F5"/>
<path d="M204.401 196.816C205.938 197.481 210.526 197.069 212.347 196.947C212.555 199.287 212.479 201.816 212.463 204.177C210.802 204.277 205.464 204.192 204.42 204.448L204.36 204.303C204.398 202.822 204.696 197.995 204.266 196.941L204.401 196.816Z" fill="#97B8F5"/>
<path d="M228.178 204.46L228.251 204.621C228.257 206.417 228.376 209.401 228.254 211.098C227.68 211.343 227.464 211.257 226.801 211.179L225.665 211.122C223.611 211.073 222.145 211.075 220.1 211.194L220.14 204.35C220.641 204.448 227.67 204.533 228.178 204.46Z" fill="#A4BEF2"/>
<path d="M196.254 160.5L204.463 160.493C204.425 165.353 204.422 170.214 204.449 175.074L196.32 175.089L196.254 160.5Z" fill="#7A95D0"/>
<path d="M180.012 160.443L188.276 160.447C188.218 165.318 188.187 170.189 188.185 175.059L180.121 175.094C179.788 170.499 180.34 165.146 180.012 160.443Z" fill="#7C99DC"/>
<path d="M180.135 182.342L188.153 182.37L188.178 196.973C185.807 196.979 182.399 196.897 180.109 197.008C179.873 192.877 180.078 186.486 180.135 182.342Z" fill="#7C99DC"/>
<path d="M180.07 138.962C182.198 139.201 185.976 139.087 188.237 139.076L188.192 153.209C185.659 153.221 182.711 153.175 180.208 153.25C179.899 151.401 180.072 141.332 180.07 138.962Z" fill="#7A95D0"/>
<path d="M212.508 160.49L220.132 160.47C220.048 165.292 220.099 170.235 220.089 175.067L212.535 175.074L212.508 160.49Z" fill="#7A95D0"/>
<path d="M212.53 182.27C214.781 182.468 217.824 182.367 220.146 182.346L220.119 196.954C218.111 196.964 214.318 197.076 212.465 196.84C212.798 193.089 212.543 186.226 212.53 182.27Z" fill="#7C99DC"/>
<path d="M212.537 139.142C215.083 139.089 217.632 139.067 220.18 139.076C220.115 143.78 220.096 148.484 220.123 153.187C217.748 153.198 214.883 153.141 212.548 153.238L212.537 139.142Z" fill="#7C99DC"/>
<path d="M180.121 175.094L188.185 175.059C188.173 177.292 188.073 180.183 188.152 182.37L180.134 182.342C180.109 179.926 180.105 177.51 180.121 175.094Z" fill="#97B8F5"/>
<path d="M107.615 15.2642C108.591 15.1211 109.271 15.2945 110.205 15.2863C117.535 15.2219 124.993 15.4934 132.305 15.3253C139.223 15.2504 148.818 15.1107 155.725 15.3632L155.686 15.5323C155.978 19.1104 155.807 24.6654 155.803 28.3834L155.758 51.4993C157.778 52.5451 163.129 51.4857 163.742 51.7325C165.712 51.9764 168.162 51.9822 170.188 52.034L169.956 52.0819C167.56 52.5643 165.696 52.0065 164.697 52.4369C163.808 53.793 163.238 57.4376 164.737 58.6468C167.023 59.3073 170.206 57.9397 172.268 59.2932C176.235 59.2997 184.002 59.5079 187.701 59.2202C188.303 59.7413 188.184 59.8819 188.195 60.7132C188.248 65.0275 188.199 69.3482 188.198 73.6632C186.563 73.2907 174.396 73.43 171.995 73.4336C172.239 75.8013 171.823 78.6843 172.16 80.7295L163.842 80.7359C161.48 80.6999 158.029 80.6128 155.78 80.8927L155.707 81.1064L155.729 86.8475L155.659 88.3464C154.53 89.7818 156.613 94.7815 153.968 95.0273C152.74 95.1414 149.029 94.2278 147.578 95.1837C146.368 95.3962 141.842 95.3383 140.374 95.3456C140.292 95.2112 139.965 82.2751 139.879 80.8497C137.23 80.8856 134.581 80.8652 131.934 80.7884C129.734 80.6369 126.108 80.7619 123.806 80.7782C121.295 80.6466 118.349 80.8185 115.699 80.7242L107.563 80.7453C106.773 80.5311 100.747 80.6335 99.4587 80.5759C98.4438 80.9073 92.8346 80.7979 91.3658 80.8003C90.3028 80.722 88.5239 80.7699 87.4063 80.7687C86.2164 80.6763 84.4684 80.7363 83.2355 80.7451L75.0701 80.7485L75.0555 73.3228V66.654C75.1608 64.5628 75.0612 61.4877 75.0588 59.3304L75.0945 44.7748C75.0396 42.3276 75.0496 39.8794 75.1245 37.4327L75.0531 37.1052C75.0999 34.8374 75.0977 32.5692 75.0469 30.3017L75.1221 29.8275C76.0441 30.4045 81.6239 30.1762 83.173 30.1655L83.225 15.5937L107.558 15.5159L107.615 15.2642Z" fill="#9EBBF6"/>
<path d="M155.758 51.4993C157.778 52.5451 163.13 51.4857 163.743 51.7325C165.713 51.9764 168.163 51.9822 170.189 52.034L169.956 52.0819C167.561 52.5643 165.696 52.0065 164.697 52.4369C163.809 53.793 163.239 57.4376 164.738 58.6468C167.024 59.3073 170.206 57.9397 172.268 59.2932C176.235 59.2997 184.002 59.5079 187.701 59.2202C188.304 59.7413 188.185 59.8819 188.195 60.7132C188.249 65.0275 188.2 69.3482 188.198 73.6632C186.564 73.2907 174.396 73.43 171.996 73.4336C172.239 75.8013 171.823 78.6843 172.161 80.7295L163.843 80.7359C161.48 80.6999 158.03 80.6128 155.781 80.8927L155.708 81.1064C154.217 80.4516 149.782 80.9593 147.624 80.7833C147.646 76.079 147.62 71.3748 147.545 66.6708C147.506 65.4583 147.281 60.2804 147.503 59.3557C147.7 57.6409 147.602 53.8621 147.616 51.9948C148.904 52.0654 154.665 52.212 155.679 51.9445L155.758 51.4993Z" fill="#5879CA"/>
<path d="M187.701 59.2202C188.303 59.7413 188.185 59.8819 188.195 60.7132C188.249 65.0275 188.199 69.3482 188.198 73.6632C186.564 73.2907 174.396 73.43 171.995 73.4336L171.928 59.3411L172.268 59.2932C176.235 59.2997 184.002 59.5079 187.701 59.2202Z" fill="#97B8F5"/>
<path d="M163.838 59.3546C166.534 59.3135 169.231 59.3089 171.928 59.341L171.995 73.4336C169.288 73.4127 166.581 73.4251 163.875 73.471C163.836 68.7656 163.824 64.0601 163.838 59.3546Z" fill="#7C99DC"/>
<path d="M147.545 66.6708C149.603 66.6263 151.53 66.6477 153.585 66.6793C154.873 66.699 155.015 66.7082 155.731 66.0524L155.708 71.8925C155.715 74.204 155.577 78.7548 155.78 80.8927L155.708 81.1065C154.217 80.4516 149.782 80.9594 147.624 80.7833C147.646 76.0791 147.62 71.3748 147.545 66.6708Z" fill="#97B8F5"/>
<path d="M147.503 59.3556C148.622 59.3391 155.066 59.1808 155.726 59.3547L155.731 66.0524C155.015 66.7082 154.873 66.699 153.585 66.6793C151.53 66.6476 149.603 66.6262 147.545 66.6707C147.506 65.4583 147.281 60.2804 147.503 59.3556Z" fill="#A4BEF2"/>
<path d="M147.615 51.9949C148.903 52.0654 154.664 52.212 155.678 51.9445C155.75 54.4141 155.766 56.8846 155.726 59.3547C155.066 59.1808 148.621 59.3391 147.502 59.3557C147.699 57.6409 147.602 53.8621 147.615 51.9949Z" fill="#97B8F5"/>
<path d="M107.616 15.2642C108.592 15.1211 109.272 15.2945 110.205 15.2863C117.536 15.2219 124.993 15.4934 132.306 15.3253C139.223 15.2504 148.818 15.1107 155.725 15.3632L155.686 15.5323L148.158 15.514L140.229 15.5189C139.929 17.3205 140.33 21.8929 139.85 22.8294C137.354 22.9153 134.462 22.856 131.936 22.8592C131.929 25.1381 131.845 27.9209 131.921 30.1643L131.935 37.1638L131.706 37.4159C129.277 37.5081 126.426 37.4356 123.966 37.4269L123.84 37.2878C122.806 37.5246 116.73 37.5657 115.641 37.273L115.664 29.9296C114.899 30.3734 108.438 30.3654 107.549 30.1935C107.58 25.301 107.583 20.4084 107.558 15.5159L107.616 15.2642Z" fill="#97B8F5"/>
<path d="M107.616 15.2642C108.592 15.1211 109.272 15.2945 110.205 15.2863C117.536 15.2219 124.993 15.4934 132.306 15.3253C139.223 15.2504 148.818 15.1107 155.725 15.3632L155.686 15.5323L148.158 15.514L140.229 15.5189L115.679 15.571L115.664 29.9296C114.899 30.3734 108.438 30.3654 107.549 30.1935C107.58 25.301 107.583 20.4084 107.558 15.5159L107.616 15.2642Z" fill="#5879CA"/>
<path d="M123.797 22.8324L131.937 22.8593C131.93 25.1381 131.846 27.9209 131.922 30.1643L131.936 37.1638L131.707 37.416C129.278 37.5081 126.427 37.4357 123.967 37.4269L123.841 37.2878L123.797 30.3071L123.797 22.8324Z" fill="#7C99DC"/>
<path d="M123.797 30.307C126.385 30.0769 129.298 30.1523 131.922 30.1642L131.936 37.1637L131.707 37.4159C129.278 37.508 126.427 37.4355 123.967 37.4268L123.841 37.2877L123.797 30.307Z" fill="#7A95D0"/>
<path d="M83.2258 15.5936L107.559 15.5158C107.583 20.4083 107.58 25.3009 107.549 30.1934C105.298 30.057 101.574 30.1615 99.2338 30.1618L83.1738 30.1654L83.2258 15.5936Z" fill="#97B8F5"/>
<path d="M75.1221 29.8275C76.0441 30.4045 81.6239 30.1762 83.173 30.1655L99.233 30.1619C101.573 30.1616 105.297 30.0571 107.549 30.1935C108.438 30.3654 114.899 30.3734 115.663 29.9296L115.641 37.273L115.511 37.405C105.248 37.6766 93.5553 37.4483 83.1593 37.44L75.1245 37.4327L75.0531 37.1052C75.0999 34.8374 75.0977 32.5692 75.0469 30.3017L75.1221 29.8275Z" fill="#5879CA"/>
<path d="M83.2467 66.5827C85.9051 66.4932 88.6801 66.5511 91.3488 66.5722C94.124 66.6133 96.6834 66.6437 99.4652 66.553L99.4598 80.5758C98.445 80.9072 92.8357 80.7978 91.3669 80.8002C90.3039 80.7219 88.5251 80.7699 87.4074 80.7686C86.2176 80.6762 84.4695 80.7363 83.2367 80.745L75.0713 80.7485L75.0566 73.3227C77.7724 73.2989 80.4884 73.2918 83.2045 73.3008L83.2467 66.5827Z" fill="#9EBBF6"/>
<path d="M91.3477 66.5722C94.1229 66.6133 96.6823 66.6437 99.4641 66.553L99.4587 80.5758C98.4439 80.9072 92.8346 80.7978 91.3658 80.8002L91.3477 66.5722Z" fill="#7A95D0"/>
<path d="M75.0566 73.3228C77.7724 73.2989 80.4884 73.2919 83.2045 73.3009C83.2104 75.6197 83.1401 78.4664 83.2367 80.7451L75.0713 80.7485L75.0566 73.3228Z" fill="#7C99DC"/>
<path d="M99.4644 66.553C100.661 66.5318 109.253 66.1868 109.635 66.5938C111.655 66.6359 113.675 66.6573 115.695 66.658C115.663 71.3467 115.665 76.0354 115.699 80.7241L107.564 80.7452C106.773 80.531 100.747 80.6334 99.459 80.5758L99.4644 66.553Z" fill="#A4BEF2"/>
<path d="M109.636 66.5939C111.656 66.636 113.676 66.6574 115.696 66.6581C115.664 71.3468 115.665 76.0355 115.7 80.7242L107.565 80.7453C107.497 77.4568 107.36 69.9506 107.693 66.9203C108.321 66.5382 108.776 66.6443 109.636 66.5939Z" fill="#7A95D0"/>
<path d="M83.1825 59.3128L91.1753 59.3152C91.4911 61.6924 91.0888 64.2597 91.3488 66.5722C88.6801 66.5511 85.9051 66.4932 83.2467 66.5827L83.2045 73.3008C80.4884 73.2918 77.7724 73.2989 75.0566 73.3227V66.6539C75.1619 64.5627 75.0623 61.4877 75.0599 59.3303L83.1825 59.3128Z" fill="#A4BEF2"/>
<path d="M75.0566 66.6539C77.3982 66.6422 81.009 66.729 83.2467 66.5826L83.2045 73.3008C80.4884 73.2918 77.7724 73.2988 75.0566 73.3227V66.6539Z" fill="#7A95D0"/>
<path d="M107.557 44.7719L115.674 44.7476L115.675 50.8235L115.698 59.3099L107.565 59.3355L107.557 44.7719Z" fill="#7A95D0"/>
<path d="M123.818 44.8535C126.025 44.6408 129.595 44.7453 131.909 44.7538L131.969 59.3349L123.781 59.3473C123.786 57.031 123.721 54.2815 123.804 51.996L123.818 44.8535Z" fill="#7C99DC"/>
<path d="M75.0943 44.7748C77.5455 44.7592 80.8394 44.6549 83.2232 44.8098L83.2078 52.0522L83.1812 59.3128L75.0586 59.3303L75.0943 44.7748Z" fill="#7A95D0"/>
<path d="M115.695 66.6581C117.644 66.2561 121.723 66.3643 123.81 66.4939L123.806 80.7781C121.295 80.6466 118.349 80.8185 115.699 80.7241C115.664 76.0354 115.663 71.3467 115.695 66.6581Z" fill="#A4BEF2"/>
<path d="M123.81 66.494C125.993 66.7493 129.622 66.6454 131.927 66.6384C131.883 71.355 131.886 76.0719 131.935 80.7884C129.735 80.6369 126.109 80.7619 123.807 80.7781L123.81 66.494Z" fill="#7A95D0"/>
<path d="M140.023 44.7495L147.615 44.7113L147.617 51.9948C147.603 53.8621 147.701 57.6408 147.504 59.3556C145.194 59.272 142.362 59.3345 140.01 59.3272L140.023 44.7495Z" fill="#7C99DC"/>
<path d="M140.051 66.6135L147.546 66.6707C147.62 71.3747 147.647 76.0789 147.625 80.7832C145.866 80.6327 141.973 80.7321 140.058 80.7287L140.051 66.6135Z" fill="#7A95D0"/>
<path d="M75.1254 37.4327L83.1602 37.44C83.6885 38.5656 83.3295 43.0172 83.4177 44.7704L83.2243 44.8098C80.8405 44.6549 77.5465 44.7592 75.0954 44.7748C75.0405 42.3276 75.0505 39.8794 75.1254 37.4327Z" fill="#A4BEF2"/>
<path d="M139.852 22.8293L140.097 22.8765C140.078 24.6733 140.158 28.4764 139.994 30.1207L131.923 30.1642C131.846 27.9208 131.93 25.138 131.937 22.8592C134.463 22.856 137.355 22.9152 139.852 22.8293Z" fill="#9CB8F2"/>
<path d="M115.642 37.2729C116.731 37.5657 122.807 37.5246 123.841 37.2878L123.967 37.4269C123.628 39.1142 124.137 44.0796 123.472 44.7313L115.675 44.7476C115.696 43.2964 115.905 38.5119 115.512 37.405L115.642 37.2729Z" fill="#9CB8F2"/>
<path d="M91.3762 46.3135C91.6652 48.084 91.6051 50.3653 91.617 52.1942C93.6026 52.164 97.6056 52.1852 99.4515 51.9989L99.49 59.3361C97.0247 59.3378 93.7795 59.4244 91.3754 59.2885C91.3051 56.9845 91.3608 54.3787 91.3578 52.0534C91.2942 50.1606 91.3484 48.2121 91.3762 46.3135Z" fill="#7C99DC"/>
<path d="M83.2082 52.0522L91.3573 52.0534C91.3603 54.3788 91.3046 56.9845 91.3749 59.2885L91.1744 59.3153L83.1816 59.3128L83.2082 52.0522Z" fill="#97B8F5"/>
<path d="M83.4178 44.7704C85.9945 44.7444 88.8077 44.7667 91.3636 44.6498L91.3766 46.3135C91.3487 48.2121 91.2946 50.1606 91.3582 52.0534L83.209 52.0522L83.2244 44.8098L83.4178 44.7704Z" fill="#A4BEF2"/>
<path d="M131.922 30.1643L139.993 30.1208L140.051 30.3445L140.058 37.4206C138.477 37.425 133.051 37.6066 131.935 37.1638L131.922 30.1643Z" fill="#A4BEF2"/>
<path d="M123.967 37.4268C126.427 37.4356 129.279 37.5081 131.707 37.4159C132.182 38.9721 131.543 42.8304 131.91 44.7539C129.595 44.7453 126.026 44.6408 123.818 44.8535L123.473 44.7312C124.137 44.0796 123.628 39.1142 123.967 37.4268Z" fill="#A4BEF2"/>
<path d="M115.676 44.7476L123.473 44.7313L123.819 44.8536L123.805 51.996C121.695 52.0048 118.454 52.2703 116.387 51.8538C115.91 51.7577 115.857 51.278 115.677 50.8235L115.676 44.7476Z" fill="#A4BEF2"/>
<path d="M91.3633 44.6498C93.9367 44.82 96.8635 44.7359 99.4705 44.7132L99.4516 51.9989C97.6056 52.1852 93.6026 52.164 91.6171 52.1942C91.6051 50.3654 91.6652 48.084 91.3763 46.3135L91.3633 44.6498Z" fill="#7A95D0"/>
<path d="M140.23 15.5189L148.159 15.5139C147.542 18.4333 148.058 20.8617 147.645 22.8289L140.097 22.8765L139.852 22.8293C140.331 21.8928 139.93 17.3205 140.23 15.5189Z" fill="#9CB8F2"/>
<path d="M140.096 22.8765L147.644 22.8289C147.558 25.2915 147.544 27.7557 147.6 30.219C145.615 30.315 141.927 29.8688 140.05 30.3445L139.992 30.1208C140.157 28.4765 140.077 24.6734 140.096 22.8765Z" fill="#7C99DC"/>
<path d="M140.051 30.3444C141.927 29.8688 145.616 30.315 147.601 30.219L147.595 37.4431C145.741 37.4439 141.739 37.5562 140.058 37.4205L140.051 30.3444Z" fill="#7A95D0"/>
<path d="M99.459 80.5759C100.747 80.6335 106.773 80.5311 107.564 80.7453L115.699 80.7242C118.349 80.8185 121.296 80.6466 123.806 80.7782C126.109 80.7619 129.734 80.6369 131.935 80.7884C134.582 80.8652 137.231 80.8857 139.879 80.8497C139.965 82.2751 140.293 95.2112 140.374 95.3456L140.101 95.3957C139.396 95.0261 133.246 95.2737 131.986 95.2936C131.928 100.078 131.781 105.129 131.941 109.891L123.946 109.919L123.814 109.948C123.791 111.511 123.619 115.782 124.031 117.083C122.594 117.161 116.446 117.18 115.654 117.34L115.71 131.305L115.693 131.765C112.945 131.8 110.197 131.819 107.449 131.821C107.467 132.915 107.5 138.393 107.709 139.12L107.633 139.226C107.556 141.467 107.539 143.71 107.581 145.952C106.907 146.166 100.191 146.281 99.4985 146.225L99.4398 145.855L99.4765 139.068C97.1014 139.168 93.735 139.097 91.2952 139.108C91.059 138.254 91.3501 132.922 91.3755 131.732C88.7407 131.664 85.9981 131.868 83.2088 131.777L75.0823 131.777L75.1343 117.23L75.0293 111.226L75.0417 109.939L75.0885 95.369L75.0704 80.7485L83.2358 80.7451C84.4687 80.7364 86.2167 80.6763 87.4066 80.7687C88.5242 80.7699 90.3031 80.722 91.3661 80.8003C92.8349 80.7979 98.4441 80.9073 99.459 80.5759Z" fill="#9CB8F2"/>
<path d="M99.4587 80.5759C100.747 80.6335 106.773 80.5311 107.564 80.7453L115.699 80.7242C118.349 80.8185 121.295 80.6466 123.806 80.7782C126.109 80.7619 129.734 80.6369 131.935 80.7884C134.582 80.8652 137.23 80.8857 139.879 80.8497C139.965 82.2751 140.293 95.2112 140.374 95.3456L140.1 95.3957C139.396 95.0261 133.246 95.2737 131.985 95.2936L123.544 95.3366C123.395 99.8179 123.526 105.13 123.523 109.668C122.454 109.523 117.829 109.547 116.436 109.514C115.451 108.228 115.971 97.5166 116.281 95.5728L115.997 95.3345L107.586 95.3126C105.596 95.4791 101.683 95.3921 99.5258 95.4281L99.0461 95.3016C99.0681 93.7877 99.2561 89.9272 98.9063 88.5747C97.4618 88.1504 85.7279 87.9778 83.5053 87.9377C83.3971 85.8832 83.5578 83.159 83.6165 81.0576L87.4064 80.7687C88.524 80.7699 90.3028 80.722 91.3658 80.8003C92.8346 80.7979 98.4439 80.9073 99.4587 80.5759Z" fill="#A4BEF2"/>
<path d="M75.0885 95.3689C77.8105 95.3373 80.5328 95.3181 83.255 95.3118C83.2415 98.0889 82.9926 107.594 83.3473 109.92C83.1904 112.473 83.176 114.669 83.1909 117.212L75.1343 117.23L75.0293 111.226L75.0417 109.939L75.0885 95.3689Z" fill="#7C99DC"/>
<path d="M75.0417 109.939C77.7919 109.932 80.6023 109.9 83.3473 109.92C83.1904 112.473 83.176 114.669 83.1909 117.212L75.1343 117.23L75.0293 111.226L75.0417 109.939Z" fill="#A4BEF2"/>
<path d="M107.546 117.189L115.523 117.242L115.654 117.34L115.71 131.305L115.693 131.765C112.945 131.8 110.197 131.818 107.449 131.821C107.811 129.171 107.553 120.242 107.546 117.189Z" fill="#7C99DC"/>
<path d="M91.3359 117.177L99.487 117.187C99.4802 121.908 99.3482 127.106 99.4905 131.788C97.4495 131.788 93.2487 131.9 91.3762 131.732L91.3359 117.177Z" fill="#7C99DC"/>
<path d="M75.134 117.23L83.1906 117.212C83.2601 122.072 83.1352 126.946 83.2085 131.777L75.082 131.777L75.134 117.23Z" fill="#7A95D0"/>
<path d="M123.545 95.3366L131.986 95.2936C131.929 100.078 131.781 105.129 131.942 109.891L123.947 109.919C123.359 107.747 124.282 98.7538 123.545 95.3366Z" fill="#7A95D0"/>
<path d="M107.588 95.3125L115.999 95.3344C115.394 97.0219 115.678 107.436 115.706 109.901L107.574 109.926C107.573 105.278 107.439 99.9059 107.588 95.3125Z" fill="#7A95D0"/>
<path d="M99.0464 95.3016L99.5261 95.428L99.4549 102.656C98.0776 102.622 92.2865 102.365 91.3157 102.833C91.263 100.407 91.3179 97.7646 91.3214 95.323L99.0464 95.3016Z" fill="#7C99DC"/>
<path d="M91.3164 102.833C92.2871 102.365 98.0782 102.622 99.4556 102.656L99.4694 109.9L91.3229 109.95L91.3164 102.833Z" fill="#7A95D0"/>
<path d="M115.817 109.942C118.482 109.9 121.148 109.902 123.814 109.948C123.791 111.511 123.619 115.782 124.031 117.083C122.594 117.161 116.446 117.18 115.654 117.34L115.523 117.242C115.77 116.531 115.797 111.007 115.817 109.942Z" fill="#97B8F5"/>
<path d="M99.4782 139.068C100.912 139.003 106.597 138.77 107.635 139.226C107.558 141.467 107.54 143.71 107.583 145.952C106.909 146.166 100.193 146.281 99.5001 146.225L99.4414 145.855L99.4782 139.068Z" fill="#A4BEF2"/>
<path d="M155.723 139.115C158.373 139.099 161.211 139.037 163.846 139.114C163.835 143.685 163.71 148.652 163.825 153.189L163.845 160.596C163.848 162.86 163.767 165.624 163.885 167.847C162.324 167.807 156.671 168.081 155.734 167.596L155.723 139.115Z" fill="#5879CA"/>
<path d="M155.733 167.596C156.671 168.081 162.323 167.807 163.884 167.847L163.862 175.118C163.857 177.425 163.797 179.921 163.864 182.211L163.81 182.305C161.339 182.315 158.28 182.255 155.856 182.399C155.824 185.691 156.761 194.972 155.774 197.12C155.337 188.233 155.709 176.731 155.733 167.596Z" fill="#617FC5"/>
<path d="M131.986 95.2935C133.247 95.2736 139.397 95.0261 140.101 95.3957C139.855 100.243 140.152 105.227 140.03 110.066C137.702 110.036 134.633 109.973 132.347 110.056C132.331 111.514 132.413 113.584 131.975 114.918C131.856 113.424 131.989 111.481 131.942 109.891C131.781 105.129 131.929 100.078 131.986 95.2935Z" fill="#9EBBF6"/>
<path d="M83.2307 161.222C83.3167 160.941 83.4615 160.864 83.6982 160.63C85.3502 160.364 89.5217 160.419 91.3645 160.431L91.3147 175.093C89.6589 175.119 84.2999 175.553 83.2437 174.851C83.1068 170.432 83.2169 165.666 83.2307 161.222Z" fill="#A4BEF2"/>
<path d="M155.781 80.8927C158.03 80.6128 161.481 80.6998 163.844 80.7358L163.836 87.9841L163.851 95.3269C161.778 95.4395 157.175 95.0472 155.729 95.6282C155.742 93.2221 155.795 90.7437 155.66 88.3464L155.731 86.8475L155.709 81.1064L155.781 80.8927Z" fill="#617FC5"/>
<path d="M155.781 80.8927C158.031 80.6128 161.481 80.6998 163.844 80.7358L163.836 87.9841C161.957 87.9488 157.939 88.3707 156.151 87.7808C155.846 87.6801 155.83 87.2244 155.731 86.8475L155.709 81.1064L155.781 80.8927Z" fill="#5E78BC"/>
<path d="M75.1013 160.553C77.7963 160.506 80.4915 160.482 83.1867 160.481L83.2305 161.222C83.2167 165.666 83.1066 170.432 83.2435 174.851C82.4159 175.207 76.3956 175.064 75.0645 175.061C74.9471 170.442 75.0848 165.215 75.1013 160.553Z" fill="#7C99DC"/>
<path d="M91.3642 160.431C93.4242 160.646 97.3003 160.523 99.4982 160.509C99.4479 165.36 99.4379 170.211 99.4685 175.062L91.3145 175.093L91.3642 160.431Z" fill="#7A95D0"/>
<path d="M124.031 117.083L124.22 117.151C123.46 118.307 123.824 129.612 123.842 131.749C121.978 131.763 116.836 132.153 115.71 131.305L115.654 117.34C116.446 117.18 122.594 117.161 124.031 117.083Z" fill="#9EBBF6"/>
<path d="M163.849 95.3269C163.842 99.6649 164.04 105.841 163.792 109.969C161.676 109.906 157.717 109.87 155.717 110.108L155.727 95.6281C157.173 95.0472 161.777 95.4394 163.849 95.3269Z" fill="#5879CA"/>
<path d="M124.221 117.151C126.79 117.19 129.359 117.211 131.929 117.214C131.869 122.071 131.859 126.93 131.898 131.787C129.213 131.809 126.528 131.796 123.843 131.749C123.825 129.612 123.461 118.307 124.221 117.151Z" fill="#7A95D0"/>
<path d="M155.886 117.293C158.161 117.119 161.463 117.209 163.816 117.212L163.842 131.789C161.913 131.758 157.444 132.232 156.028 131.497L155.725 130.461L155.771 120.622C155.879 119.767 155.863 118.204 155.886 117.293Z" fill="#5879CA"/>
<path d="M107.709 139.12L115.646 139.09C115.707 143.78 115.575 148.507 115.649 153.166L107.591 153.177L107.581 145.952C107.539 143.71 107.556 141.467 107.633 139.226L107.709 139.12Z" fill="#7C99DC"/>
<path d="M91.2969 139.108C93.7367 139.097 97.1031 139.168 99.4782 139.068L99.4415 145.855L99.5002 146.225C99.3289 147.992 99.439 151.29 99.4371 153.17L91.3156 153.189C91.4359 149.725 91.322 145.943 91.3835 142.409C91.3734 141.309 91.3445 140.208 91.2969 139.108Z" fill="#7C99DC"/>
<path d="M91.2969 139.108C93.7367 139.097 97.1031 139.168 99.4782 139.068L99.4415 145.855C97.0742 145.982 93.9572 145.904 91.5352 145.905C91.5585 144.638 91.4863 143.659 91.3835 142.409C91.3734 141.309 91.3445 140.208 91.2969 139.108Z" fill="#7A95D0"/>
<path d="M124.023 139.112L131.945 139.109C131.744 143.612 131.89 148.633 131.922 153.174L123.83 153.189C123.814 150.278 123.605 141.491 124.023 139.112Z" fill="#7C99DC"/>
<path d="M140.375 95.3456C141.843 95.3383 146.369 95.3962 147.579 95.1837L147.597 109.899C145.843 109.9 141.561 109.813 140.03 110.066C140.152 105.227 139.855 100.243 140.101 95.3957L140.375 95.3456Z" fill="#7C99DC"/>
<path d="M75.0645 153.216L83.3045 153.186C83.6146 154.473 83.3968 159.096 83.1885 160.481C80.4933 160.482 77.7981 160.505 75.1031 160.553L75.0645 153.216Z" fill="#9EBBF6"/>
<path d="M140.026 196.984C142.488 196.975 145.066 196.929 147.517 196.97C147.522 198.932 147.394 202.333 147.528 204.204C145.026 204.221 142.525 204.259 140.023 204.317C137.665 204.248 134.04 204.461 131.855 204.183C133.865 203.155 137.557 204.695 139.151 203.616L139.525 203.825C139.822 202.712 139.768 198.636 140.026 196.984Z" fill="#97B8F5"/>
<path d="M107.449 131.821C110.197 131.819 112.945 131.8 115.693 131.765C116.068 134.259 115.467 136.791 115.645 139.09L107.708 139.12C107.5 138.393 107.467 132.915 107.449 131.821Z" fill="#A4BEF2"/>
<path d="M155.718 110.108C157.719 109.87 161.677 109.906 163.793 109.969L163.858 110.088C163.854 112.399 163.83 114.734 163.855 117.042L163.816 117.212C161.463 117.209 158.162 117.119 155.886 117.293C155.864 118.204 155.879 119.767 155.772 120.622C155.564 117.697 155.721 113.154 155.718 110.108Z" fill="#617FC5"/>
<path d="M75.0962 145.977C77.8014 145.912 80.4937 145.878 83.1981 146.012C83.2008 147.867 83.0915 151.468 83.3033 153.186L75.0632 153.216C75.021 150.874 75.0838 148.333 75.0962 145.977Z" fill="#7C99DC"/>
<path d="M123.841 131.749C126.526 131.796 129.212 131.809 131.897 131.787C132.18 133.387 131.958 137.241 131.944 139.109L124.022 139.111C123.678 137.691 123.827 133.4 123.841 131.749Z" fill="#A4BEF2"/>
<path d="M155.726 130.461L156.029 131.497C157.446 132.232 161.915 131.758 163.844 131.789L163.846 139.114C161.211 139.037 158.373 139.099 155.723 139.115L155.726 130.461Z" fill="#617FC5"/>
<path d="M139.969 182.407L147.635 182.374C147.617 184.725 147.54 187.339 147.589 189.67L140.006 189.653C139.974 187.238 139.962 184.822 139.969 182.407Z" fill="#7C99DC"/>
<path d="M75.0981 139.183C77.8006 139.1 80.5045 139.062 83.2086 139.068L83.1975 146.011C80.4931 145.878 77.8009 145.912 75.0957 145.977L75.0981 139.183Z" fill="#7C99DC"/>
<path d="M140.004 189.653L147.587 189.67C147.584 191.498 147.703 195.298 147.516 196.97C145.064 196.929 142.487 196.975 140.024 196.984C140.107 194.597 140.031 192.053 140.004 189.653Z" fill="#7C99DC"/>
<path d="M123.844 182.379L131.922 182.412L131.927 196.976L123.783 196.995L123.844 182.379Z" fill="#7A95D0" fill-opacity="0.988235"/>
<path d="M107.548 160.526L115.833 160.498C115.727 162.924 115.682 165.352 115.698 167.78C115.623 170.063 115.692 172.747 115.693 175.057L107.585 175.065L107.559 167.733C107.551 165.352 107.508 162.901 107.548 160.526Z" fill="#7C99DC"/>
<path d="M107.559 167.733C109.243 167.758 114.229 167.93 115.697 167.78C115.622 170.063 115.691 172.747 115.693 175.057L107.585 175.064L107.559 167.733Z" fill="#7A95D0"/>
<path d="M123.764 160.531L131.912 160.513C131.879 165.371 131.885 170.229 131.929 175.087L123.794 175.101L123.764 160.531Z" fill="#7C99DC"/>
<path d="M140.02 160.535L147.601 160.496C147.514 165.291 147.588 170.259 147.589 175.067L140.066 175.067L140.02 160.535Z" fill="#7A95D0"/>
<path d="M140.049 117.179C142.483 117.235 145.133 117.189 147.585 117.191C147.491 121.955 147.573 127.024 147.571 131.808L140.067 131.803C140.185 127.137 140.059 121.886 140.049 117.179Z" fill="#7A95D0"/>
<path d="M140.064 139.085L147.646 139.071C147.504 143.644 147.591 148.565 147.578 153.165L140.053 153.168C140.121 148.534 140.061 143.73 140.064 139.085Z" fill="#7C99DC"/>
<path d="M26.3214 73.2649L35.0636 73.2824C35.0403 76.2451 34.8791 80.3789 35.0717 83.2496L35.0709 124.467C32.354 124.493 29.6372 124.504 26.9204 124.5C26.8703 119.688 26.9534 114.707 26.972 109.883L18.8602 109.876C18.7871 114.706 18.8331 119.672 18.822 124.511L26.9204 124.5L26.9896 131.727L35.0671 131.799L35.0793 139.093C29.7032 139.12 24.3269 139.121 18.9508 139.096L18.7655 139.029C19.0025 138.391 18.8104 132.974 18.8036 131.916C16.1945 131.761 13.3297 131.8 10.6964 131.789L2.60025 131.772L2.55535 145.904L10.7124 145.894C12.3411 145.981 18.0962 145.787 18.8507 145.907L18.8245 167.912C16.1171 167.875 13.4406 167.819 10.7327 167.917C10.7778 170.157 11.0062 172.977 10.6464 175.118L10.5019 175.159C8.12729 175.155 5.73131 175.143 3.36212 175.02C-2.50093 174.717 -8.35991 174.983 -14.2384 175.056C-23.4557 174.758 -34.8847 174.96 -44.1757 175.038C-45.3145 175.047 -53.2888 175.386 -53.7348 175.26C-53.4597 167.614 -53.7546 158.22 -53.7435 150.428L-53.7503 96.1894C-53.7553 93.3519 -54.0862 74.7494 -53.4988 73.224C-45.8093 73.4565 -37.538 73.3098 -29.8252 73.294L2.04888 73.322L18.0277 73.3186C20.2741 73.3171 24.1886 73.4134 26.3214 73.2649ZM-45.5748 167.77L-37.4035 167.795L-37.4214 153.266C-35.2965 153.206 -31.284 153.036 -29.2844 153.132C-29.6225 156.822 -29.398 163.884 -29.4129 167.826C-26.6855 167.871 -23.9097 167.859 -21.1777 167.871C-21.2337 162.97 -21.2274 158.068 -21.1593 153.167C-23.898 153.191 -26.5429 153.217 -29.2844 153.132C-29.0839 152.482 -29.2451 146.994 -29.2405 145.92L-21.1871 145.914L-21.2128 139.135C-23.918 139.043 -26.5829 139.086 -29.2873 139.114L-29.3533 139.251C-30.2126 138.948 -36.3503 139.071 -37.4276 139.255L-37.4403 145.906L-45.5237 145.922L-45.541 153.159L-45.5748 167.77ZM-13.1581 167.834L-5.49562 167.847C-5.52917 162.969 -5.52024 158.091 -5.46857 153.213L-13.1537 153.198L-13.1581 167.834ZM10.7424 153.188L2.54777 153.162L2.54696 160.494L10.7383 160.481L10.7424 153.188Z" fill="#9EBBF6" fill-opacity="0.988235"/>
<path d="M18.8309 88.0254L26.9384 88.0448L26.9439 102.636L18.8047 102.643L18.8309 88.0254Z" fill="#7A95D0"/>
<path d="M2.60576 87.989C5.13403 88.0728 8.15956 88.0101 10.7273 88.014C10.6616 92.8352 10.7246 97.7607 10.7298 102.59L2.57031 102.611C2.67583 97.8548 2.59683 92.7681 2.60576 87.989Z" fill="#7C99DC"/>
<path d="M2.60742 109.918L10.7352 109.901C10.6803 114.772 10.6703 119.643 10.7055 124.515L2.61797 124.534L2.60742 109.918Z" fill="#7C99DC"/>
<path d="M2.54768 153.162L10.7423 153.189L10.7383 160.482L2.54688 160.494L2.54768 153.162Z" fill="#7C99DC" fill-opacity="0.956863"/>
<path d="M26.9348 145.905L67.0687 145.878C66.8645 149.089 66.9854 153.085 66.9914 156.349L67.0065 175.38C64.7036 175.111 61.8212 175.137 59.4501 175.11C56.7527 175.111 53.9009 175.157 51.2208 175.01C50.574 174.779 44.3219 175.077 43.1886 175.113C40.9576 174.952 38.0357 175.114 35.5421 174.97L35.1389 174.687C35.186 173.738 35.1489 173.096 35.0789 172.146C34.6406 173.439 34.4988 174.911 32.7771 174.792C30.9617 174.667 29.1187 174.772 27.3052 174.927C27.3169 173.268 27.5203 169.31 26.9889 167.942C26.7736 166.204 26.8907 162.237 26.8948 160.302L26.9348 145.905ZM35.051 167.836L43.1515 167.811L43.1512 160.495L35.0729 160.578L35.051 167.836Z" fill="#97B8F5"/>
<path d="M51.2832 153.172L59.4134 153.187L59.4053 160.449L59.4161 167.749L51.3165 167.778L51.2927 160.624L51.2832 153.172Z" fill="#7C99DC"/>
<path d="M51.291 160.624C53.4208 160.368 58.43 160.687 59.4037 160.449L59.4145 167.749L51.3148 167.778L51.291 160.624Z" fill="#7C99DC"/>
<path d="M35.0664 153.186L43.2061 153.198L43.1507 160.495L35.0724 160.578L35.0664 153.186Z" fill="#7A95D0"/>
<path d="M35.0727 160.578L43.151 160.495L43.1513 167.811L35.0508 167.836L35.0727 160.578Z" fill="#7C99DC" fill-opacity="0.988235"/>
<path d="M51.8416 73.2043C53.934 73.1861 56.6904 73.0937 58.7287 73.1987L58.8783 73.9472C59.9305 72.6086 60.2067 66.0305 60.1339 64.1929C60.0308 61.5916 59.5598 58.9999 59.4427 56.3913C59.355 54.4433 58.8034 38.7013 59.9632 37.7265C60.1085 37.6044 60.599 37.5195 60.8062 37.4938C62.5188 37.2817 64.4381 37.4259 66.1674 37.4473L66.4707 84.2248C66.4758 85.0117 66.0505 89.9472 66.2066 90.1969C66.5337 89.4978 66.5567 89.1822 66.6704 88.4527C66.7981 99.5606 66.6609 110.75 66.182 121.844C66.1495 122.591 66.1915 123.056 65.9832 123.798C65.6201 123.421 65.5397 120.955 65.2732 119.986L65.0757 120.013C65.0687 121.264 65.194 122.526 64.4321 123.56C62.762 124.595 58.5553 123.516 56.2342 123.889C52.488 124.492 52.5594 122.725 52.5329 120.081C52.4412 120.846 52.2731 122.994 51.9425 123.565C51.1477 121.852 51.633 107.11 51.3682 103.86C51.5778 95.9343 51.2878 87.3828 51.3281 79.3836L51.3763 79.6168C51.7413 81.4746 51.3187 86.1239 51.7948 87.0924C52.176 85.896 51.7978 75.3836 51.8416 73.2043Z" fill="#7C99DC" fill-opacity="0.113725"/>
<path d="M228.334 80.3652C228.929 81.7792 228.466 83.993 228.683 85.5862C228.783 84.2325 228.94 82.678 228.918 81.3372C231.212 81.3272 234.48 80.7652 235.782 81.7795C236.315 82.7879 236.19 86.3758 236.05 87.4924C235.709 87.8761 235.617 88.092 235.628 88.5766C235.925 99.7792 235.682 110.947 235.636 122.147C235.628 123.909 235.287 125.709 235.316 127.48C235.406 129.587 235.641 131.642 235.665 133.764L235.679 156.517C235.601 156.09 235.565 155.431 235.241 155.164C234.608 156.091 234.207 165.777 235.609 166.807L235.546 166.71C236.023 169.462 235.606 173.586 235.679 176.471C235.793 180.865 235.649 185.349 235.652 189.749C235.484 193.142 234.686 192.644 235.038 196.961C233.693 196.627 230.517 196.02 229.178 196.415C227.939 197.522 228.766 201.188 228.366 203.129C228.06 200.212 228.263 193.568 228.263 190.408L228.271 165.099L228.225 80.6741L228.334 80.3652Z" fill="#5879CA" fill-opacity="0.937255"/>
<path d="M43.7275 124.885C44.9674 124.85 49.2843 124.639 50.3326 124.928C50.6273 124.649 50.6757 124.624 50.8908 124.276L50.9744 124.518L51.1118 134.833C51.1021 136.094 51.0325 137.72 51.2119 138.942L51.4749 138.961C53.3222 139.209 62.6171 139.23 64.7842 139.065C65.2934 139.089 66.3531 139.11 66.802 139.214C66.7903 140.15 67.1899 139.82 67.2359 140.875C67.2998 142.337 67.5817 144.489 67.0685 145.879L26.9346 145.905L26.8945 160.302C26.8905 162.237 26.7733 166.204 26.9887 167.942C26.9765 170.43 27.0025 173.001 26.8972 175.48C24.9799 171.545 30.2344 165.838 19.4958 168.179C19.4937 169.773 19.9141 174.437 18.909 175.37C18.7261 173.244 18.8265 170.111 18.8246 167.912L18.8509 145.907C18.8352 143.716 18.7556 141.259 18.951 139.096C24.327 139.121 29.7034 139.12 35.0794 139.093L43.1499 139.064C43.1187 134.847 42.9066 128.888 43.2113 124.808C43.5578 125.603 43.3498 132.566 43.6217 134.417C43.5776 134.084 43.6239 134.121 43.6512 133.894C44.0089 130.939 43.6726 127.854 43.7275 124.885Z" fill="#5879CA" fill-opacity="0.956863"/>
<path d="M75.0543 37.1052L75.1258 37.4327C75.0508 39.8794 75.0408 42.3276 75.0957 44.7748L75.06 59.3304C75.0625 61.4877 75.162 64.5628 75.0568 66.654V73.3228L75.0714 80.7485L75.0895 95.369L75.0427 109.939L75.0303 111.226C74.7416 112.249 74.8041 114.757 74.5985 115.217L74.5552 110.233C73.5969 110.235 68.0287 110.147 67.4898 110.465C67.5564 113.503 68.0071 129.596 67.1703 131.897L66.9238 131.348L66.943 124.359C67.1397 114.388 66.9482 103.83 66.9484 93.8193L66.972 36.8642C67.6868 37.3678 68.1892 37.7316 69.1193 37.7017C70.8222 37.6472 73.8672 38.3212 75.0543 37.1052Z" fill="#5E78BC" fill-opacity="0.945098"/>
<path d="M67.1693 131.897C68.0061 129.596 67.5553 113.503 67.4888 110.465C68.0277 110.147 73.5958 110.235 74.5541 110.233L74.5974 115.217C74.803 114.757 74.7405 112.249 75.0292 111.226L75.1342 117.23L75.0822 131.777L75.0982 139.183L75.0958 145.977C75.0833 148.333 75.0206 150.874 75.0628 153.216L75.1014 160.553C75.0849 165.215 74.9472 170.442 75.0647 175.061C75.0741 176.904 74.9729 180.662 75.1813 182.356C73.0312 182.316 69.2784 182.798 67.5404 182.083C67.0713 181.89 67.0921 180.934 67.0126 180.368L67.0053 175.38L66.9901 156.349C66.9842 153.085 66.8633 149.089 67.0675 145.879C67.5808 144.489 67.2988 142.337 67.235 140.875C67.189 139.82 66.7894 140.15 66.801 139.214C66.8746 138.54 66.8819 137.554 66.9114 136.851C67.044 135.268 66.6971 133.498 67.1693 131.897Z" fill="#5E78BC" fill-opacity="0.984314"/>
<path d="M35.071 83.2496C35.2266 82.8029 35.4178 81.7352 35.5239 81.2238C36.8201 80.2611 41.5774 80.8075 43.2031 81.1791L43.2104 124.808C42.9058 128.888 43.1179 134.847 43.149 139.064L35.0786 139.093L35.0664 131.799L35.0702 124.467L35.071 83.2496Z" fill="#7C99DC" fill-opacity="0.984314"/>
<path d="M194.679 58.8457C193.151 58.8705 189.659 59.2138 188.693 58.2665C188.229 56.9702 188.32 53.7482 188.906 52.5898C190.338 52.4816 194.099 52.2693 195.211 52.8745C195.475 53.4594 195.629 53.6237 196.049 54.1337C196.224 57.8648 196.311 61.5985 196.312 65.3331C196.29 67.9529 196.287 70.5728 196.305 73.1926C203.626 73.579 212.762 73.4029 220.184 73.3935C220.541 73.9323 220.119 79.0468 220.224 80.4391C218.89 80.4681 216.114 80.4746 214.878 80.6918L206.943 80.7652C203.921 80.6089 199.579 80.7261 196.458 80.7261C193.86 80.7317 191.262 80.7173 188.665 80.6828C186.794 79.3271 181.123 81.9638 180.649 79.5489C178.872 70.4818 183.994 75.0217 188.199 73.6631C188.201 69.3482 188.25 65.0274 188.196 60.7132C188.186 59.8818 188.305 59.7413 187.703 59.2202C188.855 58.7212 193.907 60.3377 194.824 58.8999C195.473 57.8825 195.156 54.6552 194.809 53.4654L194.612 53.5586C194.709 55.3548 194.694 57.047 194.679 58.8457Z" fill="#5879CA" fill-opacity="0.964706"/>
<path d="M44.9775 73.4034C46.9504 73.4866 49.0728 73.8326 50.7099 73.0421C51.3868 73.872 50.9274 100.331 51.1071 103.913C51.1241 110.779 51.0849 117.721 51.1931 124.582L50.9734 124.518L50.8898 124.276C50.6748 124.624 50.6263 124.649 50.3317 124.928C49.2833 124.639 44.9665 124.85 43.7265 124.885C43.6716 127.854 44.0079 130.939 43.6502 133.894C43.6229 134.121 43.5767 134.084 43.6208 134.417C43.3489 132.566 43.5569 125.603 43.2103 124.808L43.203 81.1791C43.2 78.5548 43.1852 76.0147 43.3313 73.3898C44.0377 73.515 44.2941 73.6193 44.9775 73.4034Z" fill="#5E78BC" fill-opacity="0.87451"/>
<path d="M-54.5488 66.5355C-48.316 66.6184 -42.1229 66.4941 -35.8979 66.5C-22.8731 66.5121 -9.80268 66.8299 3.22231 66.5503C1.29519 69.0398 3.55372 70.7765 2.04866 73.3219L-29.8254 73.294C-37.5382 73.3098 -45.8096 73.4564 -53.499 73.2239L-53.7028 73.0107C-54.307 70.8399 -52.6504 68.6665 -54.5488 66.5355Z" fill="#5E78BC" fill-opacity="0.862745"/>
<path d="M-44.1755 175.038C-34.8846 174.96 -23.4555 174.758 -14.2382 175.055C-11.0276 175.694 -1.56983 175.192 2.58768 175.535C2.48108 177.35 2.32768 179.243 2.44321 181.051C1.38374 180.554 -11.2097 180.786 -13.1376 180.906L-13.7061 181.573C-14.3846 181.639 -15.0642 181.696 -15.7444 181.745C-14.2629 181.901 -12.642 182.107 -11.1624 182.149L-12.84 182.352C-20.7555 182.336 -29.6808 182.132 -37.4978 182.393L-44.862 182.335C-45.6472 182.126 -46.0092 182.03 -46.8555 182.101C-46.5497 181.431 -46.0236 181.23 -45.3273 180.823C-44.424 178.926 -46.4372 176.6 -44.1755 175.038Z" fill="#A0C2CB" fill-opacity="0.85098"/>
<path d="M43.1875 175.113C44.3209 175.077 50.573 174.779 51.2198 175.01L51.2761 189.691L59.4229 189.711C59.4569 191.141 59.6864 195.864 59.2188 196.944L51.5234 196.87C50.1642 197.099 45.0451 196.979 43.3942 196.969C39.8717 196.792 38.2909 196.799 34.8649 197.103L34.6504 196.59C35.1082 194.979 35.2223 191.363 35.0205 189.698L43.1927 189.673C43.1434 184.82 43.1418 179.966 43.1875 175.113Z" fill="#9DBEE6" fill-opacity="0.972549"/>
<path d="M155.725 15.3632C157.529 16.1058 160.099 16.2427 162.027 15.8387C162.504 15.7389 163.017 15.12 163.573 15.0334C164.045 22.4714 163.696 31.0251 163.819 38.5612C163.862 41.1896 164.016 49.5855 163.742 51.7324C163.129 51.4856 157.778 52.5451 155.758 51.4992L155.803 28.3833C155.807 24.6654 155.978 19.1103 155.686 15.5323L155.725 15.3632Z" fill="#5E78BC" fill-opacity="0.909804"/>
<path d="M170.19 52.0339C178.513 51.7159 187.261 52.2579 195.784 51.8956C196.185 52.467 196.084 53.3864 196.049 54.1336C195.629 53.6237 195.475 53.4594 195.21 52.8745C194.099 52.2693 190.338 52.4816 188.906 52.5898C188.32 53.7482 188.229 56.9702 188.693 58.2665C189.659 59.2138 193.15 58.8705 194.679 58.8457C194.693 57.047 194.709 55.3548 194.612 53.5586L194.808 53.4654C195.156 54.6552 195.473 57.8825 194.824 58.8999C193.906 60.3377 188.854 58.7212 187.702 59.2202C184.003 59.5078 176.236 59.2997 172.269 59.2931C170.207 57.9397 167.025 59.3072 164.739 58.6468C163.24 57.4375 163.81 53.793 164.698 52.4369C165.697 52.0065 167.562 52.5643 169.957 52.0818L170.19 52.0339Z" fill="#5E78BC" fill-opacity="0.921569"/>
<path d="M83.2223 196.96C84.3469 196.966 90.4364 197.033 91.3179 196.815L91.4093 196.976C92.5215 198.037 97.4912 196.937 98.9857 197.618C99.0204 198.871 99.2863 201.762 98.8651 202.751C97.5158 203.652 94.5333 202.886 92.0968 203.059C93.0082 203.651 105.552 203.416 107.42 203.374L108.065 203.009L108.271 203.264L108.167 203.379L108.182 203.066L108.067 203.671C110.376 203.665 114.093 203.281 115.918 204.132L115.64 204.213C112.514 204.402 107.637 204.206 104.267 204.246C97.9108 204.008 89.8655 204.222 83.4103 204.265C81.2873 204.332 77.0984 204.476 75.0723 204.347L75.1234 197.143C76.1869 196.898 81.7424 196.974 83.2223 196.96Z" fill="#9FBFDA" fill-opacity="0.921569"/>
<path d="M107.498 8.20934C114.046 8.23808 124.539 7.95971 130.675 8.31431L132.749 8.65414L131.349 9.1987C131.12 9.9039 131.598 10.2333 131.845 11.0488C132.309 12.5766 132.339 13.7628 132.306 15.3253C124.994 15.4934 117.536 15.2219 110.205 15.2863C109.272 15.2945 108.592 15.1211 107.616 15.2642C107.594 12.9124 107.554 10.5607 107.498 8.20934Z" fill="#5E78BC" fill-opacity="0.905882"/>
<path d="M82.6845 8.29231C90.7544 8.28722 99.4947 8.43186 107.497 8.20929C107.554 10.5607 107.593 12.9123 107.615 15.2642C100.01 15.1867 90.5144 15.1651 82.975 15.4204C82.8165 14.6962 83.4658 10.7002 83.3792 9.29966L82.5781 8.67762L82.6845 8.29231Z" fill="#7A95D0" fill-opacity="0.839216"/>
<path d="M3.22247 66.5504C8.71973 66.5975 14.2173 66.6116 19.7148 66.5924C21.5797 66.5922 26.0367 66.4905 27.6037 66.643C29.4697 66.892 31.3053 66.9309 33.1884 67.0029C31.4604 67.1218 28.522 67.24 26.9576 67.6434L26.7201 67.9184C27.229 70.2285 28.0006 71.2483 26.3213 73.2648C24.1886 73.4134 20.274 73.3171 18.0277 73.3186L2.04883 73.322C3.55389 70.7765 1.29536 69.0399 3.22247 66.5504Z" fill="#5C78B0" fill-opacity="0.854902"/>
<path d="M83.4102 204.265C89.8654 204.222 97.9107 204.008 104.267 204.246C105.35 204.412 106.452 204.621 107.547 204.59C107.718 206.628 107.854 208.668 107.956 210.709C110.127 210.723 113.144 210.663 115.246 210.835L115.234 211.044L100.381 210.915C98.2806 210.921 84.5208 210.802 83.4521 211.182C83.5116 208.876 83.4978 206.57 83.4102 204.265Z" fill="#5E78BC" fill-opacity="0.360784"/>
<path d="M130.676 8.31429C138.002 8.25878 145.329 8.23733 152.656 8.24998C153.489 8.28806 154.281 8.3024 155.104 8.43403C155.029 8.20823 155.712 15.4867 155.727 15.3632C148.82 15.1107 139.225 15.2504 132.307 15.3253C132.34 13.7628 132.311 12.5766 131.847 11.0488C131.599 10.2333 131.122 9.90388 131.35 9.19868C131.756 9.24099 132.162 9.27832 132.569 9.31063C134.445 9.4577 138.997 9.78247 140.384 8.73373C139.713 8.35048 133.831 8.5354 132.75 8.65412L130.676 8.31429Z" fill="#617FC5" fill-opacity="0.819608"/>
<path d="M26.988 167.943C27.5193 169.31 27.3159 173.268 27.3042 174.927C29.1177 174.772 30.9607 174.667 32.7761 174.792C34.4978 174.911 34.6396 173.44 35.0779 172.146C35.148 173.096 35.185 173.738 35.1379 174.687L35.5411 174.97C35.4172 175.086 35.2932 175.202 35.1693 175.318C35.0194 178.797 34.9356 185.868 35.0008 188.964L35.0205 189.698C33.4073 189.882 28.8331 189.71 26.8887 189.754C26.9506 184.996 26.9533 180.238 26.8965 175.48C27.0018 173.001 26.9758 170.43 26.988 167.943Z" fill="#9EBBF6" fill-opacity="0.976471"/>
<path d="M82.9765 15.4203C90.5158 15.165 100.012 15.1867 107.617 15.2641L107.56 15.5158L83.2264 15.5936L83.1745 30.1654C81.6253 30.1761 76.0456 30.4044 75.1235 29.8274C75.1568 27.6416 75.1503 25.4556 75.1035 23.2699L75.255 22.6659C75.4988 21.4215 75.4149 16.9712 75.4203 15.4829C77.5431 15.5639 80.9357 15.6893 82.9765 15.4203Z" fill="#7C99DC" fill-opacity="0.988235"/>
<path d="M51.2207 175.01C53.9008 175.157 56.7526 175.111 59.45 175.11C59.3988 179.977 59.3902 184.844 59.4237 189.711L51.277 189.691L51.2207 175.01Z" fill="#7C99DC" fill-opacity="0.984314"/>
<path d="M75.1814 182.356C77.8612 182.379 80.541 182.385 83.2208 182.373L83.2221 196.96C81.7422 196.974 76.1868 196.898 75.1233 197.143L75.0684 197.026C75.1966 194.971 75.1022 191.772 75.1073 189.636L75.1814 182.356Z" fill="#7A95D0" fill-opacity="0.980392"/>
<path d="M35.5412 174.97C38.0348 175.114 40.9567 174.952 43.1876 175.113C43.1419 179.966 43.1435 184.82 43.1928 189.673L35.0206 189.698L35.0009 188.964C34.9357 185.868 35.0195 178.797 35.1694 175.318C35.2933 175.202 35.4172 175.086 35.5412 174.97Z" fill="#7C99DC" fill-opacity="0.968627"/>
<path d="M107.567 182.397L115.689 182.393C115.683 186.824 115.883 193.016 115.625 197.279C114.479 196.802 109.169 196.986 107.579 196.998C107.54 194.604 107.58 192.145 107.587 189.746C107.684 187.631 107.576 184.574 107.567 182.397Z" fill="#7A95D0" fill-opacity="0.984314"/>
<path d="M18.8608 109.876L26.9726 109.883C26.9539 114.707 26.8709 119.688 26.9209 124.5L18.8226 124.511C18.8337 119.672 18.7877 114.706 18.8608 109.876Z" fill="#7C99DC"/>
<path d="M-8.79102 182.158C-5.30852 182.001 -0.814719 182.071 2.68834 182.191C3.89444 182.217 9.89167 182.377 10.7517 182.251C12.2977 182.214 13.085 182.23 14.6322 182.351C13.2465 182.892 11.6984 182.746 10.1622 182.74C10.5269 184.217 10.8424 186.216 10.1855 187.65C8.8525 188.683 8.3317 187.792 7.65641 188.539C9.22424 189.059 17.2936 188.026 18.5043 189.022L18.5966 189.333L18.8414 189.706C15.0997 189.575 11.0826 189.638 7.31389 189.646C5.44467 189.39 -2.67636 189.446 -5.00578 189.422C-5.41782 188.615 -4.36999 186.911 -4.51555 185.887C-5.15242 181.406 -0.661592 183.901 2.5141 182.657C0.352963 182.444 -3.70201 182.323 -5.90779 182.381L-8.79102 182.158Z" fill="#9FBFDA" fill-opacity="0.705882"/>
<path d="M2.59959 131.772L10.6957 131.789L10.7082 139.195L10.7117 145.894L2.55469 145.904L2.59959 131.772Z" fill="#7C99DC"/>
<path d="M59.4505 175.11C61.8216 175.137 64.704 175.111 67.0069 175.38L67.0142 180.368C66.9777 182.208 66.8062 188.122 67.1043 189.699L66.9988 190.135C65.724 189.1 61.7729 190.148 59.4243 189.711C59.3907 184.844 59.3994 179.977 59.4505 175.11Z" fill="#9CB8F2"/>
<path d="M19.4947 168.179C30.2332 165.838 24.9787 171.545 26.896 175.48C26.9529 180.238 26.9501 184.996 26.8882 189.754L26.6222 189.617C26.3539 187.921 27.5172 183.21 26.1282 182.228C24.8071 181.936 20.4115 182.049 19.3196 182.745L18.94 182.611C18.8478 180.412 18.7231 177.512 18.9078 175.37C19.9129 174.437 19.4925 169.772 19.4947 168.179Z" fill="#5E78BC" fill-opacity="0.94902"/>
<path d="M50.9746 124.518L51.1943 124.582L51.3461 125.082C51.0807 127.083 51.1965 129.632 51.2254 131.687L51.8106 132.13C54.4601 132.154 65.025 131.834 66.924 131.348L67.1704 131.897C66.6983 133.498 67.0452 135.268 66.9126 136.851C65.6681 137.328 66.1937 137.904 64.8486 138.652L64.7845 139.065C62.6174 139.23 53.3224 139.209 51.4751 138.961L52.0276 138.72C52.7851 138.787 52.9353 138.802 53.6806 138.677L53.712 138.275C51.9632 135.949 51.4318 138.557 51.112 134.833L50.9746 124.518Z" fill="#9EBBF6" fill-opacity="0.666667"/>
<path d="M27.6027 66.643C32.7807 66.5813 37.9596 66.5674 43.1381 66.6012C43.1235 68.1796 43.0772 71.5943 43.4246 72.9904C43.8735 73.3284 44.17 73.2698 44.7939 73.2946L44.9773 73.4035C44.2939 73.6194 44.0374 73.5151 43.331 73.3899C42.6387 73.2425 36.2638 73.2843 35.0625 73.2824L26.3203 73.2649C27.9996 71.2483 27.228 70.2285 26.7191 67.9184L26.9566 67.6434C28.521 67.24 31.4594 67.1218 33.1874 67.0029C31.3044 66.9309 29.4687 66.892 27.6027 66.643Z" fill="#617FC5" fill-opacity="0.768627"/>
<path d="M236.05 87.4924L236.318 87.6203C236.107 94.6755 236.263 102.253 236.266 109.363L236.269 149.452L236.291 184.8C236.291 191.182 236.069 197.92 236.345 204.252C235.771 204.408 235.782 204.506 235.36 204.35C235.133 204.165 234.857 203.941 234.529 203.675C234.705 202.214 235.915 198.193 235.038 196.961C234.686 192.644 235.484 193.142 235.652 189.749C235.649 185.349 235.793 180.865 235.679 176.472C235.606 173.586 236.023 169.462 235.547 166.71L235.609 166.807C234.207 165.777 234.608 156.091 235.241 155.164C235.565 155.431 235.601 156.09 235.679 156.517L235.666 133.764C235.641 131.642 235.406 129.588 235.317 127.48C235.287 125.709 235.628 123.909 235.636 122.147C235.682 110.947 235.925 99.7793 235.628 88.5767C235.617 88.0921 235.709 87.8761 236.05 87.4924Z" fill="#5879CA" fill-opacity="0.952941"/>
<path d="M66.757 211.031L66.9513 211.077C67.0563 212.681 67.3617 217.01 66.2495 218.214L65.4397 218.287L65.4527 218.102L66.1088 217.816L66.1718 217.476C65.6486 217.085 64.7158 216.975 64.0104 216.827C56.9857 216.32 51.5855 221.05 52.9778 211.372C54.6581 211.235 63.8221 211.381 64.4836 211.087L66.757 211.031Z" fill="#A2C3DE" fill-opacity="0.411765"/>
<path d="M51.8461 131.487C52.6272 128.876 52.8691 127.904 52.9194 125.177C53.9129 124.788 63.786 125.172 65.1631 125.404L65.5748 125.155L65.8229 125.269C64.9675 126.808 65.478 129.522 64.718 130.774C60.6536 131.983 55.6852 130.324 51.2239 131.687C51.1949 129.631 51.0791 127.083 51.3445 125.082C51.8683 125.888 51.4279 129.673 51.8461 131.487Z" fill="#9CB8F2" fill-opacity="0.411765"/>
<path d="M66.6704 88.4526C66.8774 83.8646 66.6986 78.274 66.7018 73.5691L66.6988 43.9361C66.6969 42.1029 66.5416 31.3499 66.9093 30.1718C67.0589 32.3586 66.9924 34.6645 66.9713 36.8642L66.9477 93.8193C66.9475 103.83 67.139 114.388 66.9423 124.359L66.4556 125.227C66.3082 125.242 65.9713 125.292 65.8236 125.269L65.5755 125.155L65.1637 125.404C63.7867 125.172 53.9135 124.788 52.9201 125.177C52.8698 127.904 52.6279 128.876 51.8468 131.487C51.4286 129.673 51.869 125.888 51.3452 125.082L51.1935 124.582C51.0852 117.721 51.1245 110.779 51.1074 103.913L51.3682 103.86C51.6331 107.11 51.1477 121.852 51.9426 123.565C52.2732 122.994 52.4412 120.846 52.5329 120.081C52.5595 122.725 52.488 124.492 56.2343 123.889C58.5553 123.516 62.7621 124.595 64.4322 123.56C65.194 122.526 65.0688 121.264 65.0758 120.013L65.2733 119.986C65.5398 120.955 65.6202 123.421 65.9832 123.798C66.1916 123.056 66.1496 122.591 66.1821 121.844C66.661 110.75 66.7981 99.5606 66.6704 88.4526Z" fill="#9CB8F2" fill-opacity="0.360784"/>
<path d="M228.619 73.3896C231.054 73.402 233.92 73.3521 236.319 73.4647C236.382 77.7079 236.609 83.4882 236.319 87.6203L236.051 87.4924C236.192 86.3758 236.317 82.7879 235.784 81.7795C234.482 80.7652 231.214 81.3272 228.92 81.3372C228.941 82.678 228.784 84.2325 228.684 85.5862C228.468 83.993 228.931 81.7792 228.335 80.3652C228.224 78.3548 227.911 75.2692 228.619 73.3896Z" fill="#5E78BC" fill-opacity="0.729412"/>
<path d="M99.4625 196.997C102.117 196.993 104.941 196.941 107.58 196.998C109.17 196.986 114.479 196.802 115.626 197.279L115.427 197.603C114.348 197.246 110.221 197.478 108.727 197.503C107.307 198.373 107.98 201.443 108.066 203.009L107.42 203.374C105.553 203.416 93.0091 203.651 92.0976 203.059C94.5342 202.886 97.5167 203.652 98.8659 202.751C99.2872 201.762 99.0212 198.871 98.9866 197.617C97.4921 196.937 92.5224 198.037 91.4102 196.976C93.8662 196.978 97.0611 196.906 99.4625 196.997Z" fill="#A0C2CB" fill-opacity="0.933333"/>
<path d="M171.996 73.4336C174.397 73.43 186.564 73.2907 188.199 73.6632C183.993 75.0217 178.871 70.4819 180.649 79.549C181.122 81.9638 186.793 79.3272 188.665 80.6828C186.484 80.8069 182.477 80.7106 180.187 80.7147L172.161 80.7295C171.824 78.6843 172.24 75.8013 171.996 73.4336Z" fill="#5E78BC"/>
<path d="M66.9519 211.077C68.8162 211.025 73.8281 211.129 75.3367 210.996C77.5498 210.987 81.3999 210.871 83.4526 211.182C81.365 211.512 77.8606 211.107 75.2022 211.432C74.9479 213.844 74.9044 216.037 74.8478 218.45C71.9267 218.486 54.5597 218.731 52.7676 218.389C56.5047 217.991 61.5609 218.223 65.4403 218.287L66.2501 218.215C67.3623 217.01 67.0568 212.681 66.9519 211.077Z" fill="#5E78BC" fill-opacity="0.333333"/>
<path d="M-14.2383 175.055C-8.35982 174.982 -2.50083 174.717 3.36221 175.02C5.7314 175.143 8.12738 175.155 10.502 175.159C10.7874 176.48 10.7003 180.633 10.7509 182.251C9.89081 182.377 3.89357 182.217 2.68747 182.191L2.44316 181.051C2.32764 179.243 2.48104 177.35 2.58763 175.535C-1.56988 175.192 -11.0277 175.694 -14.2383 175.055Z" fill="#A4BEF2" fill-opacity="0.882353"/>
<path d="M152.654 8.24996C155.67 7.91327 160.541 8.1506 163.734 8.06608C163.362 10.7571 163.75 12.6895 163.574 15.0334C163.018 15.1199 162.504 15.7389 162.028 15.8386C160.1 16.2426 157.53 16.1058 155.725 15.3632C155.711 15.4867 155.028 8.20821 155.103 8.43401C154.28 8.30238 153.488 8.28804 152.654 8.24996Z" fill="#617FC5" fill-opacity="0.670588"/>
<path d="M35.0638 73.2824C36.265 73.2843 42.64 73.2425 43.3323 73.3899C43.1862 76.0148 43.2011 78.5549 43.2041 81.1791C41.5783 80.8076 36.821 80.2612 35.5248 81.2239C35.4188 81.7352 35.2275 82.803 35.0719 83.2497C34.8793 80.3789 35.0405 76.2451 35.0638 73.2824Z" fill="#7C99DC"/>
<path d="M43.1393 66.6011C45.2398 66.6021 48.9626 66.6989 50.9311 66.5024C51.1156 70.7947 51.2482 75.0887 51.3288 79.3835C51.2885 87.3826 51.5785 95.9342 51.3688 103.86L51.108 103.913C50.9284 100.331 51.3878 73.8719 50.7108 73.042C49.0738 73.8326 46.9513 73.4865 44.9785 73.4034L44.795 73.2944C44.1712 73.2696 43.8746 73.3282 43.4258 72.9902C43.0784 71.5942 43.1247 68.1795 43.1393 66.6011Z" fill="#617FC5" fill-opacity="0.568627"/>
<path d="M75.2536 22.666L75.2249 22.4434C75.0477 20.9814 75.0355 8.77167 75.4993 8.26261C77.7989 8.07036 80.3575 8.21509 82.6845 8.29237L82.5781 8.67769L83.3792 9.29973C83.4658 10.7002 82.8165 14.6963 82.975 15.4204C80.9343 15.6894 77.5416 15.564 75.4189 15.483C75.4135 16.9713 75.4974 21.4216 75.2536 22.666Z" fill="#7A95D0" fill-opacity="0.694118"/>
<path d="M51.5242 196.87L59.2197 196.944L59.3412 197.021C59.2938 199.14 59.4702 202.375 59.2592 204.341L59.1997 204.449C57.0724 204.343 53.2979 204.137 51.2888 204.547L51.0059 204.293C51.4964 202.107 50.9252 199.146 51.5242 196.87Z" fill="#A4BEF2" fill-opacity="0.952941"/>
<path d="M131.474 210.876C132.795 211.184 138.191 211.088 139.803 211.047L140.047 211.113C140.056 212.223 140.205 216.128 140.067 216.943L139.645 215.77L139.411 215.71C139.205 216.674 139.313 217.382 139.432 218.359C137.445 218.518 133.906 218.504 131.974 218.396L131.822 218.096C131.924 217.295 131.763 211.946 131.589 211.185L130.852 211.005L131.474 210.876Z" fill="#9FBFDA" fill-opacity="0.466667"/>
<path d="M227.503 73.226L228.618 73.3896C227.909 75.2693 228.223 78.3548 228.334 80.3652L228.226 80.6741C225.994 80.8222 221.811 80.7375 219.452 80.747L214.877 80.6918C216.113 80.4747 218.889 80.4681 220.223 80.4392C220.117 79.0468 220.54 73.9323 220.182 73.3935C222.642 73.3984 225.05 73.4385 227.503 73.226Z" fill="#5879CA"/>
<path d="M67.0138 180.368C67.0934 180.934 67.0725 181.89 67.5417 182.083C69.2797 182.798 73.0324 182.316 75.1825 182.356L75.1084 189.636L67.1039 189.699C66.8058 188.122 66.9773 182.208 67.0138 180.368Z" fill="#617FC5" fill-opacity="0.988235"/>
<path d="M66.9102 30.1718C68.5459 30.2 73.8508 30.1514 75.0482 30.3017C75.0991 32.5692 75.1013 34.8374 75.0545 37.1052C73.8673 38.3212 70.8223 37.6472 69.1195 37.7016C68.1893 37.7315 67.6869 37.3678 66.9721 36.8642C66.9932 34.6645 67.0598 32.3586 66.9102 30.1718Z" fill="#617FC5" fill-opacity="0.768627"/>
<path d="M34.8652 197.102C38.2912 196.799 39.872 196.792 43.3945 196.969C42.8967 199.483 43.4765 201.752 42.8399 204.255C40.5965 204.375 37.4587 204.29 35.1867 204.251C35.1385 203.827 35.1777 202.6 35.1785 202.113C34.9045 200.835 35.129 198.786 34.8652 197.102Z" fill="#A0C2CB" fill-opacity="0.752941"/>
<path d="M66.6406 23.2142C68.5412 22.9349 73.5964 22.1105 74.6394 23.7083L75.1036 23.27C75.1504 25.4557 75.1569 27.6418 75.1236 29.8276L75.0485 30.3017C73.851 30.1514 68.5461 30.2001 66.9104 30.1719C67.1855 28.8909 66.8297 24.557 66.6406 23.2142Z" fill="#7C99DC" fill-opacity="0.27451"/>
<path d="M35.0205 189.698C35.2223 191.363 35.1081 194.979 34.6503 196.59L34.8649 197.102C33.671 196.849 29.2683 196.982 27.8052 197.001L26.5742 196.975C26.8307 194.416 26.8618 192.31 26.8886 189.754C28.833 189.71 33.4072 189.882 35.0205 189.698Z" fill="#9FBFDA" fill-opacity="0.843137"/>
<path d="M91.333 182.374C94.0536 182.354 96.7748 182.375 99.4949 182.437L99.4408 189.715C96.5129 189.677 94.2544 189.687 91.3105 189.845C91.3841 187.472 91.3281 184.767 91.333 182.374Z" fill="#7A95D0" fill-opacity="0.988235"/>
<path d="M155.67 225.769C157.905 225.646 161.551 225.637 163.783 225.724C163.789 226.735 163.701 232.4 164.044 232.938L163.865 232.97C161.169 233.007 158.473 233.009 155.777 232.977C155.663 230.663 155.697 228.103 155.67 225.769Z" fill="#5E78BC" fill-opacity="0.756863"/>
<path d="M67.1032 189.699L75.1076 189.636C75.1025 191.772 75.1969 194.971 75.0687 197.026C72.9211 196.946 69.0206 196.905 66.9688 197.075L66.9977 190.135L67.1032 189.699Z" fill="#5E78BC" fill-opacity="0.972549"/>
<path d="M66.9688 197.075C69.0206 196.905 72.9211 196.946 75.0687 197.026L75.1236 197.143L75.0725 204.347C72.7 204.142 69.3658 204.253 66.9972 204.406L66.9688 197.075Z" fill="#617FC5" fill-opacity="0.941176"/>
<path d="M91.3123 189.845C94.2561 189.687 96.5146 189.677 99.4425 189.715L99.4628 196.997C97.0614 196.906 93.8665 196.978 91.4105 196.975L91.319 196.815C91.2444 194.586 91.309 192.094 91.3123 189.845Z" fill="#97B8F5" fill-opacity="0.964706"/>
<path d="M180.015 225.693C182.606 225.687 185.649 225.619 188.209 225.684L188.212 232.971L187.688 233.114C185.417 232.841 182.3 232.905 179.998 233.041C180.297 231.612 180.09 227.337 180.015 225.693Z" fill="#7C99DC" fill-opacity="0.976471"/>
<path d="M99.4955 182.437L107.566 182.397C107.576 184.574 107.684 187.631 107.587 189.746C106.755 189.635 100.63 189.713 99.4414 189.715L99.4955 182.437Z" fill="#97B8F5" fill-opacity="0.988235"/>
<path d="M204.42 218.379C207.001 218.399 210.034 218.329 212.572 218.438C212.575 220.62 212.483 223.433 212.618 225.566C209.739 225.628 206.858 225.644 203.977 225.614C204.401 225.47 204.631 225.465 205.08 225.495C205.513 224.89 204.339 224.769 204.312 224.222C204.215 222.333 204.412 220.319 204.42 218.379Z" fill="#A0C2CB" fill-opacity="0.831373"/>
<path d="M43.3945 196.969C45.0453 196.979 50.1644 197.099 51.5236 196.87C50.9246 199.146 51.4958 202.107 51.0053 204.293C49.936 204.32 43.5652 204.387 42.8398 204.255C43.4764 201.752 42.8967 199.483 43.3945 196.969Z" fill="#9EBBF6" fill-opacity="0.898039"/>
<path d="M99.4414 189.715C100.63 189.713 106.755 189.635 107.587 189.746C107.58 192.145 107.54 194.604 107.579 196.998C104.94 196.942 102.116 196.993 99.4617 196.997L99.4414 189.715Z" fill="#A4BEF2" fill-opacity="0.980392"/>
<path d="M18.9412 182.611L19.3208 182.745C20.4127 182.049 24.8083 181.936 26.1294 182.228C27.5184 183.21 26.355 187.921 26.6234 189.617C24.6865 189.705 21.0753 189.559 19.3838 190.205L18.8405 189.706L18.5957 189.333C19.0656 188.757 18.8454 183.974 18.9412 182.611Z" fill="#617FC5" fill-opacity="0.858824"/>
<path d="M26.9199 124.501C29.6368 124.504 32.3536 124.493 35.0704 124.467L35.0667 131.799L26.9892 131.727L26.9199 124.501Z" fill="#A4BEF2"/>
<path d="M10.6973 131.789C13.3305 131.8 16.1953 131.761 18.8045 131.916C18.8113 132.974 19.0034 138.391 18.7664 139.029C16.0709 139.054 13.4036 139.066 10.7097 139.195L10.6973 131.789Z" fill="#A4BEF2"/>
<path d="M188.209 225.685C189.331 225.693 195.746 225.897 196.325 225.731L196.309 233.17C193.61 233 191.101 232.995 188.404 232.982L188.212 232.971L188.209 225.685Z" fill="#A0C2CB" fill-opacity="0.898039"/>
<path d="M196.676 218.361L204.42 218.379C204.412 220.319 204.215 222.333 204.312 224.222C204.339 224.769 205.513 224.89 205.08 225.495C204.631 225.465 204.401 225.47 203.976 225.614C201.964 225.743 198.77 225.679 196.663 225.699C195.939 224.779 196.36 219.571 196.676 218.361Z" fill="#A0C2CB" fill-opacity="0.984314"/>
<path d="M10.7328 167.917C13.4407 167.819 16.1172 167.875 18.8246 167.912C18.8265 170.111 18.7261 173.244 18.909 175.37C15.9511 175.166 13.5957 175.128 10.6465 175.118C11.0063 172.977 10.778 170.157 10.7328 167.917Z" fill="#A4BEF2" fill-opacity="0.972549"/>
<path d="M147.604 218.659L148.074 218.788C149.641 218.207 153.947 218.474 155.714 218.579C155.712 220.322 155.837 224.197 155.668 225.769C153.217 225.586 150.344 225.634 147.89 225.78L147.638 225.425L147.671 223.54C147.58 221.8 147.499 220.398 147.604 218.659Z" fill="#A4BEF2" fill-opacity="0.917647"/>
<path d="M163.783 225.724C166.443 225.69 169.296 225.696 171.939 225.614C171.916 226.864 171.732 232.012 171.892 232.951L171.734 232.965C169.257 232.859 166.541 232.923 164.044 232.938C163.701 232.4 163.789 226.735 163.783 225.724Z" fill="#7C99DC" fill-opacity="0.937255"/>
<path d="M10.6464 175.118C13.5957 175.128 15.9511 175.166 18.909 175.37C18.7242 177.512 18.8489 180.412 18.9412 182.611C17.6298 182.393 15.9475 182.249 14.6313 182.351C13.0841 182.23 12.2968 182.215 10.7509 182.251C10.7003 180.633 10.7874 176.48 10.502 175.159L10.6464 175.118Z" fill="#97B8F5" fill-opacity="0.894118"/>
<path d="M196.312 65.3331L196.746 67.3577C197.288 67.3643 197.078 67.4642 197.382 67.2383C198.865 66.1387 202.016 66.8517 204.264 66.6849C204.318 68.2769 204.329 70.5877 204.578 72.1014L204.178 72.8442C205.087 73.5098 224.523 72.9999 227.504 73.226C225.05 73.4385 222.642 73.3984 220.183 73.3935C212.762 73.403 203.626 73.5791 196.305 73.1927C196.287 70.5728 196.289 67.953 196.312 65.3331Z" fill="#7C99DC" fill-opacity="0.305882"/>
<path d="M171.732 232.965L171.891 232.951C174.574 233.013 177.341 232.933 179.997 233.041C179.818 235.346 180.399 236.946 180.01 239.934C178.286 239.925 175.851 239.833 174.231 240.148C173.823 240.183 172.485 240.127 172.005 240.116C171.93 237.732 171.839 235.348 171.732 232.965Z" fill="#9FBFDA" fill-opacity="0.713725"/>
<path d="M18.8405 189.706L19.3837 190.205C21.0752 189.56 24.6865 189.705 26.6233 189.617L26.8893 189.754C26.8625 192.31 26.8314 194.416 26.5749 196.975L26.3419 196.966C23.7468 196.955 21.5692 196.951 18.9679 197.126C18.7725 194.899 18.8475 191.99 18.8405 189.706Z" fill="#7A95D0" fill-opacity="0.701961"/>
<path d="M155.668 225.769C155.695 228.103 155.661 230.663 155.776 232.976C152.967 232.963 150.904 232.96 148.085 232.754C147.889 230.403 147.901 228.133 147.891 225.78C150.344 225.634 153.217 225.586 155.668 225.769Z" fill="#617FC5" fill-opacity="0.176471"/>
<path d="M75.0726 204.347C77.0988 204.476 81.2876 204.332 83.4106 204.265C83.4983 206.57 83.5121 208.876 83.4526 211.182C81.3999 210.871 77.5498 210.987 75.3367 210.996C74.8989 210.307 75.0737 205.53 75.0726 204.347Z" fill="#A4BEF2" fill-opacity="0.764706"/>
<path d="M59.3417 197.021C61.7675 197.109 64.5457 197.148 66.9698 197.075L66.9982 204.406C65.8679 204.485 60.7729 204.338 59.2598 204.341C59.4708 202.375 59.2944 199.14 59.3417 197.021Z" fill="#9CAEFF" fill-opacity="0.956863"/>
<path d="M18.7656 139.029L18.951 139.096C18.7556 141.259 18.8352 143.716 18.8509 145.907C18.0963 145.787 12.3412 145.981 10.7125 145.894L10.709 139.195C13.4028 139.066 16.0702 139.054 18.7656 139.029Z" fill="#9CB8F2"/>
<path d="M131.854 204.183C134.039 204.461 137.663 204.248 140.022 204.317C140.04 205.582 140.278 210.194 139.802 211.047C138.19 211.088 132.794 211.184 131.473 210.876C132.169 209.519 131.901 205.859 131.854 204.183Z" fill="#9EBBF6" fill-opacity="0.941176"/>
<path d="M59.4228 189.711C61.7714 190.148 65.7225 189.1 66.9973 190.135L66.9683 197.075C64.5442 197.148 61.766 197.109 59.3402 197.021L59.2188 196.944C59.6863 195.864 59.4568 191.141 59.4228 189.711Z" fill="#9EBBF6" fill-opacity="0.984314"/>
<path d="M66.9975 204.406C69.3662 204.253 72.7004 204.142 75.0728 204.346C75.0739 205.53 74.8991 210.307 75.3369 210.996C73.8283 211.129 68.8164 211.025 66.9521 211.077L66.7578 211.031L67.2102 210.203C66.8787 208.826 66.991 205.932 66.9975 204.406Z" fill="#617FC5" fill-opacity="0.827451"/>
<path d="M123.637 204.257C125.55 204.262 130.154 204.379 131.855 204.183C131.902 205.859 132.17 209.519 131.474 210.876L130.851 211.005C128.827 211.124 126.581 210.988 124.338 211.123L124.106 211.117L123.753 210.875L124.07 210.297C123.856 208.369 123.764 206.209 123.637 204.257Z" fill="#83A4B2" fill-opacity="0.843137"/>
<path d="M220.098 211.195C222.143 211.075 223.61 211.073 225.663 211.122C224.113 211.265 220.847 211.196 220.03 212.082C219.687 213.206 220.417 216.991 220.417 218.385L212.812 218.345C213.004 217.965 212.766 212.152 212.75 211.212C215.198 211.16 217.647 211.154 220.098 211.195Z" fill="#83A4B2" fill-opacity="0.913725"/>
<path d="M164.043 232.938C166.54 232.923 169.255 232.859 171.732 232.965C171.839 235.348 171.93 237.732 172.005 240.116C169.641 239.952 167.224 239.747 164.881 240.153C165.073 239.458 165.279 239.012 164.999 238.333C164.354 238.748 164.295 239.281 163.951 240.05C164.009 238.785 164.429 233.804 163.863 232.97L164.043 232.938Z" fill="#617FC5" fill-opacity="0.266667"/>
<path d="M235.36 204.349C235.782 204.506 235.771 204.408 236.345 204.252C236.353 205.917 236.588 209.718 235.62 210.948C234.989 211.25 229.435 210.585 228.253 211.098C228.374 209.401 228.255 206.417 228.25 204.621L228.594 204.307L235.36 204.349ZM234.835 210.853L235.122 210.222C234.765 209.701 234.427 209.666 233.775 209.451L233.217 210.188C233.588 210.739 233.934 210.644 234.835 210.853Z" fill="#7A95D0" fill-opacity="0.478431"/>
<path d="M233.774 209.451C234.426 209.666 234.764 209.702 235.121 210.222L234.835 210.853C233.934 210.644 233.587 210.739 233.217 210.188L233.774 209.451Z" fill="#7A95D0" fill-opacity="0.560784"/>
<path d="M14.6321 182.351C15.9483 182.249 17.6305 182.393 18.9419 182.611C18.8461 183.974 19.0663 188.757 18.5964 189.333L18.5041 189.022C17.2934 188.026 9.22408 189.059 7.65625 188.539C8.33154 187.792 8.85234 188.683 10.1853 187.65C10.8422 186.217 10.5268 184.217 10.1621 182.74C11.6982 182.746 13.2463 182.892 14.6321 182.351Z" fill="#97B8F5" fill-opacity="0.72549"/>
<path d="M42.8398 204.255C43.5652 204.387 49.936 204.32 51.0053 204.293L51.2882 204.547C51.3099 205.715 51.1037 210.093 51.2133 210.816C49.6834 211.18 45.8153 211.061 44.0911 211.001L45.4966 210.661L45.5897 210.293L45.1947 209.931C43.6096 209.681 43.6986 209.899 43.1526 211.026L43.0479 208.95C43.0484 207.826 43.1339 205.206 42.8398 204.255Z" fill="#A0C2CB" fill-opacity="0.74902"/>
<path d="M140.023 204.317C142.524 204.259 145.026 204.221 147.527 204.204C147.579 208.948 147.589 213.693 147.557 218.438L147.324 218.342C147.448 216.11 147.35 213.56 147.32 211.302C144.833 211.061 141.752 211.316 140.046 211.113L139.803 211.047C140.279 210.194 140.041 205.582 140.023 204.317Z" fill="#7C99DC" fill-opacity="0.980392"/>
<path d="M51.2889 204.547C53.298 204.136 57.0724 204.343 59.1997 204.448C59.3028 205.745 59.3223 208.889 59.1699 210.186L59.1924 211.001C57.0288 210.964 53.628 210.858 51.6005 211.174L51.2139 210.816C51.1044 210.093 51.3105 205.715 51.2889 204.547Z" fill="#9EBBF6" fill-opacity="0.886275"/>
<path d="M140.045 211.113C141.751 211.316 144.831 211.061 147.319 211.303C147.349 213.56 147.446 216.11 147.323 218.342C146.743 218.412 145.315 218.357 144.659 218.347C143.102 218.335 141.73 218.368 140.177 218.429C140.065 218.07 140.078 217.353 140.065 216.943C140.203 216.128 140.055 212.223 140.045 211.113Z" fill="#97B8F5" fill-opacity="0.854902"/>
<path d="M228.367 203.129C228.768 201.188 227.94 197.522 229.179 196.415C230.518 196.02 233.694 196.627 235.039 196.961C235.915 198.193 234.706 202.214 234.53 203.675C234.858 203.941 235.134 204.165 235.361 204.35L228.594 204.307L228.251 204.621L228.178 204.46L228.367 203.129Z" fill="#617FC5" fill-opacity="0.823529"/>
<path d="M104.268 204.246C107.638 204.206 112.514 204.402 115.64 204.213C115.606 205.739 115.491 208.053 115.789 209.518L114.93 208.973L114.408 209.124C114.268 209.739 114.234 209.481 114.661 210.109C115.118 210.21 115.117 210.234 115.596 210.134L115.634 210.432L116.098 211.142L115.246 210.835C113.145 210.663 110.127 210.723 107.956 210.709C107.855 208.668 107.719 206.628 107.548 204.59C106.453 204.621 105.351 204.412 104.268 204.246Z" fill="#5879CA" fill-opacity="0.505882"/>
<path d="M179.998 233.041C182.3 232.905 185.416 232.841 187.687 233.114L187.437 233.135C185.945 233.258 182.03 232.975 181.332 233.66C182.298 234.684 185.876 234.227 187.337 234.058C188.673 235.611 186.899 238.25 188.381 239.929C185.064 240.145 177.562 240.308 174.232 240.148C175.852 239.833 178.287 239.925 180.011 239.934C180.4 236.946 179.819 235.346 179.998 233.041Z" fill="#97B8F5" fill-opacity="0.556863"/>
<path d="M124.339 211.123C126.581 210.988 128.828 211.124 130.852 211.005L131.589 211.185C131.763 211.946 131.924 217.295 131.822 218.096C131.67 217.784 131.657 217.342 131.349 216.725L130.824 216.624L130.545 216.898C130.621 217.324 130.726 217.557 130.494 217.926C129.206 218.279 126.269 218.017 124.929 217.786C123.515 216.827 124.83 212.839 124.339 211.123Z" fill="#5E78BC" fill-opacity="0.196078"/>
<path d="M27.805 197.001C29.2682 196.982 33.6708 196.849 34.8647 197.102C35.1285 198.786 34.904 200.835 35.178 202.113L34.2952 201.977L34.0003 202.287L34.1862 203.636C32.6441 203.659 29.9364 203.585 28.5691 204.089C27.8719 204.025 27.7201 204.036 27.1701 203.659C26.5732 202.821 26.738 201.569 26.7518 200.537C26.9745 200.959 27.1703 201.577 27.334 202.035L27.5524 202.095C27.5951 201.197 27.6189 200.215 27.7591 199.333L27.7823 199.196C27.9971 198.555 27.857 197.697 27.805 197.001Z" fill="#7A95D0" fill-opacity="0.247059"/>
<path d="M115.919 204.132C118.514 204.267 121.174 204.078 123.637 204.257C123.764 206.209 123.856 208.369 124.07 210.298C122.147 209.674 118.962 210.187 116.459 209.978L115.635 210.432L115.597 210.134L115.789 209.518C115.491 208.053 115.606 205.739 115.641 204.213L115.919 204.132Z" fill="#A4BEF2" fill-opacity="0.701961"/>
<path d="M35.1875 204.251C37.4596 204.29 40.5974 204.375 42.8408 204.255C43.1348 205.206 43.0494 207.826 43.0488 208.95L42.8665 208.969C42.2193 209.581 42.9557 209.636 42.4444 210.504C40.9691 210.519 36.1983 210.933 35.4984 210.632C35.3317 210.386 35.3477 205.457 35.1875 204.251Z" fill="#7C99DC" fill-opacity="0.027451"/>
<path d="M225.664 211.122L226.8 211.179C226.365 213.168 227.398 215.822 225.862 216.553C225.607 216.674 224.528 217.173 224.487 217.211C225.145 217.359 225.632 217.421 226.289 217.506L226.433 217.837L225.883 218.02C226.4 217.966 227.585 218.135 228.256 218.149C226.194 218.492 222.621 218.394 220.418 218.385C220.418 216.991 219.688 213.206 220.031 212.082C220.848 211.196 224.114 211.265 225.664 211.122Z" fill="#A0C2CB" fill-opacity="0.74902"/>
<path d="M59.2592 204.341C60.7724 204.338 65.8673 204.485 66.9977 204.406C66.9912 205.932 66.8789 208.826 67.2103 210.203C65.8414 209.499 61.0635 210.08 59.1699 210.186C59.3222 208.889 59.3028 205.745 59.1997 204.448L59.2592 204.341Z" fill="#9CB8F2" fill-opacity="0.870588"/>
<path d="M144.661 218.346C145.316 218.357 146.744 218.412 147.324 218.342L147.557 218.438L147.606 218.659C147.5 220.398 147.582 221.8 147.672 223.54C147.375 223.044 147.286 222.662 146.812 222.485C146.473 223.156 146.498 224.443 146.746 225.095C145.601 225.509 145.456 225.253 144.705 225.441C143.507 225.596 141.715 225.478 140.461 225.434C140.993 223.835 140.808 221.493 140.988 219.939C141.097 219.001 143.303 219.726 144.491 219.177L144.661 218.346Z" fill="#617FC5" fill-opacity="0.329412"/>
<path d="M51.6009 211.174C53.6283 210.858 57.0291 210.964 59.1927 211.001C60.494 211.006 63.308 210.958 64.4849 211.087C63.8234 211.381 54.6594 211.235 52.979 211.372C51.5868 221.05 56.9869 216.32 64.0117 216.827L63.7504 217.626C64.2392 218.07 64.7322 218.029 65.454 218.102L65.441 218.287C61.5616 218.223 56.5054 217.991 52.7683 218.389L51.9883 218.337C51.1025 217.324 51.2543 212.455 51.6009 211.174Z" fill="#9FBFDA" fill-opacity="0.443137"/>
<path d="M-11.1621 182.149C-12.6418 182.107 -14.2626 181.901 -15.7441 181.745C-15.064 181.696 -14.3844 181.639 -13.7058 181.573L-13.1374 180.906C-11.2095 180.786 1.38398 180.554 2.44344 181.051L2.68775 182.191C-0.815303 182.071 -5.30911 182.001 -8.7916 182.158L-11.1621 182.149Z" fill="#9EBBF6" fill-opacity="0.909804"/>
<path d="M65.8236 125.269C65.9714 125.292 66.3082 125.242 66.4556 125.227L66.9424 124.359L66.9232 131.348C65.0242 131.834 54.4593 132.154 51.8098 132.13L51.2246 131.687C55.6859 130.324 60.6543 131.983 64.7187 130.774C65.4787 129.522 64.9682 126.808 65.8236 125.269Z" fill="#9CB8F2" fill-opacity="0.431373"/>
<path d="M-5.90965 182.381C-3.70387 182.323 0.351101 182.444 2.51224 182.657C-0.663453 183.901 -5.15428 181.406 -4.51741 185.888C-4.37185 186.911 -5.41969 188.615 -5.00764 189.422L-5.78898 189.451C-6.32846 189.332 -6.86874 189.216 -7.4101 189.105C-7.02917 188.807 -6.74943 188.616 -6.34063 188.35C-6.0901 187.513 -6.41611 184.658 -6.47591 183.59C-7.77562 182.287 -10.5458 183.498 -12.1855 182.981C-10.8953 182.267 -7.78022 182.826 -5.90965 182.381Z" fill="#9EBBF6" fill-opacity="0.529412"/>
<path d="M226.799 211.179C227.462 211.257 227.679 211.343 228.252 211.098C228.139 213.735 228.201 215.565 228.255 218.149C227.584 218.135 226.399 217.966 225.882 218.02L226.432 217.837L226.288 217.506C225.631 217.421 225.144 217.359 224.486 217.211C224.527 217.173 225.606 216.674 225.861 216.553C227.397 215.822 226.364 213.168 226.799 211.179Z" fill="#A0C2CB" fill-opacity="0.807843"/>
<path d="M-18.3776 189.42C-19.1454 189.324 -19.5962 189.321 -20.2793 188.983L-20.2046 188.69C-17.6117 188.216 -15.3718 188.339 -12.8657 188.985L-12.8877 189.347C-11.8774 189.605 -7.20101 189.424 -5.78794 189.45L-5.0066 189.422C-2.67718 189.446 5.44386 189.39 7.31307 189.646C3.75456 189.873 -0.677019 189.715 -4.3286 189.736C-6.66803 189.75 -10.8209 189.848 -13.0032 189.662C-13.8473 189.495 -17.3136 189.45 -18.3776 189.42Z" fill="#5879CA" fill-opacity="0.411765"/>
<path d="M188.212 232.971L188.404 232.982C188.029 234.015 188.268 238.684 188.381 239.929C186.9 238.25 188.673 235.611 187.337 234.058C185.876 234.227 182.298 234.684 181.332 233.661C182.031 232.976 185.945 233.258 187.437 233.136L187.687 233.114L188.212 232.971Z" fill="#97B8F5" fill-opacity="0.47451"/>
<path d="M140.178 218.429C141.73 218.368 143.103 218.335 144.66 218.347L144.49 219.177C143.301 219.726 141.096 219.001 140.987 219.939C140.807 221.493 140.992 223.835 140.46 225.434C139.975 224.382 140.457 220.126 140.178 218.429Z" fill="#617FC5" fill-opacity="0.290196"/>
<path d="M59.1699 210.186C61.0635 210.08 65.8414 209.5 67.2103 210.203L66.758 211.031L64.4846 211.087C63.3077 210.958 60.4937 211.006 59.1924 211.001L59.1699 210.186Z" fill="#9CB8F2" fill-opacity="0.901961"/>
<path d="M115.635 210.432L116.459 209.978C118.962 210.187 122.147 209.674 124.07 210.298L123.753 210.875C121.446 211.296 118.537 210.883 116.098 211.142L115.635 210.432Z" fill="#9FBFDA" fill-opacity="0.729412"/>
<path d="M124.105 211.117L124.337 211.123C124.828 212.839 123.514 216.827 124.927 217.786C126.268 218.017 129.205 218.279 130.493 217.926C130.724 217.557 130.62 217.324 130.543 216.898L130.823 216.624L131.348 216.725C131.655 217.342 131.669 217.784 131.821 218.096L131.973 218.396L124.062 218.493C124.073 216.158 123.709 213.365 124.105 211.117Z" fill="#5E78BC" fill-opacity="0.133333"/>
<path d="M132.75 8.65414C133.83 8.53543 139.713 8.3505 140.383 8.73375C138.997 9.7825 134.444 9.45773 132.568 9.31066C132.162 9.27834 131.755 9.24102 131.35 9.19871L132.75 8.65414Z" fill="#5879CA" fill-opacity="0.878431"/>
<path d="M34.1874 203.636L34.0016 202.287L34.2965 201.977L35.1793 202.113C35.1784 202.6 35.1392 203.827 35.1874 204.251C34.7669 204.034 29.472 204.124 28.5703 204.089C29.9377 203.585 32.6453 203.659 34.1874 203.636Z" fill="#5E78BC" fill-opacity="0.211765"/>
<path d="M51.1112 134.833C51.431 138.557 51.9623 135.949 53.7112 138.275L53.6798 138.677C52.9344 138.802 52.7843 138.787 52.0267 138.72L51.4743 138.961L51.2113 138.942C51.0319 137.72 51.1015 136.094 51.1112 134.833Z" fill="#9CB8F2" fill-opacity="0.627451"/>
<path d="M144.705 225.441C145.456 225.253 145.601 225.509 146.746 225.095C146.499 224.443 146.473 223.156 146.812 222.485C147.286 222.662 147.375 223.044 147.672 223.54L147.639 225.425C146.818 225.608 145.493 225.749 144.705 225.441Z" fill="#5E78BC" fill-opacity="0.290196"/>
<path d="M64.7832 139.065L64.8473 138.652C66.1925 137.904 65.6668 137.328 66.9113 136.851C66.8818 137.554 66.8745 138.54 66.8009 139.214C66.3521 139.11 65.2924 139.089 64.7832 139.065Z" fill="#A4BEF2" fill-opacity="0.619608"/>
<path d="M26.8586 198.31L27.7825 199.196L27.7592 199.333C27.6191 200.215 27.5953 201.197 27.5525 202.095L27.3342 202.035C27.1705 201.577 26.9746 200.959 26.752 200.537L26.8586 198.31Z" fill="#7A95D0" fill-opacity="0.258824"/>
<path d="M64.0114 216.827C64.7167 216.975 65.6495 217.085 66.1728 217.476L66.1097 217.816L65.4536 218.102C64.7318 218.029 64.2389 218.069 63.75 217.626L64.0114 216.827Z" fill="#9FBFDA" fill-opacity="0.521569"/>
<path d="M26.3418 196.966L26.5747 196.975L27.8057 197.001C27.8577 197.697 27.9978 198.555 27.783 199.196L26.8591 198.31C26.7914 197.623 26.7579 197.546 26.3418 196.966Z" fill="#7A95D0" fill-opacity="0.32549"/>
<path d="M43.1523 211.026C43.6983 209.899 43.6093 209.681 45.1944 209.931L45.5894 210.293L45.4964 210.661L44.0909 211.001L43.1523 211.026Z" fill="#A0C2CB" fill-opacity="0.796078"/>
<path d="M139.432 218.359C139.313 217.382 139.205 216.675 139.41 215.71L139.645 215.77L140.067 216.943C140.08 217.353 140.066 218.07 140.179 218.429L139.432 218.359Z" fill="#9FBFDA" fill-opacity="0.435294"/>
<path d="M163.951 240.05C164.295 239.281 164.354 238.748 164.998 238.333C165.279 239.012 165.073 239.458 164.88 240.153C164.6 240.175 164.243 240.095 163.951 240.05Z" fill="#617FC5" fill-opacity="0.32549"/>
<path d="M115.595 210.134C115.116 210.234 115.118 210.21 114.66 210.109C114.233 209.481 114.267 209.739 114.407 209.124L114.929 208.973L115.788 209.518L115.595 210.134Z" fill="#5879CA" fill-opacity="0.454902"/>
<path d="M172.015 239.982C171.962 238.423 172.06 236.798 172.131 235.235C173.678 233.65 174.003 234.14 176.362 234L176.38 239.979L172.015 239.982Z" fill="#215600" fill-opacity="0.772549"/>
</svg>
