<svg width="98" height="70" viewBox="0 0 98 70" fill="none" xmlns="http://www.w3.org/2000/svg">
<g clip-path="url(#clip0_2413_13776)">
<path d="M35.0161 0.936279C38.132 1.05999 42.0671 0.945166 45.2268 0.944462L69.0394 0.954504C69.036 2.81302 69.0449 4.67155 69.0661 6.52996C70.9863 6.59637 72.8908 6.52624 74.7973 6.5776C74.7481 8.36332 74.7652 10.4875 74.811 12.2781C76.6799 12.3516 78.5455 12.2658 80.3919 12.3282C80.3837 13.2548 80.3331 17.2126 80.4698 17.9094L80.4137 18.0429C80.3194 19.7259 80.3932 21.9306 80.3898 23.6697L80.3864 34.9918L69.4837 34.9904C67.6583 34.99 65.6454 35.0331 63.8322 34.9831C63.3313 35.0221 62.293 34.9902 61.7589 34.9903L57.6974 34.9957C57.6885 36.7249 57.6242 38.9164 57.6955 40.6102C57.6961 42.5096 57.717 44.4454 57.6963 46.3415C57.6886 48.1449 57.6316 50.3006 57.7005 52.0875L57.7014 57.6986C57.6879 58.9253 57.6844 60.152 57.6907 61.3787C57.6913 61.9367 57.7177 62.9302 57.6609 63.4565C56.3562 63.3872 54.6762 63.4335 53.354 63.4324L45.3322 63.4288L35.0498 63.4293C33.1916 63.4303 31.1315 63.3941 29.2856 63.4522C29.2366 63.0895 29.2588 61.9539 29.2584 61.5391L29.2628 57.6945C26.0504 57.6442 22.8238 57.7215 19.61 57.6964C19.0284 57.6919 18.4467 57.7127 17.8667 57.6609L17.7844 57.7163C17.7515 56.9382 17.8004 52.5902 17.6198 52.2145C17.3185 52.1211 16.9153 52.1299 16.5987 52.1328C15.2523 52.1455 13.9061 52.1807 12.5597 52.1446C12.5244 52.1716 12.4892 52.1986 12.4539 52.2255L12.3158 52.1614L12.2834 52.0937C12.2858 51.4031 12.3843 47.0551 12.152 46.701C11.4352 46.5023 7.68865 46.569 6.71628 46.5746C6.73703 46.9624 6.73433 48.2425 6.67161 48.613C6.67197 48.3742 6.71307 47.9193 6.58395 47.7341C6.56878 47.3405 6.57439 46.9498 6.57693 46.556L6.56758 46.3457C6.55843 44.4267 6.55892 42.5076 6.56906 40.5885L6.55919 35.0325L6.53575 34.9813C6.7695 31.5044 6.36895 27.1208 6.60476 23.6408C6.89555 23.6641 7.2288 23.6654 7.52131 23.66C9.06254 23.6314 10.6794 23.7328 12.2118 23.6192L12.3073 23.6494L17.907 23.6457L17.9028 17.9033L23.6428 17.8994L23.6358 12.331L23.5839 12.3008C23.7435 11.0822 23.6549 7.97333 23.6493 6.61005C24.9334 6.54616 26.364 6.57099 27.6588 6.56809L34.9893 6.55638C35.0453 4.72537 35.0167 2.77733 35.0161 0.936279Z" fill="#CDAB00"/>
<path d="M35.0162 0.936279C38.1321 1.05999 42.0671 0.945166 45.2269 0.944462L69.0395 0.954504C69.0361 2.81302 69.0449 4.67155 69.0661 6.52996C70.9864 6.59637 72.8908 6.52624 74.7974 6.5776C74.7482 8.36332 74.7653 10.4875 74.8111 12.2781C76.68 12.3516 78.5455 12.2658 80.3919 12.3282C80.3837 13.2548 80.3331 17.2126 80.4699 17.9094L80.4138 18.0429C80.3195 19.7259 80.3933 21.9306 80.3899 23.6697L80.3865 34.9918L69.4838 34.9904C67.6584 34.99 65.6455 35.0331 63.8323 34.9831C63.3313 35.0221 62.293 34.9902 61.759 34.9903L57.6974 34.9957L57.694 29.2523L51.9552 29.2535C51.9766 24.4821 51.8869 19.606 51.9677 14.8482C51.9454 14.0233 51.9569 13.1369 51.9522 12.3069C50.0831 12.2977 48.214 12.2993 46.3449 12.3116C45.299 12.2508 43.6458 12.3054 42.5626 12.3057L35.0014 12.3055L27.0837 12.3042C26.5303 12.3039 24.0013 12.2718 23.6359 12.331L23.584 12.3008C23.7435 11.0822 23.6549 7.97333 23.6493 6.61005C24.9335 6.54616 26.3641 6.57099 27.6589 6.56809L34.9894 6.55638C35.0454 4.72537 35.0167 2.77733 35.0162 0.936279Z" fill="#CCCCCC"/>
<path d="M35.0162 0.936279C38.1321 1.05999 42.0671 0.945166 45.2269 0.944462L69.0395 0.954504C69.0361 2.81302 69.0449 4.67155 69.0661 6.52996C70.9864 6.59637 72.8908 6.52624 74.7974 6.5776C74.7482 8.36332 74.7653 10.4875 74.8111 12.2781C76.68 12.3516 78.5455 12.2658 80.3919 12.3282C80.3837 13.2548 80.3331 17.2126 80.4699 17.9094L80.4138 18.0429C80.3858 18.0154 80.3516 17.9824 80.3119 17.944C78.7315 17.8737 76.2637 17.9074 74.7858 17.9082L74.7824 12.3158L69.0374 12.312V6.57531C65.282 6.53257 61.4596 6.56831 57.6987 6.56792L57.705 12.3091L51.9522 12.3069C50.0831 12.2977 48.214 12.2993 46.3449 12.3116C45.299 12.2508 43.6458 12.3054 42.5626 12.3057L35.0014 12.3055L27.0837 12.3042C26.5303 12.3039 24.0013 12.2718 23.6359 12.331L23.584 12.3008C23.7435 11.0822 23.6549 7.97333 23.6493 6.61005C24.9335 6.54616 26.3641 6.57099 27.6589 6.56809L34.9894 6.55638C35.0454 4.72537 35.0167 2.77733 35.0162 0.936279Z" fill="black"/>
<path d="M35.002 6.57458L51.956 6.56616L51.9528 12.3069C50.0837 12.2977 48.2147 12.2993 46.3456 12.3115C45.2997 12.2508 43.6465 12.3054 42.5632 12.3057L35.002 12.3055L35.002 6.57458Z" fill="#FEDD67"/>
<path d="M51.968 14.8481C52.0621 15.0995 52.0186 17.4802 52.0153 17.9074C53.9095 17.913 55.8036 17.9082 57.6977 17.8927L57.6971 25.2492C57.6971 26.4526 57.7451 28.079 57.6754 29.2562C59.5089 29.2534 61.4933 29.296 63.31 29.2452C63.302 30.6679 63.2076 33.5426 63.3325 34.8506C63.5004 34.9956 63.6724 34.894 63.8326 34.9831C63.3317 35.0221 62.2933 34.9902 61.7593 34.9902L57.6977 34.9956L57.6943 29.2523L51.9556 29.2535C51.977 24.4821 51.8872 19.606 51.968 14.8481Z" fill="#AABADC"/>
<path d="M69.0494 17.9053L74.7868 17.9082L74.7882 29.26L69.0371 29.2651C69.0932 25.5237 69.0296 21.6609 69.0494 17.9053Z" fill="black"/>
<path d="M40.6086 46.3456L46.3488 46.3428C48.1297 46.3428 50.1969 46.2907 51.9538 46.3525C53.7979 46.3534 55.8629 46.3974 57.6968 46.3416C57.689 48.1449 57.632 50.3006 57.7009 52.0875L57.7018 57.6986C57.6884 58.9253 57.6848 60.1521 57.6911 61.3787C57.6918 61.9367 57.7182 62.9302 57.6613 63.4566C56.3567 63.3872 54.6767 63.4335 53.3545 63.4324L45.3327 63.4289L35.0502 63.4293C33.1921 63.4303 31.132 63.3941 29.286 63.4522C29.237 63.0895 29.2592 61.954 29.2589 61.5391L29.2632 57.6945C26.0508 57.6442 22.8243 57.7215 19.6105 57.6964C19.0288 57.6919 18.4471 57.7127 17.8672 57.6609C18.0396 56.8912 17.9068 53.1277 17.9051 52.0955L35.0126 52.0921L35.0024 46.3516L40.6086 46.3456Z" fill="#E43909"/>
<path d="M57.6971 46.3416C57.6894 48.1449 57.6324 50.3006 57.7013 52.0875C55.8195 52.0549 53.8429 52.0859 51.9531 52.0855C51.9865 50.2106 51.9544 48.2356 51.9542 46.3525C53.7982 46.3534 55.8632 46.3974 57.6971 46.3416Z" fill="#E43909"/>
<path d="M51.9526 52.0854C53.8423 52.0858 55.8189 52.0548 57.7007 52.0875L57.7016 57.6986C55.846 57.7423 53.8203 57.707 51.9509 57.7024C51.9403 55.8301 51.9409 53.9577 51.9526 52.0854Z" fill="black"/>
<path d="M46.3486 46.3428C48.1295 46.3428 50.1967 46.2907 51.9536 46.3525C51.9538 48.2356 51.986 50.2106 51.9526 52.0855C50.094 52.1098 48.2067 52.0931 46.3457 52.0915L46.3486 46.3428Z" fill="black"/>
<path d="M6.56055 35.0325C6.90367 34.9738 8.71034 34.9985 9.16302 34.9989L14.7433 35.0046L34.9994 35.0053L34.9996 40.5915C34.9972 42.4678 34.9572 44.4868 35.0033 46.3516L35.0135 52.092L17.906 52.0954C17.9078 53.1276 18.0405 56.8911 17.8681 57.6609L17.7857 57.7162C17.7528 56.9382 17.8017 52.5902 17.6211 52.2145C17.3199 52.1211 16.9166 52.1298 16.6001 52.1328C15.2536 52.1455 13.9075 52.1807 12.561 52.1446C12.5258 52.1715 12.4905 52.1985 12.4553 52.2255L12.3172 52.1614L12.2847 52.0937C12.2871 51.403 12.3856 47.0551 12.1533 46.7009C11.4365 46.5023 7.69001 46.569 6.71764 46.5746C6.73839 46.9623 6.73568 48.2424 6.67296 48.613C6.67333 48.3742 6.71443 47.9192 6.58531 47.7341C6.57014 47.3404 6.57574 46.9498 6.57829 46.556L6.56893 46.3457C6.55978 44.4266 6.56028 42.5076 6.57041 40.5885L6.56055 35.0325Z" fill="#FEDD67"/>
<path d="M6.56836 46.3457C8.48814 46.356 10.408 46.3556 12.3278 46.3445L29.2463 46.3424C31.1651 46.3352 33.0839 46.3383 35.0028 46.3515L35.0129 52.092L17.9054 52.0954C17.9072 53.1276 18.0399 56.8911 17.8675 57.6608L17.7852 57.7162C17.7523 56.9381 17.8012 52.5901 17.6205 52.2144C17.3193 52.1211 16.916 52.1298 16.5995 52.1328C15.2531 52.1455 13.9069 52.1807 12.5604 52.1446C12.5252 52.1715 12.49 52.1985 12.4547 52.2255L12.3166 52.1613L12.2841 52.0937C12.2865 51.403 12.385 47.0551 12.1528 46.7009C11.4359 46.5023 7.68943 46.569 6.71706 46.5746C6.73781 46.9623 6.73511 48.2424 6.67239 48.613C6.67275 48.3742 6.71386 47.9192 6.58473 47.734C6.56956 47.3404 6.57517 46.9497 6.57771 46.556L6.56836 46.3457Z" fill="black"/>
<path d="M6.57049 40.5885C8.4823 40.6093 10.3943 40.6125 12.3062 40.5981C12.3045 42.4512 12.262 44.5081 12.3285 46.3445C10.4087 46.3556 8.4888 46.356 6.56901 46.3457C6.55986 44.4266 6.56036 42.5076 6.57049 40.5885Z" fill="#CDAB00"/>
<path d="M34.9989 40.5914C34.9964 42.4678 34.9564 44.4868 35.0026 46.3515C33.0837 46.3383 31.1649 46.3352 29.2461 46.3424C29.2902 44.4688 29.2585 42.4777 29.2595 40.5953C31.1726 40.6076 33.0858 40.6063 34.9989 40.5914Z" fill="#CDAB00"/>
<path d="M6.60476 23.6408C6.89555 23.6641 7.2288 23.6654 7.52131 23.66C9.06254 23.6314 10.6794 23.7328 12.2118 23.6191L12.3073 23.6494L12.3078 27.3985C12.3061 27.8647 12.3284 28.8429 12.2767 29.2597L35.0014 29.255L34.9981 35.0053L14.742 35.0046L9.16166 34.9989C8.70898 34.9985 6.90231 34.9738 6.55919 35.0325L6.53575 34.9813C6.7695 31.5044 6.36895 27.1208 6.60476 23.6408Z" fill="black"/>
<path d="M12.2125 23.6191L12.308 23.6494L12.3085 27.3985C12.3068 27.8647 12.3291 28.8429 12.2774 29.2597C12.0169 28.8248 12.0052 24.1366 12.2125 23.6191Z" fill="black"/>
<path d="M23.6373 12.3309C24.0026 12.2717 26.5317 12.3038 27.0851 12.3041L35.0028 12.3054C35.002 14.1404 34.968 16.0792 35.0036 17.9051C31.2442 17.9056 27.4006 17.9498 23.6488 17.9054L23.6568 23.6499C21.7541 23.6486 19.8071 23.6699 17.9085 23.6456L17.9043 17.9032L23.6443 17.8993L23.6373 12.3309Z" fill="#FEDD67"/>
<path d="M46.3457 12.3115C48.2148 12.2993 50.0839 12.2977 51.9529 12.3069C51.9577 13.1368 51.9462 14.0233 51.9685 14.8482C51.8877 19.606 51.9774 24.4821 51.956 29.2535C50.2107 29.3181 48.1208 29.2667 46.3479 29.2703L46.3457 12.3115Z" fill="black"/>
<path d="M34.9987 35.0053L40.6096 34.9967L40.6087 46.3455L35.0026 46.3515C34.9564 44.4868 34.9964 42.4678 34.9989 40.5914L34.9987 35.0053Z" fill="black"/>
<path d="M51.9526 40.6017C53.867 40.5934 55.7814 40.5962 57.6958 40.6102C57.6964 42.5096 57.7173 44.4454 57.6966 46.3415C55.8627 46.3974 53.7977 46.3533 51.9537 46.3525C51.9241 44.4555 51.9493 42.5028 51.9526 40.6017Z" fill="black"/>
<path d="M51.9562 29.2536L57.695 29.2523L57.6984 34.9957L51.9531 35.0083L51.9562 29.2536Z" fill="black"/>
<path d="M80.4716 17.9094C82.2605 17.9232 84.3441 17.977 86.1235 17.9076L86.1385 34.9944C86.2069 35.3506 86.1597 35.8167 86.1727 36.1824C86.2131 37.3361 86.0121 39.1749 86.2397 40.2467C87.7245 40.4178 90.18 40.5609 91.6135 40.2515L91.7433 40.4705L91.731 40.5559L91.7249 40.5959L57.6973 40.6102C57.626 38.9164 57.6903 36.7249 57.6991 34.9957L61.7607 34.9903C62.2947 34.9902 63.333 35.0221 63.834 34.9831C65.6472 35.0331 67.6601 34.9901 69.4855 34.9904L80.3882 34.9918L80.3916 23.6697C80.395 21.9306 80.3212 19.726 80.4155 18.0429L80.4716 17.9094Z" fill="black" fill-opacity="0.988235"/>
<path d="M91.7406 46.3304L91.7857 46.3406C91.6921 46.9074 91.7153 48.2029 91.7153 48.8169V52.9839L91.7146 55.9766C91.7126 56.4229 91.6798 57.2869 91.7324 57.6985C90.9709 57.6949 86.4059 57.5639 86.1598 57.837C86.1529 57.8447 86.1481 57.8541 86.142 57.8626L86.1331 57.7009L86.1379 52.0825C82.0288 52.1395 77.7987 52.0923 73.6821 52.0933L57.7016 52.0874C57.6327 50.3005 57.6897 48.1448 57.6974 46.3414L81.4566 46.346L88.3015 46.3549C89.0671 46.3569 91.0789 46.41 91.7406 46.3304Z" fill="black" fill-opacity="0.984314"/>
<path d="M57.6973 40.6102L91.7249 40.5958C91.8069 42.3432 91.7454 44.5522 91.7413 46.3305C91.0795 46.4101 89.0677 46.3569 88.3021 46.355L81.4573 46.346L57.6981 46.3415C57.7188 44.4453 57.6979 42.5095 57.6973 40.6102Z" fill="#E43909"/>
<path d="M57.7012 52.0875L73.6817 52.0934C77.7983 52.0924 82.0284 52.1396 86.1374 52.0826L86.1327 57.701L57.7021 57.6986L57.7012 52.0875Z" fill="#E43909"/>
<path d="M86.1332 57.701L86.1421 57.8627L86.1401 58.0995C86.0389 58.0201 85.8243 57.8614 85.7039 57.8603C84.3771 57.8491 81.6844 57.7458 80.4868 57.8778C80.3637 59.3578 80.4321 61.7224 80.4362 63.2693C81.7056 63.3283 83.0202 63.3149 84.2971 63.3355C83.6901 63.3381 80.7629 63.2819 80.35 63.4256C78.3656 63.5651 58.087 63.2854 57.7271 63.5414L57.6621 63.4565C57.719 62.9302 57.6926 61.9367 57.6919 61.3787C57.6856 60.152 57.6892 58.9252 57.7026 57.6986L86.1332 57.701Z" fill="black" fill-opacity="0.988235"/>
<path d="M57.6624 63.4565L57.7274 63.5414L57.7173 63.6477C57.407 63.6764 57.0664 63.5817 56.7854 63.6058C55.7467 63.6949 53.0739 63.383 52.1726 63.6715C51.7278 64.2024 52.181 68.6834 51.957 69.0477C49.9299 69.166 47.5257 69.0874 45.4673 69.099C42.4999 69.1147 39.5111 69.1051 36.5427 69.0942C34.2443 69.0867 31.556 68.911 29.2859 69.0669L29.252 63.5436L29.2872 63.4521C31.1331 63.3941 33.1932 63.4302 35.0514 63.4292L45.3338 63.4288L53.3556 63.4323C54.6778 63.4334 56.3578 63.3872 57.6624 63.4565Z" fill="black" fill-opacity="0.988235"/>
<path d="M17.7852 57.7163L17.8675 57.6609C18.4475 57.7127 19.0292 57.6919 19.6108 57.6964C22.8246 57.7215 26.0512 57.6442 29.2636 57.6945L29.2592 61.5391C29.2596 61.9539 29.2373 63.0895 29.2863 63.4522L29.2511 63.5437C28.5029 63.3922 26.5022 63.4556 25.5995 63.4519C23.0364 63.4322 20.4732 63.4276 17.91 63.4379C17.9423 62.7666 17.953 58.0054 17.7852 57.7163Z" fill="black" fill-opacity="0.964706"/>
<path d="M6.53752 34.9813L6.56096 35.0325L6.57082 40.5886C6.56069 42.5076 6.56019 44.4267 6.56935 46.3457L6.5787 46.5561C6.22558 46.1772 1.61442 46.3243 0.848616 46.3755C0.789314 43.6425 0.86224 40.8863 0.827404 38.151C0.814129 37.1087 0.818312 36.0475 0.850045 35.0065C2.54585 35.0321 4.88538 35.0677 6.53752 34.9813Z" fill="black" fill-opacity="0.976471"/>
<path d="M91.7308 40.5558C93.2593 40.7332 95.8145 40.5738 97.4716 40.6349C97.3875 42.5215 97.4948 44.4593 97.4073 46.3698C96.1112 46.3121 94.8151 46.3539 93.5197 46.3507C93.1342 46.3498 92.1184 46.3991 91.7861 46.3406L91.741 46.3304C91.7451 44.5521 91.8066 42.3432 91.7246 40.5958L91.7308 40.5558Z" fill="black" fill-opacity="0.972549"/>
<path d="M17.8601 17.8668L17.9039 17.9033L17.9081 23.6457L12.3084 23.6494L12.2129 23.6191C12.4033 23.3654 12.3249 18.5481 12.3251 17.8977C12.8544 17.9597 17.356 17.9592 17.8601 17.8668Z" fill="#010000" fill-opacity="0.937255"/>
<path d="M80.4863 57.8778C81.684 57.7458 84.3767 57.8491 85.7035 57.8604C85.8238 57.8615 86.0385 58.0201 86.1396 58.0995C86.1157 59.8789 86.1123 61.6585 86.128 63.4379C84.2796 63.424 82.1509 63.4911 80.3496 63.4256C80.7625 63.2819 83.6896 63.3381 84.2967 63.3355C83.0197 63.315 81.7052 63.3283 80.4357 63.2693C80.4316 61.7224 80.3633 59.3578 80.4863 57.8778Z" fill="#010000" fill-opacity="0.847059"/>
<path d="M6.71616 46.5747C7.68853 46.5691 11.435 46.5023 12.1519 46.701C12.3841 47.0552 12.2856 51.4031 12.2832 52.0937C11.0956 52.0619 7.71636 52.0129 6.58867 52.1165C6.57118 50.6558 6.56957 49.1949 6.58383 47.7341C6.71296 47.9193 6.67185 48.3742 6.67149 48.6131C6.73421 48.2425 6.73692 46.9624 6.71616 46.5747Z" fill="black" fill-opacity="0.933333"/>
<path d="M51.957 69.0477C52.181 68.6834 51.7278 64.2024 52.1726 63.6715C53.0739 63.383 55.7467 63.6949 56.7854 63.6058C57.0664 63.5817 57.407 63.6764 57.7173 63.6477C57.6432 65.4122 57.7584 67.3298 57.6572 69.0265C55.7942 69.0163 53.8154 68.9889 51.957 69.0477Z" fill="black" fill-opacity="0.870588"/>
<path d="M23.5843 12.3007L23.6362 12.3309L23.6432 17.8993L17.9032 17.9032L17.8594 17.8668C18.0197 16.1751 17.7647 14.0994 17.929 12.4523C18.0529 12.3162 18.0984 12.3521 18.3205 12.3239L18.2405 12.4699C18.5405 12.6736 22.1684 12.5973 22.929 12.6433C23.071 12.5679 23.126 12.547 23.2423 12.4387L23.2017 12.3787C22.9192 12.3631 22.5321 12.4651 22.3712 12.3289C22.7756 12.3235 23.18 12.3141 23.5843 12.3007Z" fill="black" fill-opacity="0.890196"/>
<path d="M12.3159 52.1613L12.454 52.2254C12.4893 52.1985 12.5245 52.1715 12.5598 52.1446C13.9062 52.1807 15.2524 52.1455 16.5989 52.1327C16.9154 52.1298 17.3186 52.1211 17.6199 52.2144C17.8005 52.5901 17.7516 56.9381 17.7845 57.7162C16.1772 57.6402 13.9587 57.6683 12.3323 57.7051C12.3136 55.8573 12.3081 54.0093 12.3159 52.1613Z" fill="black" fill-opacity="0.917647"/>
<path d="M86.1383 34.9944C87.9868 35.0777 89.8926 34.9826 91.7404 35.0291C91.657 36.6444 91.7171 38.8207 91.7431 40.4705L91.6132 40.2514C90.1797 40.5608 87.7243 40.4177 86.2395 40.2466C86.0119 39.1749 86.2128 37.3361 86.1725 36.1823C86.1595 35.8166 86.2067 35.3506 86.1383 34.9944Z" fill="black" fill-opacity="0.905882"/>
<path d="M18.3203 12.324C19.6218 12.3237 21.083 12.2894 22.3709 12.329C22.5319 12.4652 22.919 12.3631 23.2015 12.3788L23.242 12.4387C23.1257 12.5471 23.0708 12.568 22.9287 12.6434C22.1682 12.5973 18.5403 12.6737 18.2402 12.47L18.3203 12.324Z" fill="black" fill-opacity="0.933333"/>
</g>
<defs>
<clipPath id="clip0_2413_13776">
<rect width="97.8906" height="70" fill="white"/>
</clipPath>
</defs>
</svg>
