<svg width="346" height="224" viewBox="0 0 346 224" fill="none" xmlns="http://www.w3.org/2000/svg">
<path d="M77 107.5H85.5V112H88.5V107.5H95.5V97H99.5V93H110.5V89H118.5V93H125.5V97H132.5V92.5H143.5V89H147.28V73.5H151V71H158.5V63H162.5V60H181V63.5H185.5V71H192V74H196V88.5H199.5V82H210.5V78.5H218.5V82H228.5V89H232.5V93H240.5V104.5H243.5V112H247.5V108H259V111H266.5V115H273.5V122H277.5V130.5H273.5V138H266.5V142H255.5V146H248.5V149.5H244.5V157H228V149H217.5V145.5H210.5V142.5H206.5V145.5H199.5V149.5H181V156H174V160H159V157H148V149H133V145.5H129V142H125.5V137.5H119V142H114.5V145.5H99.5V141H96.5V137.5H89V130.5H85.5V137.5H77V130.5H70.5V127H65V115H70.5V112.5H77V107.5Z" fill="#B6E6FB"/>
<path d="M77 112.5V115H70.5V112.5H77Z" fill="#86D7FB"/>
<path d="M66.5 116H70.5V123H77.5V127L88.5 127.5V126.5V115.5H85.5V112H88.5V107.5H95.5V97H99.5V93.5H104V97H100V98V115L114.5 115.5V111.5H126V116H118.5V122H114.5V125H100V122.73H96V126.5H100V130H103.5V137L119 137.5V142H114.5V145.5H114H99.5V141H96.5V137.5H89V130.5H85.5V137.5H77V130.5H70.5V126H66.5V116Z" fill="#86D7FB"/>
<path fill-rule="evenodd" clip-rule="evenodd" d="M133.5 137H125L125.5 142H129V145.5H133V149H148V149.5V157H159V160H174V156H181V149.5H199.5V145.725H206.5V142.5H210.5V145.725H217.5V149H228V157H244.5V149.5H248.5V145.725H255.5V142H266.5V138H273.5V130.5H277.5V126.5H272.5V130.5H255V126.5H248L247.5 141H244V145H229V141H218.5V137.5H210.5V130.5H215V126H210.5V130.5H207V126H198.5V130.5H207V141L181.5 141.5V138H178V126.5H174V122.5H165.5V126.5H174V141.5H163V145.5H148V141.5H133.5V137ZM166.5 149H159V155.5H173.5V148.5H181V145H177V142H174V145H166.5V149Z" fill="#86D7FB"/>
<path d="M133 94H144V96L136.5 96.5V108L146.5 108.5V114.5H136V112H129.5C129.5 110.5 129.6 107.5 130 107.5H125.5V97.5H133V94Z" fill="#86D7FB"/>
<path d="M162.5 64V71H160V64H162.5Z" fill="#86D7FB"/>
<path d="M159.5 74.5H152V81.5V82H159V93H163.5V97H184.5V93.5H192V89.5H199.5V93.5H192V97H184.5V104.5H181V108H162.5V104.5H159V97H151.5V93.5H148V75V74.5H152V71.5L159.5 71V74.5Z" fill="#86D7FB"/>
<path d="M240 104.5H243.5V115.5H240V123H233V127H225V123H233V115.5H240V104.5Z" fill="#86D7FB"/>
<path d="M84.5 115.5H77.5V123H81V126H84.5V115.5Z" fill="#DAF3FE"/>
<path d="M110 97H118.5V107.5H114V104.5H110V97Z" fill="#DAF3FE"/>
<path d="M132.5 115.5H136.5V126H129.5V123H132.5V115.5Z" fill="#DAF3FE"/>
<path d="M162 126H151.5V130H158.5V141H162V138H166.5V130H162V126Z" fill="#DAF3FE"/>
<path d="M151 104.5V97H144V104.5H148V108H151V112H159V104.5H157.5H151Z" fill="#DAF3FE"/>
<path d="M166.5 75H163V71H166.5V64H177.5V71.5H181.5V75H185.5V79H192V82.5H181V78.5H173.5V71H166.5V73V75Z" fill="#DAF3FE"/>
<path d="M180.5 111.5H185V115.5H192V108H196V104.5H200V108H196V112H199.5V116H196V126.5H185V118V116.5V115.5H180.5V111.5Z" fill="#DAF3FE"/>
<path d="M244.5 127V131H240V138H233V131H240V127H244.5V122H248V127H244.5Z" fill="#DAF3FE"/>
<path d="M264 115.5H254.5V123H261.5V126.5H271.5V123H264V115.5Z" fill="#DAF3FE"/>
</svg>
