<svg width="1440" height="459" viewBox="0 0 1440 459" fill="none" xmlns="http://www.w3.org/2000/svg">
<g clip-path="url(#clip0_2093_12022)">
<path d="M748.188 15.4618C748.5 13.9103 748.784 12.9719 749.252 11.4764C752.974 9.36681 758.22 10.2777 762.488 10.5534C773.059 10.8719 783.581 9.97945 794.081 10.4697L798.76 10.4777L807.204 10.5602C808.154 10.5504 810.402 10.5963 811.231 10.4817C813.663 10.3863 821.604 9.84347 823.248 10.9883C829.225 15.1417 826.85 15.2868 834.188 15.5757L836.967 15.9191L838.733 16.3551C839.236 18.1111 839.151 18.8814 839.115 20.7068C841.115 20.7201 843.866 20.8501 845.78 20.4729L847.921 21.3359C848.332 23.0194 848.417 23.3639 848.424 25.122L852.147 25.9307C854.096 29.215 852.352 29.7619 855.373 31.147C857.393 31.1259 859.591 30.9382 861.484 31.6576C862.498 33.2824 862.384 33.9844 862.377 36.0074L865.887 36.4818C866.979 38.0736 866.936 39.224 867.127 41.2551C869.46 41.2116 869.978 40.7024 871.374 42.1666C871.204 45.2949 870.92 44.1477 872.579 46.747C873.707 47.229 874.841 47.6047 875.735 48.5297C875.997 51.3501 875.883 53.1063 875.763 55.9039L875.451 62.4898L880.442 61.733C882.973 61.884 883.236 62.4267 884.824 60.8843L885.107 56.3549L887.816 56.23C887.319 54.6482 887.39 55.2354 888.035 53.402C889.978 51.5526 890.949 51.5496 893.388 51.2176L894.303 47.9341C899.727 45.0492 899.237 41.1397 907.135 40.6702C908.759 32.4574 916.643 38.0629 921.102 35.5948C922.35 34.9064 920.868 33.1911 925.718 31.4023L930.39 31.2872C943.676 31.8543 957.459 31.221 970.866 31.4541C971.298 34.7713 970.774 34.1084 972.546 35.9722C975.092 36.5536 976.623 36.3233 979.182 36.1348L985.088 36.2425C990.611 36.0305 992.093 35.2778 995.248 40.9356L998.098 41.5507C998.594 44.8392 998.084 44.9589 1000.04 46.5936L1005.76 47.1086L1006.33 46.7349L1010.61 46.7084C1012.36 48.6907 1010.78 49.4525 1013.54 51.2275C1017.89 54.0274 1025.3 53.2935 1025.75 60.8501L1025.34 61.8928L1029.81 61.98L1030.78 66.2756C1034.77 67.1462 1034.18 67.3198 1035.81 71.7688C1040.01 71.9382 1040.17 68.4601 1042.93 69.4286L1044.3 67.7386C1045.71 64.6392 1056.45 52.3215 1059.4 51.4348C1060.55 50.6909 1062.37 47.3163 1062.16 47.3768C1067.78 45.8221 1065.78 48.5059 1067.06 41.5359C1072 37.6156 1079.74 38.3089 1079.85 32.4293C1079.89 30.1506 1086.83 31.7991 1088.14 30.3721C1088.98 29.4612 1089.05 27.7233 1089.3 26.3262C1093.86 23.0668 1095.29 29.9067 1098.86 22.0587C1100.42 22.5395 1102.06 23.0838 1103.63 23.4777C1108.62 19.8165 1159.05 23.3378 1168.69 22.0227C1171.4 21.6549 1180.26 22.378 1182.75 23.6189C1181.09 25.272 1178.46 25.4755 1176.39 24.7285C1175.97 24.0008 1175.61 23.4203 1175.27 22.6438L1174.48 24.9028C1171.9 24.923 1158.55 24.5832 1157.12 25.3727C1159.65 30.7832 1181.16 21.435 1184.03 29.4471C1184.3 30.2027 1184.6 30.8743 1184.86 31.6595C1191.02 34.9407 1200.08 29.6419 1203.12 33.6969C1201.77 35.5302 1197.14 35.809 1194.78 36.116C1199.5 36.6574 1215.85 38.0476 1214.82 45.9914L1211.03 46.3333L1211.41 47.1209C1214.49 47.6443 1216.86 47.832 1219.97 48.0282L1220.05 51.99C1222.92 54.2845 1222.5 51.0752 1224.46 54.1733C1224.65 56.9575 1224.48 60.158 1226.19 61.9839L1226.65 61.766L1225.54 58.3415L1226.06 57.5138L1228.57 57.7163C1228.75 60.6398 1228.57 65.0099 1229.87 67.067L1233.28 67.7425C1234.09 69.5318 1233.51 70.5523 1233.77 71.7868C1234.06 73.1476 1239.42 77.1935 1240.48 77.9633C1243.73 80.3129 1239.96 82.0394 1245.19 83.478C1251.85 85.5389 1252.42 79.7444 1253.45 74.0705C1255.76 72.6062 1259.06 74.6934 1262 72.83L1261.95 72.2203C1260.1 71.54 1258.8 71.4493 1257.68 69.9566L1258.21 68.3228C1260.72 68.02 1263.83 68.7544 1265.65 67.5321C1266.22 65.9629 1266.75 63.7302 1268.3 63.079L1268.71 61.9897C1271.05 61.417 1270.79 58.7451 1271.12 56.4424L1271.65 56.4608C1273.57 51.9903 1275.74 51.558 1279.6 51.4772L1283.58 51.5865C1289.79 51.8683 1292.48 53.6176 1294.11 46.5619C1300.2 46.1028 1296.5 45.2007 1302.66 41.6593C1308.36 41.5885 1318.23 39.9059 1321.64 45.7369C1326.54 47.7297 1336.64 45.8076 1342.79 47.3733C1343.37 50.5245 1342.83 49.9632 1344.63 51.5017L1347.57 51.4411C1348.02 54.1685 1347.66 54.7633 1349.28 56.1861L1352.5 56.53C1353.7 56.6022 1355.5 56.6454 1356.65 56.816L1359.89 56.9607C1362.18 60.1034 1359.06 58.7776 1361.91 61.7068L1365.44 61.9552C1366.46 63.2893 1366.04 66.3906 1366.19 66.4463C1368.35 67.2286 1370.85 66.0149 1370.59 70.3659C1370.42 73.223 1372.89 72.5259 1374.58 72.5095C1376.44 76.7281 1372.42 78.336 1378.87 77.4994C1380.38 80.2887 1379.23 85.5896 1380.55 87.3865L1384.42 87.9846L1385.61 93.3841C1388.73 92.5846 1388.69 90.7685 1389.87 87.7214L1390.81 87.9202C1392.85 82.9185 1392.27 82.5498 1397.09 82.3043C1397.33 80.823 1397.76 79.2764 1398.14 77.8246C1401.11 77.8372 1406.19 75.0549 1407.98 72.7017C1409.38 72.6373 1410.56 72.5825 1411.55 72.5371C1420.53 72.2944 1428.62 72.1104 1437.62 72.4619C1438.9 77.1272 1438.25 77.3416 1443 77.8298V87.9629V406.456C1440.14 407.196 1440.25 406.601 1438.77 408.901C1438.41 411.72 1438.61 414.392 1438.73 417.233C1430.64 416.901 1426.18 415.411 1423.86 422.027C1423.51 423.019 1413.68 421.505 1411.29 422.763C1411.22 423.455 1411.02 426.743 1410.81 426.916C1408.21 429.063 1393.67 424.586 1393.21 429.072C1393.16 429.532 1393.16 431.927 1393.18 432.642C1388.68 430.801 1373.91 431.39 1368.63 431.389C1371.57 431.132 1385.62 431.065 1387.02 430.365C1389.3 430.951 1388.44 431.115 1390.41 429.748C1391.36 427.328 1391.27 428.325 1390.52 425.604C1386.54 420.561 1385.13 421.674 1380.52 422.288C1366.76 424.121 1352.33 422.141 1338.43 423.194C1321.48 424.414 1304.58 426.375 1287.75 429.072C1281.31 430.152 1278.92 433.043 1272.27 432.678C1253.87 431.666 1235.03 434.174 1216.75 431.485C1214.88 431.211 1212.68 430.514 1210.94 430.627C1210.25 430.788 1209.13 433.626 1208.77 433.342C1205.44 430.753 1182.57 426.563 1179.54 428.363C1170.52 435.041 1161.79 429.753 1152.71 430.662C1145.64 431.368 1136.66 433.719 1129.49 434.688C1126.11 435.144 1123.43 440.868 1114.45 440.375C1110.29 440.146 1096.76 447.798 1090.83 447.232C1089.29 447.425 1086.66 451.856 1085.1 452.524C1076.93 454.592 1051.23 460.149 1045.98 466.502L1045.82 467.052L1048.04 467.366L1048.34 468.088L1047.51 467.128C1047.36 466.924 1050.97 475.24 1051.09 475.616C1052.63 476.012 1053.37 476.076 1054.94 476.197C1049.85 476.453 1017.91 476.262 1016.57 476.862C1022.93 479.478 1029.42 477.492 1035.59 479H-4.71508C-4.58442 474.952 -3.9219 471.765 -5.78819 468.682L-9 468.02V103.657V98.0211C-6.5142 97.7297 -6.63698 98.1588 -4.80531 96.6469L-4.2463 92.0388L-4.5724 89.2993C-4.65301 87.2633 -5.01413 84.8079 -4.00349 83.2325L-1.80586 82.8557C1.508 80.8431 -0.922399 81.0089 1.20016 77.5586L4.20739 76.9915L4.86256 73.8029C6.61503 72.7777 11.0962 68.4104 13.0233 66.8004C14.2277 65.7941 13.8949 64.3397 13.9865 62.2239C17.2408 61.7858 21.248 62.6302 23.0079 61.1998L23.0216 57.5094C24.2065 55.3705 28.0343 57.5849 31.9888 56.1672C32.0206 54.3143 32.025 54.0574 32.0744 53.9434C34.6493 48.0229 45.6596 55.5579 49.3704 47.7792C50.5386 45.3305 72.792 46.6707 75.7215 48.2065C76.7836 48.7632 76.5375 50.9651 81.7514 51.6097C84.4526 51.6053 93.1271 51.3939 95.2668 51.9737C95.5709 53.3372 95.8347 54.7121 96.0566 56.0959C98.0651 56.4127 107.012 58.1449 108.36 58.1124L108.533 59.7046L108.926 61.7754C112.406 61.4232 113.627 62.6805 116.581 64.8757L117.776 67.1821C119.446 66.9625 120.954 66.5291 122.315 67.6238C122.326 70.7812 121.927 70.0696 123.306 72.2053L126.809 72.4472C127.51 74.0115 127.44 75.1061 127.505 76.8531C129.251 77.3404 129.916 77.3136 131.723 77.3175C132.118 79.0241 132.19 79.7681 132.329 81.5298C141.795 84.0311 143.698 86.7602 150.095 75.2214C151.276 73.0919 151.723 73.5788 153.517 73.7887C154.21 73.7149 158.846 67.7939 159.419 66.961C161.126 66.9472 161.617 67.0286 163.044 66.0001L163.703 62.6176C166.784 62 169.139 61.8089 172.265 61.5651L175.623 62.4868C177.428 62.3578 179.734 62.1146 181.502 62.1768L182.144 56.4982C183.52 56.4851 188.93 56.3424 189.964 56.537C194.703 56.6844 198.536 56.6155 203.264 56.3982L204.418 53.7972C205.824 52.3239 209.247 52.3389 211.911 51.659L226.726 51.5779C235.724 51.831 228.423 54.7449 235.167 56.6142C238.077 56.4799 238.806 55.8063 240.524 57.5888C240.754 58.4403 241.449 61.268 241.812 61.8295L248.712 62.2075C250.289 67.5426 251.803 67.706 256.861 68.4941L258.755 67.6861L262.868 66.8427L263.376 62.1137L267.544 61.7995L267.461 61.3538L268.032 57.5184C269.668 56.0121 269.154 56.4581 271.854 56.7581C275.156 55.7943 276.378 54.6342 277.722 51.1501C278.69 50.3207 280.813 47.7438 281.764 46.6488L286.066 46.531L288.839 46.2302C290.647 44.6336 290.173 44.2172 290.557 41.0405C291.051 36.8461 291.843 37.5815 295.12 36.7864L298.458 35.7796C298.889 34.1614 299.093 33.6134 299.771 32.1076C302.137 30.5661 305.703 31.1677 308.538 31.3407C311.152 31.5016 313.65 31.8243 316.196 31.1468C318.145 29.2427 317.609 29.1937 317.935 25.7091L321.111 25.8275L338.192 25.8208C342.568 25.7451 353.616 25.2194 357.298 26.2797C359.466 29.9327 356.417 29.7719 359.457 31.4642C361.991 31.3002 364.573 31.0129 367.079 31.4036C368.655 33.9819 366.626 35.2607 369.554 35.972C372.055 36.5797 374.832 35.4214 376.716 37.0809L376.887 40.7193C380.025 41.7941 384.403 41.3348 385.61 42.6988L385.791 46.3113C387.467 47.0385 389.991 46.3446 390.196 47.4402C390.946 51.4321 389.488 51.5501 394.236 51.7246C394.716 53.4413 394.802 54.1626 395.01 55.9436C397.912 57.2463 398.846 55.4456 399.37 57.3946C400.22 60.5531 398.916 59.8276 400.793 62.092L398.169 62.7171L399.096 65.4263C403.261 67.748 406.219 75.9319 412.536 77.5325C418.769 79.112 415.404 75.923 419.436 72.8733C419.962 72.4746 424.962 73.4779 426.812 71.474L425.605 70.7451L425.926 69.3103C427.848 67.7216 431.983 64.2271 433.93 62.9804C435.094 62.2347 439.121 63.2698 441.562 61.7263L441.695 57.5605C442.753 56.6511 449.039 56.5552 451.161 56.2949C451.779 56.2297 452.654 55.7706 453.266 55.4915C454.08 47.5669 466.863 54.2293 471.241 50.8208C472.793 49.612 472.666 48.4427 473.191 46.4214L473.379 46.4178C480.599 46.2092 486.06 37.118 495.871 46.2905C499.523 46.4262 509.78 46.3426 512.433 47.2393L513.807 50.4125L516.491 51.4242L509.852 51.7466C512.009 53.2855 512.78 53.2086 515.237 53.1694L516.02 54.1967L515.323 55.5507L513.029 56.0689C515.848 57.3034 516.17 57.0053 518.632 56.1652C520.399 56.7574 521.456 58.7168 522.627 60.4005C523.193 56.3281 529.98 58.977 534.165 57.0464C536.4 56.8302 535.718 53.7468 536.414 52.8209C540.466 47.4237 549.501 44.8015 549.942 37.4027C552.534 37.2607 556.754 37.2634 559.013 36.2418C558.258 34.3606 556.314 35.7247 553.963 33.5609C555.357 31.0271 561.271 33.8113 564.212 31.6338L564.027 28.7903C566.462 25.3187 573.61 27.9713 577.921 26.2381L578.089 25.2414C575.928 25.2161 574.27 24.2932 572.322 23.6477C572.256 23.6259 570.781 25.1603 568.835 25.3351L568.617 23.3036C572.001 21.1561 592.162 22.3587 597.962 22.1051C600.979 19.5999 598.371 20.0281 600.498 16.8818C604.069 15.6021 621.012 16.7243 626.959 16.2296C629.337 16.3545 641.971 16.3049 642.947 17.2328C645.32 21.4973 640.723 23.4125 649.162 21.9314C645.942 21.3385 645.018 21.4287 643.881 17.7469C645.387 14.9705 644.629 15.8024 647.812 14.7325C652.87 15.6841 659.959 14.37 662.88 17.3191C664.205 22.0437 667.212 20.9375 671.365 21.1335L674.753 21.3904C677.32 24.8076 679.965 26.4365 681.571 30.7082C681.707 31.0684 688.037 31.4248 688.807 31.4606C690.877 34.2261 688.807 35.1199 691.036 37.0889L693.99 37.2986C694.217 39.438 694.434 44.3122 695.621 45.6156L695.981 45.6356C697.049 45.7 697.394 45.6434 698.325 46.2724L699.35 48.712C708.067 48.9965 710.69 36.6354 716.029 35.7048C717.199 31.033 717.05 31.6444 720.864 31.1368L726.032 30.4838L726.465 25.639L727.755 25.6445C731.052 19.4425 733.186 22.3131 736.299 16.3493L738.745 15.8543C742.566 15.3455 744.388 15.044 748.188 15.4618Z" fill="#D6E1E6"/>
<path d="M338.191 25.8208C342.567 25.7452 353.615 25.2194 357.298 26.2797C359.466 29.9327 356.417 29.7719 359.457 31.4642C361.991 31.3002 364.573 31.0129 367.079 31.4036C368.654 33.9819 366.625 35.2607 369.553 35.972C372.055 36.5797 374.832 35.4214 376.715 37.0809L376.886 40.7193C380.025 41.7941 384.403 41.3348 385.61 42.6989L385.79 46.3113C387.466 47.0385 389.99 46.3446 390.196 47.4402C390.945 51.4321 389.488 51.5501 394.236 51.7246C394.716 53.4413 394.802 54.1626 395.009 55.9436C397.912 57.2463 398.846 55.4456 399.37 57.3946C400.22 60.5531 398.916 59.8276 400.793 62.092L398.169 62.7171C390.439 60.383 393.201 52.7184 385.42 51.9985L384.801 48.0551C382.1 47.7659 380.637 47.6912 378.026 46.6835L378.36 45.5566C379.305 44.78 379.395 44.5403 379.99 43.3923C377.928 41.7706 374.488 43.2019 371.026 41.754L370.661 40.5215C372.6 39.3236 373.475 41.3321 375.347 40.0304C370.432 34.7579 358.707 38.8985 355.226 35.3243C358.099 35.2509 362.395 35.4112 364.937 34.2802L364.079 33.2059C359.85 31.7966 316.534 32.6485 309.233 32.6843L309.536 33.9367C311.489 36.2035 313.029 33.898 317.204 34.9636L317.709 35.9218C316.872 36.7993 304.344 36.4911 302.222 37.3874C298.693 38.8792 302.107 43.7631 295.144 42.2474C293.6 41.9112 293.257 42.1604 292.077 43.0267L291.549 46.562C289.459 48.9143 290.068 46.9966 287.168 47.9344C285.887 48.3483 287.789 50.4323 286.002 51.5406C280.695 54.8319 275.198 55.1415 272.533 61.6945L267.544 61.7995L267.461 61.3538L268.032 57.5184C269.668 56.0121 269.154 56.4581 271.854 56.7581C275.156 55.7943 276.378 54.6342 277.722 51.1501C278.69 50.3207 280.813 47.7438 281.764 46.6488L286.065 46.531L288.838 46.2302C290.646 44.6336 290.173 44.2172 290.556 41.0405C291.05 36.8461 291.842 37.5815 295.119 36.7864L298.458 35.7796C298.889 34.1614 299.092 33.6134 299.771 32.1076C302.137 30.5661 305.703 31.1677 308.537 31.3407C311.151 31.5016 313.649 31.8243 316.196 31.1468C318.144 29.2427 317.608 29.1937 317.935 25.7091L321.11 25.8275L338.191 25.8208Z" fill="#B9DEE3"/>
<path d="M211.911 51.659L226.726 51.5779C235.724 51.831 228.423 54.745 235.167 56.6143C238.077 56.4799 238.806 55.8063 240.524 57.5889C240.754 58.4404 241.449 61.2681 241.812 61.8295L248.712 62.2076C250.289 67.5426 251.803 67.7061 256.861 68.4941L258.755 67.6861L262.868 66.8427L263.376 62.1138L267.544 61.7996L272.533 61.6946C268.333 63.9959 270.264 63.4187 267.699 67.6919L264.289 67.8952C264.088 69.3483 263.858 70.7959 263.597 72.2368C263.441 73.1394 263.43 72.8825 262.49 73.6002C258.279 73.754 249.211 73.5816 245.329 71.9904L244.727 68.4693C241.836 65.4208 243.205 68.7446 239.591 66.4273L240.229 64.5092L239.585 63.3149C236.56 61.9838 231.234 63.7769 227.92 63.3542C225.066 62.9902 227.019 61.4795 225.229 58.7051C219.036 57.703 191.406 58.1075 183.172 58.6222C182.923 58.6378 182.718 60.0823 182.61 60.6095C183.989 62.0189 190.218 60.302 193.912 61.7078L193.28 62.6933C190.615 63.5392 183.975 63.4739 181.502 62.1769L182.144 56.4983C183.52 56.4852 188.93 56.3424 189.964 56.5371C194.703 56.6844 198.536 56.6156 203.264 56.3982L204.418 53.7972C205.824 52.3239 209.247 52.3389 211.911 51.659Z" fill="#C2DFE3"/>
<path d="M211.91 51.659L226.725 51.5779C226.611 53.1516 226.601 53.7084 226.726 55.293C224.958 56.8548 206.996 56.3925 203.264 56.3982L204.418 53.7972C205.823 52.3239 209.247 52.3389 211.91 51.659Z" fill="#B9DEE3"/>
<path d="M235.168 56.6143C238.078 56.4799 238.806 55.8063 240.525 57.5889C240.755 58.4404 241.45 61.2681 241.813 61.8295L237.199 61.7672C235.33 60.2198 235.751 59.7129 235.168 56.6143Z" fill="#BBD8DC"/>
<path d="M930.389 31.2872C943.676 31.8543 957.458 31.2211 970.865 31.4541C971.298 34.7713 970.773 34.1084 972.546 35.9722C975.091 36.5537 976.622 36.3233 979.182 36.1348L985.088 36.2425C990.611 36.0305 992.092 35.2778 995.247 40.9357L998.097 41.5507C998.594 44.8392 998.083 44.9589 1000.04 46.5936L1005.75 47.1086L1005.76 47.7052C1001.76 48.0674 994.361 47.8532 990.433 47.5073L990.299 46.7871C992.971 45.1894 993.624 45.1213 996.594 44.8429L996.842 43.6305L996.112 42.6125C992.199 43.5962 983.528 40.5876 980.387 43.3216L981.146 45.0826L984.96 46.3072L984.173 46.9723C977.473 45.3265 982.337 41.5552 972.049 40.7689C972.673 40.3271 984.485 40.1105 987.2 39.5566L987.675 38.5883C983.514 36.4043 931.68 35.8679 927.454 37.851L926.447 41.4742C923.789 43.008 915.146 42.143 911.729 41.8822L910.665 41.7017L907.135 40.6702C908.758 32.4574 916.642 38.0629 921.102 35.5948C922.35 34.9064 920.868 33.1911 925.717 31.4024L930.389 31.2872Z" fill="#C5DBE2"/>
<path d="M925.717 31.4023C925.866 34.3405 926.157 36.1748 925.1 38.8837C921.3 42.4609 917.911 39.5596 911.729 41.8822L910.665 41.7017L907.135 40.6702C908.758 32.4574 916.642 38.0629 921.102 35.5948C922.35 34.9064 920.868 33.1911 925.717 31.4023Z" fill="#C2DFE3"/>
<path d="M81.752 51.6097C84.4532 51.6053 93.1276 51.3939 95.2673 51.9738C95.5715 53.3373 95.8352 54.7121 96.0571 56.0959C98.0657 56.4127 107.012 58.1449 108.361 58.1124L108.533 59.7046L108.927 61.7754C112.406 61.4233 113.628 62.6805 116.582 64.8757L117.776 67.1821C119.447 66.9625 120.955 66.5291 122.315 67.6238C122.326 70.7812 121.928 70.0696 123.306 72.2053L126.81 72.4473C127.511 74.0115 127.441 75.1061 127.506 76.8531C129.251 77.3405 129.917 77.3136 131.724 77.3175C132.119 79.0241 132.191 79.7682 132.329 81.5298C141.796 84.0311 143.698 86.7602 150.096 75.2214C151.276 73.0919 151.724 73.5788 153.517 73.7887C154.211 73.7149 158.847 67.794 159.42 66.9611C161.126 66.9472 161.618 67.0286 163.044 66.0002L163.703 62.6176C166.785 62 169.14 61.8089 172.265 61.5651L175.624 62.4868C171.246 63.1271 164.641 66.8013 160.403 69.1231L159.979 72.5179C158.344 74.2076 158.829 73.692 155.959 73.6976C155.391 76.2716 155.642 76.737 154.146 78.5833L151.394 78.5641L150.204 79.9487L150.269 81.1812L152.988 81.3253L153.341 81.8454C150.855 82.165 148.317 82.2302 146.206 83.6906C145.851 85.1332 145.696 86.1331 145.478 87.5958C143.066 88.7462 133.686 88.4323 131.536 86.4414C133.618 86.3086 134.472 86.6982 135.791 85.3473C132.54 82.7607 125.679 81.7842 122.392 77.318C121.858 76.5924 122.774 74.9829 120.878 72.8688L115.314 72.9312L114.209 71.5035C115.037 70.801 115.273 70.7006 116.221 70.2195L115.483 68.9757C111.793 68.6576 110.136 67.8738 106.6 67.2743L107.766 64.6085L106.987 63.3924C101.86 62.6383 98.4117 62.5235 93.2694 62.4062L92.6327 61.3645L92.101 61.6553L92.381 62.4083L90.8227 62.1112C93.9947 60.7789 93.5459 61.5573 95.251 58.7161C90.7844 58.0308 86.3256 57.278 81.8767 56.4579C82.1632 55.2914 81.8604 52.9323 81.752 51.6097Z" fill="#B9DEE3"/>
<path d="M108.926 61.7754C112.405 61.4232 113.627 62.6805 116.581 64.8757L117.775 67.1821C114.315 66.9781 111.896 67.4487 109.296 65.434L108.926 61.7754Z" fill="#BBD8DC"/>
<path d="M671.364 21.1335L674.753 21.3904C677.319 24.8076 679.964 26.4365 681.571 30.7082C681.707 31.0684 688.036 31.4248 688.806 31.4606C690.876 34.2261 688.806 35.1199 691.036 37.0889L693.99 37.2986C694.217 39.438 694.433 44.3122 695.621 45.6156L695.98 45.6356C697.049 45.7 697.394 45.6434 698.324 46.2724L699.349 48.712C708.066 48.9965 710.69 36.6354 716.028 35.7048C717.198 31.033 717.049 31.6444 720.864 31.1368L726.032 30.4838L726.465 25.639L727.755 25.6445C730.811 25.5769 733.32 25.6843 736.256 24.6906C737.347 24.7109 737.709 24.9129 738.737 25.33L738.248 26.0447C738.248 26.0447 733.873 26.8534 732.016 28.5295C729.598 30.7738 724.579 35.9359 722.792 38.6534C721.573 42.4512 714.858 41.9775 714.639 42.4428C710.81 50.4856 695.819 61.4937 693.797 46.149C693.099 40.8576 691.529 43.4964 688.883 42.364C683.18 39.9235 684.998 35.4954 677.723 36.9304L676.707 35.9136C679.169 34.4605 681.427 36.7485 683.745 35.0313L684.093 32.854C673.803 33.3202 675.693 32.5588 667.894 27.2675C666.359 26.226 660.153 28.6369 656.605 25.4792C659.603 23.3414 666.387 26.03 670.435 24.4995L670.682 22.6726L671.364 21.1335Z" fill="#C5DBE2"/>
<path d="M720.865 31.1369L726.033 30.4838C721.985 36.4261 722.552 36.3338 716.029 35.7048C717.199 31.033 717.05 31.6445 720.865 31.1369Z" fill="#C2DFE3"/>
<path d="M748.188 15.4618C748.5 13.9103 748.783 12.9719 749.251 11.4764C752.973 9.36681 758.22 10.2777 762.488 10.5534C773.059 10.8719 783.58 9.97945 794.08 10.4697L798.76 10.4777L807.204 10.5602C808.154 10.5504 810.401 10.5963 811.231 10.4817C813.663 10.3863 821.603 9.84347 823.248 10.9883C829.225 15.1417 826.85 15.2868 834.188 15.5757L829.65 16.2203L825.212 16.3595C801.574 17.3202 774.03 16.485 749.982 16.5055C746.16 16.6645 742.537 16.2261 738.744 15.8543C742.566 15.3455 744.388 15.044 748.188 15.4618Z" fill="#BBD8DC"/>
<path d="M748.188 15.4618C748.499 13.9103 748.783 12.9719 749.251 11.4764C752.973 9.36681 758.22 10.2777 762.488 10.5534C762.431 11.3571 762.417 13.5452 762.041 13.8828C759.503 16.1618 751.498 15.5245 748.188 15.4618Z" fill="#C2DFE3"/>
<path d="M1294.11 46.5619C1300.2 46.1028 1296.5 45.2007 1302.66 41.6593C1308.36 41.5885 1318.23 39.9059 1321.64 45.7369C1326.53 47.7297 1336.64 45.8076 1342.79 47.3733C1343.37 50.5245 1342.83 49.9632 1344.63 51.5018L1347.57 51.4411C1348.02 54.1685 1347.66 54.7633 1349.28 56.1861L1352.5 56.53C1353.7 56.6022 1355.5 56.6454 1356.64 56.816L1356.35 60.8059C1354.69 62.1974 1353.63 61.5984 1351.19 61.4398C1351.3 59.5577 1351.25 59.342 1350.35 57.7542C1348.41 57.8295 1346.05 58.1976 1344.88 56.4176L1346.39 54.3829L1346.11 53.5619C1342.36 51.759 1286.78 52.7997 1280.61 53.5345L1280.2 53.4004L1279.6 51.4772L1283.58 51.5865C1289.79 51.8683 1292.48 53.6176 1294.11 46.5619Z" fill="#B9DEE3"/>
<path d="M4.20703 76.9916L4.8622 73.8029C6.61467 72.7777 11.0958 68.4105 13.0229 66.8005C14.2273 65.7942 13.8945 64.3398 13.9862 62.224C17.2404 61.7858 21.2476 62.6302 23.0075 61.1998L23.0213 57.5095C24.2061 55.3706 28.0339 57.5849 31.9884 56.1672C32.0202 54.3143 32.0246 54.0574 32.0741 53.9435C34.649 48.0229 45.6592 55.558 49.37 47.7792C50.5382 45.3305 72.7916 46.6707 75.7212 48.2065C76.7832 48.7633 76.5372 50.9651 81.7511 51.6097C81.8595 52.9323 82.1623 55.2914 81.8758 56.4579L80.7351 55.541C80.3459 52.3852 79.1661 52.3443 76.3578 52.9372C71.5091 53.9608 43.6836 52.4928 42.15 53.9381L44.2869 56.3897C41.2577 59.0973 30.1521 56.8635 27.8643 59.2104L28.4097 60.2707C30.5174 60.5907 32.4348 60.7766 34.4303 61.6488L33.8892 62.3127C22.1255 62.6939 25.6503 64.2951 15.0724 69.0095C13.0552 71.9783 8.90455 79.7599 5.22081 77.9254L4.20703 76.9916Z" fill="#C2DFE3"/>
<path d="M473.191 46.4215L473.379 46.4179C480.599 46.2092 486.061 37.118 495.871 46.2906C499.524 46.4262 509.781 46.3427 512.434 47.2393L513.808 50.4126L516.492 51.4243L509.853 51.7466C494.211 51.6361 471.13 52.4092 455.402 53.9425C454.051 55.8018 452.22 58.7648 450.12 58.7752C448.18 58.7848 443.332 58.4353 441.695 57.5605C442.753 56.6512 449.039 56.5552 451.162 56.2949C451.779 56.2297 452.655 55.7707 453.267 55.4915C454.081 47.567 466.864 54.2293 471.241 50.8209C472.794 49.612 472.667 48.4427 473.191 46.4215Z" fill="#C2DFE3"/>
<path d="M1103.63 23.4777C1106.38 26.7883 1109.08 25.4403 1111.62 22.5438C1112.33 23.5004 1112.71 23.9692 1113.27 25.0806C1115.63 25.1343 1117.7 25.1359 1120.07 25.0395L1120.46 25.7961C1114.68 27.6625 1108.49 24.0262 1106.79 29.7851C1106.46 30.9052 1105.61 32.2901 1104.58 32.3995C1098.71 33.0252 1087.42 31.5955 1081.76 33.4092L1081.45 34.8193C1083.93 36.2467 1089.28 32.5411 1091.27 35.8022C1088.65 37.4354 1085.33 36.3546 1082.76 37.5776C1080.91 38.4621 1081.77 41.3642 1079.06 42.1195C1076.29 42.8906 1069.36 41.6899 1067.7 43.6803L1068.1 44.9829C1070.96 45.8954 1072.11 45.9442 1075.07 46.1378L1074.7 46.6922C1071.8 47.0481 1064.85 47.8925 1062.59 49.8254L1062.68 50.6772C1064.03 50.3424 1065.39 49.993 1066.73 49.6291L1066.6 50.6392C1064.8 51.8004 1061.43 51.7162 1059.4 51.4349C1060.55 50.6909 1062.37 47.3163 1062.16 47.3768C1067.78 45.8221 1065.78 48.506 1067.06 41.5359C1072 37.6156 1079.74 38.3089 1079.85 32.4293C1079.89 30.1506 1086.83 31.7991 1088.14 30.3721C1088.98 29.4612 1089.05 27.7233 1089.3 26.3262C1093.86 23.0668 1095.29 29.9067 1098.86 22.0587C1100.42 22.5396 1102.06 23.0838 1103.63 23.4777Z" fill="#C5DBE2"/>
<path d="M1356.65 56.816L1359.89 56.9606C1362.18 60.1034 1359.06 58.7776 1361.91 61.7068L1365.44 61.9552C1366.46 63.2893 1366.04 66.3906 1366.19 66.4463C1368.35 67.2286 1370.85 66.0149 1370.59 70.3659C1370.42 73.223 1372.89 72.5259 1374.58 72.5095C1376.44 76.7281 1372.42 78.336 1378.87 77.4994C1380.38 80.2887 1379.23 85.5896 1380.55 87.3865L1384.42 87.9846L1385.61 93.384C1385.03 93.2842 1384.44 93.1755 1383.86 93.0588C1375.6 91.39 1380.46 87.8953 1377.5 83.1012L1376.08 83.164C1375.65 83.8234 1375.47 86.4003 1375.36 87.3784C1374.92 85.1887 1374.8 83.9916 1373.24 82.5232L1374.06 77.6592L1370.68 79.3001L1369.58 78.6126C1369.57 77.6026 1369.66 73.8054 1368.73 73.6591C1361.74 72.5582 1359.25 74.7829 1359.84 65.0295C1360.03 61.8694 1353.27 64.0717 1350.68 62.4359L1351.19 61.4397C1353.63 61.5984 1354.69 62.1974 1356.35 60.8058L1356.65 56.816Z" fill="#C2DFE3"/>
<path d="M848.424 25.1221L852.146 25.9307C854.096 29.215 852.352 29.7619 855.372 31.147C857.393 31.1259 859.591 30.9383 861.484 31.6576C862.497 33.2825 862.384 33.9845 862.377 36.0074L865.886 36.4819C866.978 38.0737 866.936 39.224 867.127 41.2551C869.46 41.2116 869.977 40.7025 871.374 42.1667C871.204 45.2949 870.92 44.1477 872.579 46.747C873.706 47.229 874.841 47.6047 875.734 48.5297C875.996 51.3501 875.883 53.1063 875.763 55.9039L875.451 62.4899C875.784 57.6699 871.069 46.3282 867.574 48.0378L867.347 50.9196L866.801 50.9599C866.446 48.1608 866.056 45.3678 865.624 42.5818C863.837 41.108 863.816 41.622 861.2 41.8623C860.548 41.0708 860.278 40.8953 860.101 39.8759L861.172 38.41L861.094 37.9062C858.017 35.2211 853.075 37.4505 849.573 36.6832C848.211 36.3863 847.942 34.5144 847.169 32.7481L843.865 32.218L847.843 31.2236C848.977 29.292 848.502 27.7998 848.424 25.1221Z" fill="#C5DBE2"/>
<path d="M855.372 31.147C857.392 31.1259 859.59 30.9383 861.483 31.6577C862.497 33.2825 862.384 33.9845 862.377 36.0075C859.236 36.3994 854.734 36.5726 852.6 33.3977L852.982 31.8627L855.372 31.147Z" fill="#BBD8DC"/>
<path d="M862.377 36.0074L865.886 36.4819C866.978 38.0737 866.936 39.224 867.127 41.2551C864.958 41.0006 864.128 41.3268 862.618 39.9256L862.377 36.0074Z" fill="#B9DEE3"/>
<path d="M834.188 15.5757L836.968 15.9191L838.733 16.355C839.236 18.1111 839.151 18.8813 839.116 20.7068C841.115 20.7201 843.866 20.8501 845.78 20.4729L847.921 21.3358C848.333 23.0194 848.418 23.3639 848.425 25.122C848.503 27.7998 848.978 29.292 847.844 31.2236L843.866 32.2179C842.235 29.6572 843.944 29.8132 842.448 26.7892L841.087 26.4184L839.13 28.7648C836.294 27.5444 833.777 21.8648 832.118 21.9296C829.055 22.0497 828.715 22.3889 825.191 21.2064L825.213 16.3595L829.651 16.2203L834.188 15.5757Z" fill="#BBD8DC"/>
<path d="M834.188 15.5757L836.967 15.9191C836.478 18.8655 836.889 19.2762 835.159 20.8684L830.381 20.7701L829.65 16.2203L834.188 15.5757Z" fill="#B9DEE3"/>
<path d="M839.115 20.7068C841.115 20.7201 843.865 20.8501 845.78 20.473C845.319 22.3116 845.106 23.1713 844.369 24.8789C842.1 26.1287 842.845 26.1589 840.725 25.6904C839.08 23.4875 839.541 23.8558 839.115 20.7068Z" fill="#C2DFE3"/>
<path d="M825.213 16.3595L829.651 16.2203L830.381 20.7701L825.191 21.2064L825.213 16.3595Z" fill="#C5DBE2"/>
<path d="M647.811 14.7325C652.87 15.684 659.959 14.37 662.88 17.3191C664.205 22.0437 667.212 20.9375 671.365 21.1335L670.682 22.6726C668.191 21.5096 657.506 21.9518 654.396 22.2288L654.339 24.1982L653.413 24.7167L652.839 22.232L649.162 21.9314C645.942 21.3385 645.017 21.4287 643.881 17.7469C645.387 14.9705 644.629 15.8024 647.811 14.7325Z" fill="#C2DFE3"/>
<path d="M738.745 15.8543C742.538 16.2261 746.161 16.6645 749.983 16.5055C747.685 16.7112 746.069 16.5901 744.353 18.3648C745.892 19.2266 748.26 19.7782 749.975 20.2606C746.104 21.0271 741.964 21.9402 738.022 22.1465C736.285 22.2376 736.257 22.5334 736.257 24.6906C733.321 25.6843 730.812 25.5769 727.756 25.6445C731.053 19.4425 733.187 22.3131 736.299 16.3493L738.745 15.8543Z" fill="#C2DFE3"/>
<path d="M1411.55 72.5371C1420.52 72.2943 1428.62 72.1104 1437.62 72.4619C1438.89 77.1272 1438.25 77.3416 1443 77.8297V87.9629C1439.61 85.043 1438.87 81.9033 1437.2 79.451C1436.31 78.1451 1423.01 77.1996 1420.94 76.9917C1424.72 75.8712 1433.76 77.6247 1436.9 75.6183L1436.82 74.487C1432.66 72.1066 1417.23 73.223 1411.76 73.3609L1411.55 72.5371Z" fill="#C2DFE3"/>
<path d="M1271.65 56.4608C1273.57 51.9904 1275.74 51.5581 1279.6 51.4772L1280.2 53.4004L1280.61 53.5345L1281.19 55.3095C1285.31 56.2429 1284.79 53.9231 1286.57 56.3455L1285.88 57.2943C1274.31 57.574 1276.15 63.964 1268.3 63.079L1268.71 61.9897C1271.05 61.417 1270.79 58.7452 1271.12 56.4424L1271.65 56.4608Z" fill="#C2DFE3"/>
<path d="M1271.65 56.4608C1273.57 51.9904 1275.74 51.5581 1279.6 51.4772L1280.2 53.4004L1279.61 55.7086C1277.16 57.0542 1274.41 56.5981 1271.65 56.4608Z" fill="#BBD8DC"/>
<path d="M1006.33 46.7349L1010.61 46.7084C1012.36 48.6907 1010.78 49.4525 1013.54 51.2276C1017.89 54.0274 1025.3 53.2935 1025.75 60.8501L1025.34 61.8928L1023.95 62.3924C1023.03 62.3081 1021.95 61.9531 1021.04 61.7016C1020.68 60.4796 1020.57 59.5794 1020.4 58.3276C1017.5 55.474 1016.47 57.6161 1013.77 55.7065L1016.89 55.4023L1017.21 54.2378L1015.86 53.2767C1014.94 53.2962 1002.25 51.0257 1002 50.8667L1005.8 50.6019L1006.27 48.4795L1005.76 47.7052L1005.75 47.1086L1006.33 46.7349Z" fill="#B9DEE3"/>
<path d="M1397.09 82.3043C1397.33 80.823 1397.76 79.2764 1398.14 77.8246C1401.11 77.8373 1406.19 75.0549 1407.98 72.7017C1409.38 72.6373 1410.56 72.5825 1411.55 72.5371L1411.76 73.361L1412.24 75.8115L1414.37 76.7853L1414.4 77.3448C1411.56 77.5552 1404.76 77.8257 1402.97 80.1193L1403.19 81.4493L1397.09 82.3043Z" fill="#B9DEE3"/>
<path d="M1030.78 66.2756C1034.77 67.1462 1034.18 67.3198 1035.81 71.7688C1040.01 71.9382 1040.17 68.4601 1042.93 69.4286L1044.3 67.7386L1044 71.6059C1041.38 75.625 1033.95 74.4504 1030.78 71.9579C1029.25 70.7579 1029.44 69.3321 1029.1 67.364L1030.78 66.2756Z" fill="#BBD8DC"/>
<path d="M893.389 51.2176L894.303 47.9341C899.727 45.0492 899.238 41.1397 907.136 40.6702L910.667 41.7017C907.767 42.798 906.973 42.9498 903.931 43.2279C903.825 44.6582 903.889 44.8391 904.385 46.1675L903.485 47.5396C902.301 47.678 901.315 47.7232 900.209 48.2483L900.152 49.2478C897.175 51.529 896.856 51.1861 893.389 51.2176Z" fill="#C2DFE3"/>
<path d="M887.816 56.23C889.886 56.2967 893.084 56.2887 895.048 56.4932C888.177 59.0549 886.001 67.1128 875.451 62.4898L880.442 61.733C882.974 61.884 883.236 62.4267 884.824 60.8843L885.108 56.3548L887.816 56.23Z" fill="#BBD8DC"/>
<path d="M-4.5725 89.2993C-4.65311 87.2633 -5.01423 84.8079 -4.00359 83.2325L-1.80596 82.8557L0.200394 83.4031C0.36821 87.0387 0.356583 89.4579 0.191532 93.0958L-4.2464 92.0388L-4.5725 89.2993Z" fill="#C2DFE3"/>
<path d="M1397.09 82.3043L1403.19 81.4493L1402.7 83.0498C1397.28 83.4917 1400.16 88.0998 1390.81 87.9203C1392.85 82.9185 1392.27 82.5498 1397.09 82.3043Z" fill="#C2DFE3"/>
<path d="M893.388 51.2176C896.855 51.1861 897.174 51.529 900.152 49.2478L899.436 51.8681C896.479 53.2127 895.224 52.3671 895.047 56.4932C893.083 56.2887 889.886 56.2968 887.815 56.23C887.319 54.6483 887.39 55.2355 888.035 53.402C889.978 51.5526 890.949 51.5497 893.388 51.2176Z" fill="#C2DFE3"/>
<path d="M-4.2463 92.0388L0.191628 93.0958C-7.18859 95.2211 -1.64209 97.8029 -5.11846 102.813C-6.54009 103.197 -7.54551 103.473 -9 103.657V98.0211C-6.5142 97.7297 -6.63698 98.1587 -4.80531 96.6469L-4.2463 92.0388Z" fill="#BBD8DC"/>
<path d="M-1.80664 82.8557C1.50722 80.8431 -0.923175 81.009 1.19938 77.5586L4.20661 76.9916L5.22039 77.9254C5.05576 78.8073 5.09738 79.5308 5.27838 80.4062L4.37258 82.2375C2.92633 82.388 1.2376 82.3437 0.199714 83.4032L-1.80664 82.8557Z" fill="#C2DFE3"/>
<path d="M1023.95 62.3924L1025.34 61.8928L1029.81 61.98L1030.78 66.2756L1029.09 67.364C1027.58 67.2399 1026.83 66.9952 1025.37 66.5688C1024.91 65.0368 1024.51 63.8782 1023.95 62.3924Z" fill="#C2DFE3"/>
<path d="M1394.09 78.3438L1395.31 77.8403L1395.43 79.5006C1394.81 80.1754 1394.6 80.1588 1393.75 80.4189L1394.09 78.3438Z" fill="#C2DFE3" fill-opacity="0.0392157"/>
<path d="M0.883486 72.2917L3.06113 73.6358L2.85021 74.7711L1.19473 75.4866L0.335938 74.9197L0.883486 72.2917Z" fill="#BBD8DC" fill-opacity="0.0156863"/>
<path d="M378.904 37.8733L379.639 37.5442L379.917 38.5514L379.077 39.1884L378.904 37.8733Z" fill="#C2DFE3" fill-opacity="0.0117647"/>
<path d="M1035.59 479C1029.42 477.492 1022.93 479.478 1016.57 476.862C1017.91 476.262 1049.85 476.453 1054.94 476.197C1053.37 476.076 1052.63 476.012 1051.09 475.616C1050.97 475.24 1047.36 466.924 1047.51 467.128L1048.34 468.088L1048.04 467.366L1045.82 467.052L1045.98 466.502C1051.23 460.149 1076.93 454.592 1085.1 452.524C1086.66 451.856 1089.29 447.425 1090.83 447.232C1096.76 447.798 1110.29 440.146 1114.45 440.375C1123.42 440.868 1126.11 435.144 1129.49 434.688C1136.66 433.719 1145.64 431.368 1152.71 430.662C1161.79 429.753 1170.52 435.041 1179.54 428.363C1182.57 426.563 1205.44 430.753 1208.76 433.342C1209.13 433.626 1210.25 430.788 1210.94 430.627C1212.68 430.514 1214.88 431.211 1216.75 431.485C1235.03 434.174 1253.87 431.666 1272.27 432.678C1278.92 433.043 1281.31 430.152 1287.75 429.072C1304.58 426.375 1321.48 424.414 1338.43 423.194C1352.33 422.141 1366.76 424.121 1380.52 422.288C1385.12 421.674 1386.54 420.561 1390.52 425.604C1391.27 428.325 1391.36 427.328 1390.41 429.747C1388.44 431.115 1389.3 430.951 1387.02 430.365C1385.62 431.065 1371.57 431.132 1368.63 431.389C1373.91 431.39 1388.68 430.801 1393.18 432.642C1388.49 432.805 1368.43 431.681 1366.31 434.003L1365.96 437.216C1361.5 440.776 1348.43 434.273 1347.77 439.927C1347.52 442.107 1348.12 441.883 1346.39 443.469C1342.44 444.009 1337 442.457 1334.58 443.591C1334.47 444.336 1334.17 447.446 1333.89 447.644C1330.94 449.749 1323.45 446.95 1320.7 448.83L1320.4 452.436C1317.98 454.577 1311.37 452.681 1308.58 453.099C1305.56 453.547 1308.29 457.175 1304.47 458.092C1300.61 459.024 1291.2 456.398 1288.71 459.646L1288.58 462.768C1284.31 466.131 1254.85 460.79 1252.33 464.957L1252.13 468.025C1250.21 469.23 1241.83 468.952 1239.4 468.576C1231.28 467.32 1236.11 472.324 1233.35 473.816C1227.43 477.01 1216.63 468.946 1215.61 479H1035.59Z" fill="#B7E6F3" fill-opacity="0.705882"/>
<path d="M1154.2 15.4631C1161.11 15.3509 1168.38 13.805 1173.35 18.8973C1175.17 20.7525 1181.97 21.3727 1184.58 21.5381L1184.75 21.7482C1185.68 22.8299 1187.93 25.3076 1189.09 25.849C1189.3 29.2869 1188.79 29.1551 1190.64 31.2075C1192.38 31.148 1191.76 31.4164 1193.1 29.8241C1193.13 28.456 1193.2 26.9833 1193.16 25.6239C1195.27 25.896 1196.08 25.559 1197.41 27.0027L1197.34 29.6003C1199.81 32.3906 1205.28 30.8206 1206.04 31.4434C1208.62 33.5477 1203.84 36.3701 1210.4 36.3541C1210.76 36.3536 1211.11 36.3506 1211.47 36.3447C1211.86 38.0117 1211.99 38.9972 1212.18 40.704C1214.85 41.5532 1219.09 41.6828 1220.34 43.0239L1220.95 46.302C1221.88 46.658 1224.72 46.8976 1224.77 47.0576C1226.16 51.2141 1223.19 52.0825 1229.16 51.8729C1229.51 53.9168 1229.96 57.4004 1230.78 59.1222C1232.64 58.3388 1232.03 58.2378 1233.58 58.9769C1234.62 62.4324 1234.04 65.501 1235.25 66.9847L1238.16 67.0199C1239.03 68.4131 1239.05 74.7217 1239.14 76.8273C1254.28 78.2934 1248.28 68.932 1260.28 62.0355C1260.6 61.8508 1264.97 61.7128 1265.75 61.6909L1268.71 61.9897L1268.3 63.079C1266.75 63.7303 1266.22 65.9629 1265.66 67.5321C1263.83 68.7545 1260.72 68.02 1258.21 68.3228L1257.68 69.9567C1258.8 71.4494 1260.1 71.54 1261.95 72.2204L1262 72.8301C1259.06 74.6934 1255.76 72.6062 1253.45 74.0705C1252.42 79.7444 1251.85 85.539 1245.19 83.4781C1239.96 82.0395 1243.73 80.313 1240.48 77.9634C1239.42 77.1936 1234.06 73.1477 1233.77 71.7868C1233.51 70.5524 1234.09 69.5318 1233.28 67.7425L1229.87 67.067C1228.57 65.0099 1228.75 60.6398 1228.58 57.7164L1226.06 57.5138L1225.54 58.3416L1226.65 61.7661L1226.19 61.984C1224.48 60.158 1224.65 56.9576 1224.46 54.1733C1222.5 51.0752 1222.92 54.2846 1220.05 51.99L1219.97 48.0283C1216.86 47.8321 1214.49 47.6443 1211.41 47.121L1211.03 46.3333L1214.82 45.9914C1215.85 38.0476 1199.5 36.6575 1194.78 36.1161C1197.14 35.809 1201.77 35.5302 1203.12 33.6969C1200.08 29.6419 1191.02 34.9408 1184.86 31.6596C1184.6 30.8744 1184.3 30.2028 1184.03 29.4472C1181.16 21.4351 1159.65 30.7832 1157.12 25.3727C1158.55 24.5833 1171.9 24.9231 1174.48 24.9029L1175.27 22.6439C1175.61 23.4203 1175.97 24.0008 1176.39 24.7286C1178.46 25.4756 1181.09 25.2721 1182.75 23.6189C1180.27 22.378 1171.4 21.6549 1168.69 22.0228C1159.05 23.3379 1108.62 19.8165 1103.63 23.4777C1102.06 23.0838 1100.42 22.5396 1098.86 22.0587C1100.7 19.6182 1109.88 22.0931 1112.34 20.0508L1112.72 17.0053C1115.26 14.9287 1129.6 15.4235 1133.59 15.402C1132.22 15.8207 1130.39 16.153 1129.53 17.3381L1129.16 18.6508C1131.27 21.1489 1158.6 21.3654 1161.61 20.1278V16.5511C1159.29 16.3763 1156.32 16.3381 1154.2 15.4631Z" fill="#C5DBE2" fill-opacity="0.976471"/>
<path d="M594.494 15.4984C595.633 15.4503 597.788 15.2843 598.832 15.3508C603.474 15.7095 624.881 15.3555 626.958 16.2297C621.011 16.7244 604.068 15.6021 600.497 16.8818C598.37 20.0281 600.978 19.6 597.961 22.1052C592.161 22.3587 572 21.1561 568.616 23.3037L568.834 25.3351C570.78 25.1603 572.255 23.6259 572.321 23.6477C574.269 24.2932 575.927 25.2161 578.088 25.2414L577.92 26.2381C573.609 27.9714 566.461 25.3188 564.026 28.7903L564.211 31.6338C561.27 33.8113 555.356 31.0271 553.962 33.5609C556.313 35.7247 558.257 34.3607 559.013 36.2418C556.753 37.2635 552.533 37.2607 549.941 37.4028C549.5 44.8015 540.465 47.4238 536.413 52.8209C535.717 53.7469 536.399 56.8303 534.164 57.0464C529.979 58.9771 523.192 56.3282 522.626 60.4006C521.456 58.7168 520.398 56.7574 518.631 56.1652C516.169 57.0054 515.847 57.3035 513.029 56.0689L515.322 55.5507L516.019 54.1967L515.236 53.1694C512.779 53.2086 512.008 53.2855 509.852 51.7466L516.491 51.4243C517.009 51.4784 520.608 51.8541 520.608 51.8541C522.891 54.4068 522.632 55.7932 526.226 55.9416C525.732 54.7705 525.83 55.2873 525.928 53.9238C533.392 50.3291 535.29 48.4339 540.124 41.2381C540.352 40.8979 545.443 42.6559 544.886 37.0445C544.824 36.4121 548.127 36.141 549.139 35.7657L549.136 32.113C551.138 30.6402 553.699 31.6106 556.245 31.3139C559.68 30.9138 556.946 28.2221 558.766 25.8479C559.272 25.854 564.146 25.3061 564.16 25.3713C563.978 22.3605 565.947 21.5565 567.988 21.3329C572.624 20.8252 572.254 19.5072 574.696 16.4601C577.248 15.1361 579.498 15.3548 582.292 15.336L582.169 15.9702C580.36 18.1659 580.25 17.5643 580.238 19.8908C582.713 21.3088 586.879 20.4573 589.848 20.7627C592.287 20.8115 592.511 21.3007 594.151 19.8151L594.494 15.4984Z" fill="#C5DBE2" fill-opacity="0.988235"/>
<path d="M400.794 62.092L402.886 62.0513C405.545 67.0701 411.302 76.8843 417.339 71.6834L417.34 68.421C418.779 66.0839 419.839 67.9801 422.372 66.4981C422.606 66.3617 422.436 62.1034 423.678 62.0913C425.56 62.0728 428.644 62.3326 430.404 61.5649C430.417 61.0424 430.687 56.6593 431.248 56.6718C443.211 56.9397 436.371 50.5972 449.305 51.8127C446.259 52.4503 446.494 51.9145 444.284 53.9534C445.041 56.9901 448.777 56.3407 451.162 56.2949C449.04 56.5552 442.754 56.6511 441.696 57.5605L441.563 61.7264C439.122 63.2699 435.095 62.2347 433.931 62.9805C431.984 64.2271 427.849 67.7217 425.927 69.3103L425.605 70.7451L426.813 71.474C424.963 73.4779 419.963 72.4746 419.437 72.8733C415.405 75.923 418.769 79.112 412.537 77.5326C406.22 75.9319 403.262 67.748 399.097 65.4263L398.17 62.7171L400.794 62.092Z" fill="#B9DEE3" fill-opacity="0.968627"/>
<path d="M600.279 10.3744C609.17 10.452 643.397 7.89099 647.811 14.7325C644.628 15.8024 645.386 14.9705 643.88 17.7469C645.017 21.4287 645.941 21.3385 649.161 21.9315C640.722 23.4126 645.319 21.4973 642.946 17.2328C641.97 16.3049 629.336 16.3545 626.958 16.2297C624.882 15.3555 603.474 15.7095 598.832 15.3508C599.644 13.3991 599.825 12.4813 600.279 10.3744Z" fill="#C5DBE2" fill-opacity="0.952941"/>
<path d="M1133.58 15.402C1140.05 15.3648 1147.83 15.0984 1154.19 15.4631C1156.32 16.3381 1159.29 16.3763 1161.61 16.5511V20.1278C1158.6 21.3654 1131.27 21.1489 1129.16 18.6508L1129.53 17.338C1130.39 16.153 1132.22 15.8207 1133.58 15.402Z" fill="#C2DFE3" fill-opacity="0.988235"/>
<path d="M762.488 10.5535C762.595 8.37005 762.283 7.23761 763.389 5.90111C771.464 5.10325 785.013 5.5185 793.556 5.5416C793.684 6.5862 794.109 9.59411 794.081 10.4698C783.581 9.97949 773.059 10.872 762.488 10.5535Z" fill="#B9DEE3" fill-opacity="0.972549"/>
<path d="M930.391 31.2872C936.991 31.085 938.161 31.4659 943.585 26.8993C945.449 25.3333 964.344 25.0019 966.322 27.0678C966.769 28.4869 966.967 30.1535 968.08 30.4371C971.568 31.3256 977.524 30.6804 980.934 31.2294L975.064 31.656L970.867 31.4541C957.46 31.221 943.677 31.8543 930.391 31.2872Z" fill="#C2DFE3" fill-opacity="0.443137"/>
<path d="M449.305 51.8127C450.499 51.5608 451.689 51.2342 452.874 50.9265C453.67 47.3749 454.66 46.8765 457.872 46.7038C462.954 46.4305 468.099 46.46 473.191 46.4214C472.667 48.4427 472.794 49.612 471.241 50.8208C466.864 54.2293 454.081 47.5669 453.267 55.4915C452.655 55.7706 451.779 56.2297 451.162 56.2949C448.776 56.3407 445.04 56.9901 444.283 53.9534C446.494 51.9145 446.258 52.4502 449.305 51.8127Z" fill="#BBD8DC" fill-opacity="0.984314"/>
<path d="M321.111 25.8275C322.19 23.5137 322.325 22.225 324.697 21.63C329.711 20.3728 333.916 20.1806 338.643 22.2934L339.334 23.4424L338.192 25.8208L321.111 25.8275Z" fill="#C2DFE3" fill-opacity="0.376471"/>
<path d="M189.965 56.537C190.033 55.1908 190.341 54.4098 190.735 53.1661C195.079 50.6265 206.536 51.5191 211.911 51.659C209.248 52.3389 205.824 52.3239 204.419 53.7972L203.265 56.3982C198.536 56.6155 194.704 56.6844 189.965 56.537Z" fill="#BBD8DC" fill-opacity="0.901961"/>
<path d="M172.264 61.5651C172.254 60.1484 172.489 58.9674 172.712 57.5797C175.659 55.5939 178.387 56.3599 182.143 56.4982L181.501 62.1768C179.734 62.1146 177.428 62.3578 175.622 62.4868L172.264 61.5651Z" fill="#BBD8DC"/>
<path d="M308.537 31.3407L308.813 27.2835C311.178 24.9192 314.52 25.645 317.935 25.7091C317.608 29.1937 318.144 29.2427 316.196 31.1469C313.649 31.8244 311.151 31.5016 308.537 31.3407Z" fill="#BBD8DC" fill-opacity="0.870588"/>
<path d="M588.859 15.2844C589.335 13.968 589.908 12.7834 590.488 11.5252C593.056 9.79759 597.185 10.3034 600.28 10.3743C599.826 12.4813 599.644 13.399 598.833 15.3508C597.789 15.2843 595.634 15.4503 594.495 15.4983C592.824 15.7076 590.581 15.4276 588.859 15.2844Z" fill="#C2DFE3" fill-opacity="0.819608"/>
<path d="M1283.58 51.5865L1284.36 47.8788C1286.93 45.6514 1290.63 46.4551 1294.11 46.562C1292.48 53.6176 1289.79 51.8683 1283.58 51.5865Z" fill="#BBD8DC" fill-opacity="0.984314"/>
<path d="M589.849 20.7626C586.879 20.4573 582.713 21.3088 580.238 19.8907C580.25 17.5643 580.36 18.1658 582.169 15.9702C585.227 16.1866 587.731 15.6743 589.619 17.6556L589.849 20.7626Z" fill="#B9DEE3" fill-opacity="0.988235"/>
<path d="M802.596 5.50295C805.276 5.47841 809.274 5.04794 811.394 6.58104C811.898 8.92191 811.862 8.04119 811.231 10.4818C810.402 10.5964 808.154 10.5504 807.204 10.5602C803.283 9.53631 803.61 9.57238 802.596 5.50295Z" fill="#C2DFE3" fill-opacity="0.847059"/>
<path d="M980.933 31.2294C984.549 31.9269 984.584 31.6259 985.088 36.2425L979.182 36.1348L979.061 35.3133C977.622 35.0915 977.204 34.8474 975.885 34.2178L975.062 31.656L980.933 31.2294Z" fill="#BBD8DC" fill-opacity="0.796078"/>
<path d="M582.293 15.336C584.102 15.3121 587.154 15.1742 588.86 15.2844C590.581 15.4277 592.825 15.7076 594.496 15.4984L594.152 19.8151C592.513 21.3007 592.288 20.8115 589.85 20.7627L589.62 17.6556C587.732 15.6743 585.228 16.1867 582.17 15.9702L582.293 15.336Z" fill="#C2DFE3"/>
<path d="M998.098 41.5507C1000.53 41.183 1000.86 40.6652 1002.83 41.7995L1004.21 45.7108L1006.33 46.7349L1005.75 47.1086L1000.04 46.5936C998.083 44.9589 998.594 44.8392 998.098 41.5507Z" fill="#BBD8DC" fill-opacity="0.898039"/>
<path d="M875.763 55.9039L880.01 56.4926C880.556 58.8659 880.634 59.3071 880.442 61.733L875.451 62.4898L875.763 55.9039Z" fill="#C2DFE3" fill-opacity="0.984314"/>
<path d="M1265.75 61.6909L1265.98 57.4771C1267.58 55.978 1268.67 56.4813 1271.12 56.4424C1270.79 58.7451 1271.05 61.417 1268.71 61.9897L1265.75 61.6909Z" fill="#BBD8DC" fill-opacity="0.972549"/>
<path d="M970.865 31.4541L975.062 31.656L975.885 34.2178C977.204 34.8474 977.622 35.0914 979.061 35.3133L979.182 36.1348C976.622 36.3233 975.091 36.5536 972.546 35.9722C970.773 34.1084 971.298 34.7713 970.865 31.4541Z" fill="#BBD8DC" fill-opacity="0.894118"/>
<path d="M880.01 56.4926L885.107 56.3549L884.824 60.8843C883.236 62.4267 882.973 61.884 880.442 61.733C880.634 59.3071 880.556 58.8659 880.01 56.4926Z" fill="#C2DFE3" fill-opacity="0.913725"/>
<path d="M798.455 5.49103L802.596 5.50292C803.609 9.57235 803.283 9.53628 807.204 10.5602L798.76 10.4777L798.455 5.49103Z" fill="#B9DEE3" fill-opacity="0.898039"/>
<path d="M285.488 41.1307L290.556 41.0406C290.173 44.2172 290.646 44.6337 288.838 46.2302L286.065 46.5311L285.488 41.1307Z" fill="#BBD8DC" fill-opacity="0.988235"/>
<path d="M1437.62 72.4619L1443 72.4981V77.8298C1438.25 77.3416 1438.9 77.1272 1437.62 72.4619Z" fill="#BBD8DC" fill-opacity="0.988235"/>
<path d="M720.863 31.1369L721.551 26.8585C723.075 25.3702 724.132 25.7913 726.464 25.639L726.032 30.4838L720.863 31.1369Z" fill="#C2DFE3" fill-opacity="0.980392"/>
<path d="M793.557 5.54157L798.456 5.49103L798.761 10.4777L794.081 10.4697C794.11 9.59409 793.684 6.58618 793.557 5.54157Z" fill="#B9DEE3" fill-opacity="0.937255"/>
<path d="M281.764 46.6488C281.547 44.3657 281.372 43.6108 282.155 41.5335C283.092 42.055 284.451 42.5139 284.709 43.3625L285.489 41.1306L286.066 46.531L281.764 46.6488Z" fill="#C2DFE3" fill-opacity="0.180392"/>
<path d="M1189.09 25.849L1193.16 25.6238C1193.2 26.9833 1193.13 28.456 1193.1 29.8241C1191.76 31.4164 1192.38 31.148 1190.64 31.2074C1188.79 29.1551 1189.3 29.2869 1189.09 25.849Z" fill="#B9DEE3"/>
<path d="M263.377 62.1138C263.098 59.2844 262.652 57.8945 265.036 56.5978C267.329 58.5697 266.644 57.7106 267.462 61.3539L267.545 61.7996L263.377 62.1138Z" fill="#C2DFE3" fill-opacity="0.188235"/>
<path d="M1384.42 87.9846L1389.87 87.7214C1388.69 90.7685 1388.73 92.5846 1385.61 93.384L1384.42 87.9846Z" fill="#C2DFE3" fill-opacity="0.952941"/>
<path d="M1347.57 51.4412C1351.68 51.9716 1352.07 51.1968 1352.5 56.5301L1349.28 56.1862C1347.66 54.7633 1348.02 54.1686 1347.57 51.4412Z" fill="#BBD8DC" fill-opacity="0.988235"/>
<path d="M271.854 56.7581L272.243 53.0249C274.005 51.0212 274.8 51.5262 277.722 51.1501C276.378 54.6341 275.155 55.7943 271.854 56.7581Z" fill="#B9DEE3" fill-opacity="0.972549"/>
<path d="M1025.75 60.8502L1026.99 60.5073C1026.78 58.5023 1026.76 59.1796 1028.07 57.1884L1029.26 56.8015C1030.14 58.212 1029.82 59.9655 1029.81 61.98L1025.34 61.8929L1025.75 60.8502Z" fill="#C2DFE3" fill-opacity="0.109804"/>
<path d="M159.42 66.9611C159.614 65.4068 159.764 64.9644 160.227 63.5199C161.682 63.469 162.111 63.4937 163.431 62.7705L163.704 62.6176L163.044 66.0002C161.618 67.0286 161.126 66.9472 159.42 66.9611Z" fill="#C2DFE3" fill-opacity="0.0117647"/>
<path d="M258.766 63.103L261.307 63.4238L262.869 66.8427L258.756 67.686L258.766 63.103Z" fill="#C2DFE3" fill-opacity="0.0235294"/>
<path d="M295.119 36.7864C295.147 35.247 295.314 34.5047 295.594 33.0165L296.522 32.3492L297.846 34.1182L297.363 34.9692L298.458 35.7796L295.119 36.7864Z" fill="#C2DFE3" fill-opacity="0.0156863"/>
</g>
<defs>
<clipPath id="clip0_2093_12022">
<rect width="1452" height="479" fill="white" transform="translate(-9)"/>
</clipPath>
</defs>
</svg>
